<svg width="30" height="30" viewBox="0 0 30 30" fill="none" xmlns="http://www.w3.org/2000/svg">
<g clip-path="url(#clip0)">
<path d="M29.9707 8.82008C29.9005 7.22607 29.6427 6.1302 29.2734 5.18061C28.8925 4.17264 28.3064 3.27022 27.5386 2.52002C26.7884 1.75816 25.8801 1.16615 24.8838 0.79117C23.9287 0.421912 22.8385 0.16414 21.2445 0.0938599C19.6386 0.0176273 19.1288 0 15.0557 0C10.9827 0 10.4728 0.0176273 8.87287 0.0879078C7.27886 0.158188 6.18299 0.416189 5.23363 0.785218C4.22544 1.16615 3.32301 1.7522 2.57282 2.52002C1.81095 3.27022 1.21918 4.1786 0.843965 5.17489C0.474707 6.1302 0.216936 7.22012 0.146655 8.81413C0.0704227 10.4201 0.0527954 10.9299 0.0527954 15.0029C0.0527954 19.076 0.0704227 19.5858 0.140703 21.1858C0.210984 22.7798 0.468984 23.8757 0.838242 24.8253C1.21918 25.8332 1.81095 26.7356 2.57282 27.4858C3.32301 28.2477 4.23139 28.8397 5.22768 29.2147C6.18299 29.584 7.27291 29.8417 8.86715 29.912C10.4669 29.9825 10.9769 29.9999 15.05 29.9999C19.1231 29.9999 19.6329 29.9825 21.2328 29.912C22.8269 29.8417 23.9227 29.584 24.8721 29.2147C26.8882 28.4352 28.4823 26.8412 29.2618 24.8253C29.6308 23.8699 29.8888 22.7798 29.9591 21.1858C30.0293 19.5858 30.047 19.076 30.047 15.0029C30.047 10.9299 30.041 10.4201 29.9707 8.82008ZM27.2692 21.0686C27.2046 22.5337 26.9585 23.3249 26.7534 23.8523C26.2493 25.1593 25.212 26.1965 23.9051 26.7006C23.3777 26.9057 22.5808 27.1518 21.1214 27.2162C19.539 27.2867 19.0645 27.3041 15.0617 27.3041C11.0589 27.3041 10.5784 27.2867 9.00176 27.2162C7.53663 27.1518 6.74546 26.9057 6.21801 26.7006C5.56763 26.4602 4.97563 26.0793 4.49511 25.5812C3.99697 25.0947 3.61604 24.5086 3.37566 23.8583C3.17054 23.3308 2.92445 22.5337 2.86012 21.0745C2.78961 19.4922 2.77221 19.0174 2.77221 15.0146C2.77221 11.0118 2.78961 10.5313 2.86012 8.95492C2.92445 7.48979 3.17054 6.69862 3.37566 6.17117C3.61604 5.52056 3.99697 4.92879 4.50107 4.44804C4.98731 3.9499 5.57336 3.56897 6.22397 3.32882C6.75141 3.1237 7.54853 2.87761 9.00771 2.81305C10.5901 2.74277 11.0648 2.72514 15.0674 2.72514C19.0761 2.72514 19.5507 2.74277 21.1273 2.81305C22.5924 2.87761 23.3836 3.1237 23.9111 3.32882C24.5614 3.56897 25.1534 3.9499 25.634 4.44804C26.1321 4.93451 26.513 5.52056 26.7534 6.17117C26.9585 6.69862 27.2046 7.49551 27.2692 8.95492C27.3395 10.5373 27.3571 11.0118 27.3571 15.0146C27.3571 19.0174 27.3395 19.4862 27.2692 21.0686Z" fill="white"/>
<path d="M15.0555 7.29634C10.8009 7.29634 7.34894 10.7481 7.34894 15.0029C7.34894 19.2578 10.8009 22.7095 15.0555 22.7095C19.3103 22.7095 22.7621 19.2578 22.7621 15.0029C22.7621 10.7481 19.3103 7.29634 15.0555 7.29634ZM15.0555 20.002C12.2954 20.002 10.0565 17.7633 10.0565 15.0029C10.0565 12.2425 12.2954 10.0039 15.0555 10.0039C17.8159 10.0039 20.0546 12.2425 20.0546 15.0029C20.0546 17.7633 17.8159 20.002 15.0555 20.002Z" fill="white"/>
<path d="M24.8662 6.99164C24.8662 7.98518 24.0606 8.79077 23.0668 8.79077C22.0733 8.79077 21.2677 7.98518 21.2677 6.99164C21.2677 5.99787 22.0733 5.1925 23.0668 5.1925C24.0606 5.1925 24.8662 5.99787 24.8662 6.99164Z" fill="white"/>
</g>
<defs>
<clipPath id="clip0">
<rect width="30" height="30" fill="white"/>
</clipPath>
</defs>
</svg>
