<svg width="47" height="47" viewBox="0 0 47 47" fill="none" xmlns="http://www.w3.org/2000/svg">
<path d="M43.6276 35.319L42.1296 27.3927C42.067 27.0642 41.8483 26.7868 41.5428 26.6505C41.2379 26.5133 40.8851 26.5354 40.5986 26.7076L33.6904 30.872C33.2857 31.1158 33.1012 31.605 33.2437 32.0546C33.3856 32.5051 33.8175 32.7983 34.2885 32.7655L36.9868 32.5773C34.4105 36.0399 30.5326 37.461 26.0847 37.8252V15.1496H28.306C28.6642 15.4163 29.1045 15.5793 29.5853 15.5793C30.7748 15.5793 31.7396 14.6154 31.7396 13.4258C31.7396 12.2355 30.7748 11.2715 29.5853 11.2715C29.1038 11.2715 28.6633 11.4354 28.3051 11.7021H26.0846V8.5878C27.3488 7.74731 28.1854 6.31323 28.1854 4.68559C28.1855 2.1024 26.0833 0 23.5 0C20.9167 0 18.8143 2.1024 18.8143 4.68559C18.8143 6.31323 19.651 7.74731 20.9151 8.5878V11.7022H18.6947C18.3365 11.4355 17.8961 11.2716 17.4146 11.2716C16.2251 11.2716 15.2603 12.2356 15.2603 13.4259C15.2603 14.6154 16.2251 15.5794 17.4146 15.5794C17.8954 15.5794 18.3357 15.4164 18.6939 15.1497H20.9151V37.8253C16.4673 37.4611 12.5894 36.04 10.0132 32.5774L12.7114 32.7656C13.1824 32.7984 13.6144 32.5052 13.7562 32.0547C13.8987 31.6052 13.7143 31.1159 13.3096 30.8721L6.40129 26.7077C6.11473 26.5355 5.76197 26.5134 5.45711 26.6506C5.15155 26.7869 4.93287 27.0643 4.87033 27.3928L3.37223 35.3191C3.28456 35.7831 3.52609 36.2465 3.95663 36.4399C4.38716 36.6344 4.89388 36.5078 5.18351 36.1344L6.79511 34.0556C9.94599 39.158 14.9005 43.4298 20.6149 44.5386L22.7774 46.7011C23.1767 47.0996 23.8228 47.0996 24.2214 46.7011L26.3839 44.5386C32.0983 43.4306 37.0535 39.158 40.2045 34.0556L41.8161 36.1344C42.1057 36.5078 42.6124 36.6344 43.0429 36.4399C43.4737 36.2464 43.7152 35.783 43.6276 35.319ZM23.5 3.44733C24.1828 3.44733 24.7382 4.00284 24.7382 4.68559C24.7382 5.36835 24.1828 5.92386 23.5 5.92386C22.8172 5.92386 22.2616 5.36835 22.2616 4.68559C22.2617 4.00284 22.8172 3.44733 23.5 3.44733Z" fill="white"/>
</svg>
