<svg width="39" height="33" viewBox="0 0 39 33" fill="none" xmlns="http://www.w3.org/2000/svg">
<g clip-path="url(#clip0)">
<path d="M30.875 15.2912V7.12503C30.875 5.33262 29.4174 3.875 27.6249 3.875H3.24995C1.45755 3.875 0 5.33255 0 7.12503V23.375C0 25.1674 1.45755 26.625 3.25003 26.625H21.4715C22.5361 30.3706 25.9802 33.125 30.0625 33.125C31.6336 33.125 33.1784 32.7116 34.5321 31.9285C34.9201 31.7039 35.0534 31.2072 34.828 30.8184C34.6034 30.4297 34.106 30.2955 33.7179 30.5225C32.6118 31.1621 31.3478 31.5 30.0624 31.5C26.0301 31.5 22.7499 28.2198 22.7499 24.1875C22.7499 20.1552 26.0301 16.875 30.0624 16.875C34.0948 16.875 37.3749 20.1552 37.3749 24.1875V25.0001C37.3749 25.8958 36.6458 26.625 35.75 26.625C34.8542 26.625 34.125 25.8958 34.125 25.0001V21.75C34.125 21.3009 33.7616 20.9375 33.3125 20.9375C33.0939 20.9375 32.8976 21.0259 32.7517 21.166C32.0335 20.5261 31.0977 20.125 30.0624 20.125C27.8225 20.125 26 21.9475 26 24.1874C26 26.4274 27.8225 28.25 30.0625 28.25C31.2734 28.25 32.35 27.7068 33.0949 26.8635C33.6835 27.6997 34.6519 28.25 35.7501 28.25C37.5425 28.25 39 26.7925 39 25V24.1874C39 19.5336 35.4233 15.7036 30.875 15.2912ZM3.25003 5.49997H27.625C27.6588 5.49997 27.6872 5.51727 27.7205 5.51932L16.1056 15.0532C15.6922 15.3135 15.0932 15.2595 14.8242 15.0945L3.1555 5.51917C3.18848 5.51719 3.21651 5.49997 3.25003 5.49997ZM29.25 15.2912C24.7017 15.7036 21.125 19.5336 21.125 24.1875C21.125 24.4617 21.1418 24.732 21.1661 25.0001H3.25003C2.35424 25.0001 1.62505 24.2709 1.62505 23.3751V7.12503C1.62505 6.89491 1.67586 6.67759 1.76254 6.47909L13.865 16.4037C14.3378 16.7124 14.8814 16.8751 15.4376 16.8751C15.9724 16.8751 16.4952 16.7244 16.9555 16.4387C17.0015 16.4141 17.0451 16.3848 17.0864 16.3507L29.1124 6.47894C29.1992 6.67759 29.2501 6.89491 29.2501 7.1251V15.2912H29.25ZM30.0625 26.625C28.7184 26.625 27.625 25.5317 27.625 24.1875C27.625 22.8434 28.7184 21.75 30.0625 21.75C31.4067 21.75 32.5 22.8434 32.5 24.1875C32.5 25.5317 31.4067 26.625 30.0625 26.625Z" fill="white"/>
</g>
<defs>
<clipPath id="clip0">
<rect width="39" height="33" fill="white"/>
</clipPath>
</defs>
</svg>
