<svg width="50" height="50" viewBox="0 0 50 50" fill="none" xmlns="http://www.w3.org/2000/svg">
<path d="M46.875 13.2812H45.3125V10.9375C45.3118 10.3161 45.0646 9.72038 44.6253 9.28099C44.1859 8.8416 43.5901 8.59445 42.9688 8.59375H22.9303L19.2383 5.63994C19.0997 5.52907 18.9275 5.46869 18.75 5.46875H7.03125C6.40986 5.46945 5.81413 5.7166 5.37474 6.15599C4.93535 6.59538 4.6882 7.19111 4.6875 7.8125V13.2812H3.125C2.50361 13.2819 1.90788 13.5291 1.46849 13.9685C1.0291 14.4079 0.781948 15.0036 0.78125 15.625V42.1875C0.781948 42.8089 1.0291 43.4046 1.46849 43.844C1.90788 44.2834 2.50361 44.5306 3.125 44.5312H46.875C47.4964 44.5306 48.0921 44.2834 48.5315 43.844C48.9709 43.4046 49.2181 42.8089 49.2188 42.1875V15.625C49.2181 15.0036 48.9709 14.4079 48.5315 13.9685C48.0921 13.5291 47.4964 13.2819 46.875 13.2812ZM6.25 7.8125C6.25023 7.60537 6.33262 7.40679 6.47908 7.26033C6.62554 7.11387 6.82412 7.03148 7.03125 7.03125H18.476L22.168 9.98506C22.3066 10.0959 22.4788 10.1563 22.6562 10.1562H42.9688C43.1759 10.1565 43.3745 10.2389 43.5209 10.3853C43.6674 10.5318 43.7498 10.7304 43.75 10.9375V13.2812H6.25V7.8125ZM47.6562 42.1875C47.656 42.3946 47.5736 42.5932 47.4272 42.7397C47.2807 42.8861 47.0821 42.9685 46.875 42.9688H3.125C2.91787 42.9685 2.71929 42.8861 2.57283 42.7397C2.42637 42.5932 2.34398 42.3946 2.34375 42.1875V15.625C2.34398 15.4179 2.42637 15.2193 2.57283 15.0728C2.71929 14.9264 2.91787 14.844 3.125 14.8438H46.875C47.0821 14.844 47.2807 14.9264 47.4272 15.0728C47.5736 15.2193 47.656 15.4179 47.6562 15.625V42.1875Z" fill="#BBBBBB"/>
<path d="M11.7188 40.625H3.90625C3.69905 40.625 3.50034 40.7073 3.35382 40.8538C3.20731 41.0003 3.125 41.199 3.125 41.4062C3.125 41.6135 3.20731 41.8122 3.35382 41.9587C3.50034 42.1052 3.69905 42.1875 3.90625 42.1875H11.7188C11.926 42.1875 12.1247 42.1052 12.2712 41.9587C12.4177 41.8122 12.5 41.6135 12.5 41.4062C12.5 41.199 12.4177 41.0003 12.2712 40.8538C12.1247 40.7073 11.926 40.625 11.7188 40.625Z" fill="#BBBBBB"/>
<path d="M14.8438 40.625H14.0625C13.8553 40.625 13.6566 40.7073 13.5101 40.8538C13.3636 41.0003 13.2812 41.199 13.2812 41.4062C13.2812 41.6135 13.3636 41.8122 13.5101 41.9587C13.6566 42.1052 13.8553 42.1875 14.0625 42.1875H14.8438C15.051 42.1875 15.2497 42.1052 15.3962 41.9587C15.5427 41.8122 15.625 41.6135 15.625 41.4062C15.625 41.199 15.5427 41.0003 15.3962 40.8538C15.2497 40.7073 15.051 40.625 14.8438 40.625Z" fill="#BBBBBB"/>
<path d="M25 19.5312C23.1458 19.5312 21.3332 20.0811 19.7915 21.1112C18.2498 22.1414 17.0482 23.6055 16.3386 25.3186C15.6291 27.0316 15.4434 28.9166 15.8051 30.7352C16.1669 32.5538 17.0598 34.2243 18.3709 35.5354C19.682 36.8465 21.3525 37.7394 23.171 38.1011C24.9896 38.4628 26.8746 38.2772 28.5877 37.5676C30.3007 36.858 31.7649 35.6564 32.795 34.1147C33.8252 32.573 34.375 30.7604 34.375 28.9062C34.3722 26.4207 33.3836 24.0378 31.626 22.2802C29.8685 20.5227 27.4856 19.534 25 19.5312ZM25 36.7187C23.4548 36.7187 21.9444 36.2606 20.6596 35.4021C19.3749 34.5437 18.3735 33.3235 17.7822 31.896C17.1909 30.4684 17.0362 28.8976 17.3376 27.3821C17.6391 25.8666 18.3831 24.4746 19.4757 23.382C20.5683 22.2894 21.9604 21.5453 23.4759 21.2439C24.9913 20.9424 26.5622 21.0971 27.9897 21.6884C29.4173 22.2797 30.6374 23.2811 31.4959 24.5659C32.3543 25.8506 32.8125 27.3611 32.8125 28.9062C32.8102 30.9775 31.9863 32.9633 30.5217 34.4279C29.0571 35.8925 27.0713 36.7164 25 36.7187Z" fill="#BBBBBB"/>
<path d="M25.5524 22.8851C25.4799 22.8125 25.3938 22.755 25.299 22.7157C25.2042 22.6765 25.1026 22.6562 25 22.6562C24.8974 22.6562 24.7958 22.6765 24.701 22.7157C24.6062 22.755 24.5201 22.8125 24.4476 22.8851L19.7601 27.5726C19.6508 27.6818 19.5764 27.8211 19.5462 27.9726C19.5161 28.1242 19.5316 28.2812 19.5907 28.424C19.6498 28.5668 19.75 28.6888 19.8784 28.7746C20.0069 28.8605 20.158 28.9063 20.3125 28.9063H21.875V32.8125C21.875 33.0197 21.9573 33.2184 22.1038 33.365C22.2503 33.5115 22.449 33.5938 22.6562 33.5938H27.3438C27.551 33.5938 27.7497 33.5115 27.8962 33.365C28.0427 33.2184 28.125 33.0197 28.125 32.8125V28.9063H29.6875C29.842 28.9063 29.9931 28.8605 30.1216 28.7746C30.25 28.6888 30.3502 28.5668 30.4093 28.424C30.4684 28.2812 30.4839 28.1242 30.4538 27.9726C30.4236 27.8211 30.3492 27.6818 30.2399 27.5726L25.5524 22.8851ZM27.3438 27.3438C27.1366 27.3438 26.9378 27.4261 26.7913 27.5726C26.6448 27.7191 26.5625 27.9178 26.5625 28.125V32.0313H23.4375V28.125C23.4375 27.9178 23.3552 27.7191 23.2087 27.5726C23.0622 27.4261 22.8635 27.3438 22.6562 27.3438H22.1985L25 24.5423L27.8015 27.3438H27.3438Z" fill="#BBBBBB"/>
</svg>
