<svg width="36" height="36" viewBox="0 0 36 36" fill="none" xmlns="http://www.w3.org/2000/svg">
<g clip-path="url(#clip0)">
<path d="M18.2175 29.25C23.4255 29.25 21.5685 25.953 21.9705 25.005C21.9645 24.297 21.9585 23.616 21.9825 23.202C22.3125 23.295 23.091 23.6895 24.699 25.2525C27.1815 27.7575 27.816 29.25 29.8215 29.25H33.513C34.683 29.25 35.292 28.7655 35.5965 28.359C35.8905 27.966 36.1785 27.276 35.8635 26.202C35.04 23.616 30.237 19.1505 29.9385 18.6795C29.9835 18.5925 30.0555 18.477 30.093 18.417H30.09C31.038 17.1645 34.656 11.7435 35.1885 9.5745C35.19 9.5715 35.1915 9.567 35.1915 9.5625C35.4795 8.5725 35.2155 7.9305 34.9425 7.5675C34.5315 7.0245 33.8775 6.75 32.994 6.75H29.3025C28.0665 6.75 27.129 7.3725 26.655 8.508C25.8615 10.5255 23.6325 14.6745 21.9615 16.143C21.9105 14.0625 21.945 12.474 21.972 11.2935C22.026 8.991 22.2 6.75 19.8105 6.75H14.0085C12.5115 6.75 11.079 8.385 12.63 10.326C13.986 12.027 13.1175 12.975 13.41 17.694C12.27 16.4715 10.242 13.17 8.808 8.9505C8.406 7.809 7.797 6.7515 6.0825 6.7515H2.391C0.894 6.7515 0 7.5675 0 8.934C0 12.003 6.7935 29.25 18.2175 29.25ZM6.0825 9.0015C6.408 9.0015 6.441 9.0015 6.6825 9.687C8.151 14.0115 11.445 20.4105 13.851 20.4105C15.6585 20.4105 15.6585 18.558 15.6585 17.8605L15.657 12.3075C15.558 10.47 14.889 9.555 14.4495 9L19.7115 9.006C19.7145 9.0315 19.6815 15.1485 19.7265 16.6305C19.7265 18.735 21.3975 19.941 24.006 17.301C26.7585 14.1945 28.662 9.5505 28.7385 9.3615C28.851 9.0915 28.9485 9 29.3025 9H32.994H33.009C33.0075 9.0045 33.0075 9.009 33.006 9.0135C32.6685 10.5885 29.337 15.6075 28.2225 17.166C28.2045 17.19 28.188 17.2155 28.1715 17.241C27.681 18.042 27.282 18.927 28.239 20.172H28.2405C28.3275 20.277 28.554 20.523 28.884 20.865C29.91 21.924 33.429 25.545 33.741 26.985C33.534 27.018 33.309 26.994 29.8215 27.0015C29.079 27.0015 28.4985 25.8915 26.283 23.6565C24.291 21.7185 22.998 20.9265 21.8205 20.9265C19.5345 20.9265 19.701 22.782 19.722 25.026C19.7295 27.459 19.7145 26.6895 19.731 26.8425C19.5975 26.895 19.215 27 18.2175 27C8.7 27 2.502 11.8935 2.2635 9.006C2.346 8.9985 3.4815 9.003 6.0825 9.0015Z" fill="white"/>
</g>
<defs>
<clipPath id="clip0">
<rect width="36" height="36" fill="white"/>
</clipPath>
</defs>
</svg>
