<svg width="40" height="40" viewBox="0 0 40 40" fill="none" xmlns="http://www.w3.org/2000/svg">
<g clip-path="url(#clip0)">
<path d="M35.5359 20.5826V1.2204C35.5359 0.545959 34.9899 0 34.3155 0C33.2639 0 1.86707 0 1.2204 0C0.545959 0 0 0.545959 0 1.2204V30.7529C0 31.4267 0.545959 31.9733 1.2204 31.9733H18.7747C19.9838 36.5863 24.1891 40 29.1769 40C35.1056 40 39.9292 35.1764 39.9292 29.2477C39.9292 25.6958 38.1989 22.5415 35.5359 20.5826ZM14.8038 2.4408H20.7321V10.8832L18.4241 9.41132C18.024 9.1568 17.5122 9.15588 17.1118 9.41132L14.8038 10.8832V2.4408ZM18.4274 29.5325H2.4408V2.4408H12.363V13.1082C12.363 14.0704 13.4286 14.6555 14.2398 14.1373L17.7682 11.8878L21.2961 14.1373C22.1027 14.6521 23.1729 14.0765 23.1729 13.1082V2.4408H33.0951V19.2337C31.8805 18.7567 30.5585 18.4949 29.1769 18.4949C23.3496 18.4949 18.3194 23.219 18.4274 29.5325ZM29.1769 37.5592C24.6698 37.5592 21.0168 33.9618 20.8698 29.5325C20.708 24.8441 24.4794 20.9357 29.1769 20.9357C33.7561 20.9357 37.4884 24.6619 37.4884 29.2477C37.4884 33.8306 33.7598 37.5592 29.1769 37.5592Z" fill="#003472"/>
<path d="M34.6509 25.9445C33.9734 25.7733 34.779 25.9765 32.1475 25.3146L30.8035 23.153C30.0506 21.943 28.2977 21.951 27.55 23.153L26.2067 25.3146L23.7033 25.9445C22.3193 26.2912 21.7895 27.9748 22.7206 29.053C23.0487 29.4326 24.0912 30.6396 24.3707 30.964C24.2682 32.2946 24.3118 31.7251 24.173 33.5406C24.0854 34.689 25.0043 35.6039 26.0791 35.6039C26.5845 35.6039 26.6351 35.5328 29.1772 34.4558L31.5234 35.4501C32.8451 36.0116 34.2914 34.9701 34.1806 33.54C34.0417 31.726 34.0854 32.2943 33.9828 30.964C34.3252 30.567 35.3253 29.4098 35.6329 29.053C36.5604 27.9791 36.0397 26.2942 34.6509 25.9445ZM31.9366 29.6023C31.6659 29.9481 31.5195 30.3833 31.5277 30.8224C31.5277 30.8957 31.5201 30.7745 31.6812 32.8662L29.924 32.1219C29.4464 31.9171 28.8876 31.9253 28.4296 32.1219L26.673 32.8662C26.8265 30.8758 26.8259 30.9008 26.8259 30.8224C26.8341 30.3833 26.6885 29.9481 26.4166 29.6023C26.3666 29.5385 26.423 29.606 25.1248 28.1036L27.008 27.63C27.4924 27.5082 27.904 27.2079 28.1674 26.7831L29.1772 25.1593L30.1858 26.7831C30.4495 27.207 30.8612 27.5082 31.3461 27.63C33.331 28.1295 33.0508 28.0591 33.2287 28.1036C32.6279 28.7997 31.9873 29.5379 31.9366 29.6023Z" fill="#003472"/>
</g>
<defs>
<clipPath id="clip0">
<rect width="40" height="40" fill="white"/>
</clipPath>
</defs>
</svg>
