<svg width="42" height="42" viewBox="0 0 42 42" fill="none" xmlns="http://www.w3.org/2000/svg">
<path d="M7.56172 42H33.6825C35.0618 42 36.1765 40.9153 36.1765 39.5825V36.244C37.4118 36.082 38.3824 35.0694 38.3824 33.8486V2.41751C38.3824 1.08467 37.2205 0 35.8411 0H6.15892C4.77956 0 3.61768 1.08536 3.61768 2.4182V38.2148C3.61768 38.2266 3.63732 38.2386 3.63732 38.2507C3.63732 40.318 5.40892 42 7.56172 42ZM5.38238 2.4182C5.38238 2.05802 5.7529 1.76471 6.15892 1.76471H35.8411C36.2472 1.76471 36.6177 2.05767 36.6177 2.41751V33.8486C36.6177 34.2088 36.2475 34.5 35.8411 34.5H7.56172C6.79208 34.499 6.0376 34.7123 5.38238 35.1163V2.4182ZM5.42202 38.2242C5.43684 37.1419 6.39123 36.2647 7.56172 36.2647H34.4118V39.5825C34.4118 39.9423 34.0888 40.2353 33.6825 40.2353H7.56172C6.38192 40.2353 5.42202 39.344 5.42202 38.25V38.2242Z" fill="#003472"/>
<path d="M10.0984 30H31.9015C32.3889 30 32.7839 29.605 32.7839 29.1176C32.7839 28.6303 32.3889 28.2353 31.9015 28.2353H10.0984C9.61106 28.2353 9.21606 28.6303 9.21606 29.1176C9.21606 29.605 9.61106 30 10.0984 30Z" fill="#003472"/>
<path d="M10.0984 25.5883H31.9015C32.3889 25.5883 32.7839 25.1933 32.7839 24.7059C32.7839 24.2185 32.3889 23.8235 31.9015 23.8235H10.0984C9.61106 23.8235 9.21606 24.2185 9.21606 24.7059C9.21606 25.1933 9.61106 25.5883 10.0984 25.5883Z" fill="#003472"/>
<path d="M14.9116 15.5294H18.3528V18.9706C18.3528 19.4579 18.7478 19.8529 19.2352 19.8529H22.7646C23.252 19.8529 23.6469 19.4579 23.6469 18.9706V15.5294H27.0881C27.5755 15.5294 27.9705 15.1344 27.9705 14.647V11.1176C27.9705 10.6303 27.5755 10.2353 27.0881 10.2353H23.6469V6.7941C23.6469 6.30673 23.252 5.91174 22.7646 5.91174H19.2352C18.7478 5.91174 18.3528 6.30673 18.3528 6.7941V10.2353H14.9116C14.4243 10.2353 14.0293 10.6303 14.0293 11.1176V14.647C14.0293 15.1344 14.4243 15.5294 14.9116 15.5294ZM15.794 12H19.2352C19.7225 12 20.1175 11.605 20.1175 11.1176V7.67645H21.8822V11.1176C21.8822 11.605 22.2772 12 22.7646 12H26.2058V13.7647H22.7646C22.2772 13.7647 21.8822 14.1597 21.8822 14.647V18.0882H20.1175V14.647C20.1175 14.1597 19.7225 13.7647 19.2352 13.7647H15.794V12Z" fill="#003472"/>
</svg>
