<svg width="43" height="43" viewBox="0 0 43 43" fill="none" xmlns="http://www.w3.org/2000/svg">
<g clip-path="url(#clip0)">
<path d="M7.56286 33.2535C6.96086 33.2535 6.38216 33.4038 5.86874 33.6859C3.16418 30.219 1.67969 25.9121 1.67969 21.5C1.67969 10.5709 10.5709 1.67969 21.5 1.67969C22.8287 1.67969 24.1567 1.8119 25.4473 2.07271C25.9013 2.16457 26.3448 1.87062 26.4367 1.41592C26.5286 0.961227 26.2346 0.518341 25.7799 0.426155C24.3801 0.143364 22.9402 0 21.5 0C15.7572 0 10.358 2.23641 6.29719 6.29719C2.23641 10.358 0 15.7572 0 21.5C0 26.3307 1.64032 31.045 4.62669 34.8243C4.2422 35.3988 4.03551 36.0739 4.03551 36.7809C4.03551 37.7231 4.40262 38.6089 5.06892 39.2748C5.73489 39.9411 6.62066 40.3082 7.56286 40.3082C8.50506 40.3082 9.39083 39.9411 10.0571 39.2748C10.7234 38.6089 11.0902 37.7228 11.0902 36.7806C11.0902 35.8387 10.7234 34.9526 10.0571 34.2866C9.39083 33.6203 8.50506 33.2535 7.56286 33.2535ZM8.86921 38.0872C8.52048 38.4363 8.05627 38.6285 7.56286 38.6285C7.06945 38.6285 6.60557 38.4363 6.25651 38.0872C5.90745 37.7382 5.7152 37.2743 5.7152 36.7809C5.7152 36.2872 5.90745 35.8233 6.25651 35.4742C6.60524 35.1252 7.06945 34.9332 7.56286 34.9332C8.05627 34.9332 8.52015 35.1255 8.86921 35.4742C9.21827 35.8233 9.41051 36.2872 9.41051 36.7809C9.41051 37.2743 9.21827 37.7382 8.86921 38.0872Z" fill="#003472"/>
<path d="M38.3728 8.17471C39.2858 6.80504 39.1391 4.93245 37.9315 3.72485C37.2652 3.05888 36.3795 2.69177 35.4373 2.69177C34.4951 2.69177 33.6093 3.05888 32.943 3.72485C32.2767 4.39114 31.9099 5.27692 31.9099 6.21912C31.9099 7.16132 32.2767 8.04709 32.943 8.71339C33.6093 9.37968 34.4951 9.74646 35.4373 9.74646C36.0393 9.74646 36.618 9.59621 37.1314 9.31407C39.836 12.7814 41.3204 17.0879 41.3204 21.5C41.3204 32.4291 32.4293 41.3203 21.5001 41.3203C20.1846 41.3203 18.8691 41.1907 17.5906 40.9348C17.1359 40.844 16.6933 41.1389 16.6021 41.5936C16.5113 42.0486 16.8062 42.4909 17.2609 42.5821C18.6476 42.8593 20.074 43 21.5001 43C27.2429 43 32.6422 40.7636 36.7029 36.7028C40.7637 32.642 43.0001 27.2428 43.0001 21.5C43.0001 16.6689 41.3595 11.9543 38.3728 8.17471ZM34.1309 7.52579C33.7819 7.17673 33.5896 6.71285 33.5896 6.21912C33.5896 5.72571 33.7819 5.26183 34.1309 4.91277C34.4797 4.56371 34.9439 4.37146 35.4373 4.37146C35.9307 4.37146 36.3949 4.56371 36.744 4.91277C37.4641 5.63319 37.4641 6.80537 36.744 7.52579C36.3949 7.87453 35.9307 8.06677 35.4373 8.06677C34.9435 8.06677 34.4797 7.87453 34.1309 7.52579Z" fill="#003472"/>
<path d="M18.0344 35.9453C18.0344 36.4092 18.4107 36.7852 18.8743 36.7852H24.1256C24.5895 36.7852 24.9654 36.4092 24.9654 35.9453V34.3171C26.0697 34.0199 27.1254 33.5823 28.1175 33.0108L29.267 34.1603C29.4245 34.3178 29.638 34.4064 29.8611 34.4064C30.0836 34.4064 30.2975 34.3178 30.4549 34.16L34.1666 30.4456C34.4944 30.1176 34.4944 29.5858 34.1666 29.2581L33.0184 28.1098C33.5899 27.1178 34.0275 26.0621 34.3248 24.9578H35.9467C36.4106 24.9578 36.7866 24.5818 36.7866 24.118V18.8666C36.7866 18.4027 36.4106 18.0268 35.9467 18.0268H34.3244C34.0272 16.9229 33.5899 15.8671 33.0184 14.8751L34.1604 13.7331C34.3179 13.5756 34.4065 13.3617 34.4065 13.139C34.4061 12.9162 34.3176 12.7023 34.1601 12.5448L30.4454 8.83312C30.1177 8.50539 29.5859 8.50539 29.2578 8.83345L28.1175 9.97413C27.1254 9.40264 26.0697 8.965 24.9654 8.66778V7.05469C24.9654 6.59081 24.5895 6.21484 24.1256 6.21484H18.8743C18.4107 6.21484 18.0344 6.59081 18.0344 7.05469V8.66811C16.9305 8.965 15.8748 9.40264 14.8827 9.97413L13.742 8.83345C13.4143 8.50571 12.8825 8.50539 12.5544 8.83312L8.8401 12.5452C8.68231 12.7026 8.59373 12.9162 8.59373 13.139C8.59373 13.3617 8.68231 13.5756 8.83978 13.7331L9.98177 14.8751C9.41028 15.8671 8.97264 16.9225 8.67542 18.0268H7.05642C6.59254 18.0268 6.21658 18.4027 6.21658 18.8663L6.21362 24.1176C6.2133 24.3404 6.30187 24.5543 6.45934 24.7117C6.61681 24.8692 6.83038 24.9578 7.05347 24.9578H8.67542C8.97264 26.0621 9.41028 27.1178 9.98177 28.1098L8.83354 29.2581C8.50581 29.5858 8.50548 30.1176 8.83354 30.4456L12.5453 34.16C12.7027 34.3175 12.9163 34.4064 13.1391 34.4064H13.1394C13.3621 34.4064 13.5757 34.3178 13.7332 34.1603L14.8824 33.0108C15.8748 33.5823 16.9305 34.0199 18.0344 34.3171V35.9453ZM15.2118 31.2445C14.8794 31.0296 14.4421 31.0762 14.162 31.356L13.1394 32.3786L10.6149 29.8522L11.6365 28.8303C11.9164 28.5504 11.9629 28.1131 11.7481 27.7808C10.9866 26.6024 10.4512 25.3108 10.1573 23.9415C10.074 23.5547 9.73211 23.2781 9.33614 23.2781H7.89364L7.89561 19.7065H9.33614C9.73211 19.7065 10.074 19.4302 10.1573 19.0431C10.4512 17.6741 10.9866 16.3825 11.7481 15.2041C11.9629 14.8718 11.9164 14.4345 11.6365 14.1546L10.6215 13.1393L13.1479 10.6148L14.162 11.6292C14.4421 11.909 14.8791 11.9553 15.2118 11.7408C16.3898 10.9793 17.6814 10.4439 19.0508 10.15C19.4376 10.0666 19.7141 9.72447 19.7141 9.32883V7.89453H23.2857V9.3285C23.2857 9.72447 23.562 10.0666 23.9491 10.1496C25.3181 10.4439 26.61 10.979 27.7881 11.7404C28.1204 11.9553 28.5577 11.909 28.8376 11.6289L29.8519 10.6148L32.3784 13.1393L31.3633 14.1543C31.0832 14.4345 31.0369 14.8718 31.2518 15.2041C32.0132 16.3825 32.5483 17.6741 32.8426 19.0431C32.9256 19.4302 33.2677 19.7065 33.6637 19.7065H35.1069V23.2781H33.6637C33.2677 23.2781 32.9259 23.5547 32.8426 23.9415C32.5486 25.3105 32.0132 26.6024 31.2518 27.7805C31.0369 28.1131 31.0835 28.5504 31.3633 28.8303L32.3849 29.8519L29.8605 32.3783L28.8379 31.356C28.5577 31.0759 28.1204 31.0296 27.7881 31.2445C26.6097 32.0059 25.3181 32.541 23.9491 32.8353C23.562 32.9186 23.2857 33.2604 23.2857 33.6564V35.1055H19.7141V33.6564C19.7141 33.2608 19.4376 32.9186 19.0508 32.8353C17.6818 32.5413 16.3902 32.0059 15.2118 31.2445Z" fill="#003472"/>
<path d="M28.4396 21.5C28.4396 17.6735 25.3266 14.5605 21.5001 14.5605C17.6735 14.5605 14.5605 17.6735 14.5605 21.5C14.5605 25.3266 17.6735 28.4396 21.5001 28.4396C25.3266 28.4396 28.4396 25.3266 28.4396 21.5ZM16.2402 21.5C16.2402 18.5996 18.5997 16.2402 21.5001 16.2402C24.4005 16.2402 26.7599 18.5999 26.7599 21.5C26.7599 24.4001 24.4005 26.7599 21.5001 26.7599C18.5997 26.7599 16.2402 24.4004 16.2402 21.5Z" fill="#003472"/>
<path d="M29.2332 3.17634C29.4543 3.17634 29.6708 3.08645 29.827 2.93029C29.9831 2.77315 30.073 2.55663 30.073 2.33551C30.073 2.11571 29.9834 1.89886 29.827 1.74171C29.6708 1.58556 29.4543 1.49567 29.2332 1.49567C29.0114 1.49567 28.7958 1.58556 28.6397 1.74171C28.4832 1.89886 28.3933 2.11472 28.3933 2.33551C28.3933 2.55728 28.4832 2.77315 28.6397 2.93029C28.7958 3.08645 29.0114 3.17634 29.2332 3.17634Z" fill="#003472"/>
<path d="M13.8037 39.8387C13.5829 39.8387 13.3661 39.9286 13.2099 40.0848C13.0538 40.241 12.9639 40.4578 12.9639 40.6786C12.9639 40.9004 13.0538 41.1162 13.2099 41.2724C13.3661 41.4285 13.5829 41.5184 13.8037 41.5184C14.0245 41.5184 14.2413 41.4285 14.3975 41.2724C14.5537 41.1162 14.6436 40.8994 14.6436 40.6786C14.6436 40.4578 14.5537 40.241 14.3975 40.0848C14.2413 39.9286 14.0245 39.8387 13.8037 39.8387Z" fill="#003472"/>
</g>
<defs>
<clipPath id="clip0">
<rect width="43" height="43" fill="white"/>
</clipPath>
</defs>
</svg>
