<svg width="53" height="52" viewBox="0 0 53 52" fill="none" xmlns="http://www.w3.org/2000/svg">
<g clip-path="url(#clip0)">
<path d="M41.5976 29.993C41.5976 29.993 34.9106 25.9447 34.9023 25.9396C34.421 25.6482 33.7729 25.8019 33.4769 26.2706C33.1802 26.7403 33.3376 27.3798 33.8143 27.6681C33.8143 27.6681 40.5056 31.719 40.5097 31.7215C40.9907 32.0126 41.6383 31.8628 41.9341 31.3905C42.2298 30.918 42.0791 30.2842 41.5976 29.993Z" fill="#003472"/>
<path d="M30.8355 23.6554C30.1744 23.6553 29.6759 24.2728 29.827 24.9041C29.8871 25.1556 30.0633 25.384 30.2954 25.5282C30.4547 25.6272 30.6404 25.6866 30.8333 25.6866C31.1955 25.6866 31.5257 25.507 31.7151 25.2044C32.1186 24.5599 31.6114 23.6555 30.8355 23.6554Z" fill="#003472"/>
<path d="M20.1165 26.2181C19.8245 25.7618 19.1512 25.6143 18.6888 25.9009C18.6888 25.9009 12.045 30.0114 12.0338 30.0183C11.555 30.3144 11.409 30.949 11.7105 31.4183C11.8918 31.7006 12.2416 31.866 12.5878 31.8755C12.7826 31.8809 12.9763 31.8369 13.1383 31.7367C13.1383 31.7367 19.7887 27.6213 19.7933 27.6184C20.272 27.3222 20.4173 26.6882 20.1165 26.2181Z" fill="#003472"/>
<path d="M22.7414 23.5771C22.2607 23.5771 21.8395 23.9086 21.7332 24.3681C21.5884 24.994 22.0934 25.6084 22.7435 25.6084C23.2233 25.6084 23.6469 25.277 23.7528 24.8171C23.8978 24.1874 23.3974 23.5771 22.7414 23.5771Z" fill="#003472"/>
<path d="M52.746 46.2555C52.3709 45.8322 51.7171 45.7875 51.2856 46.1556C50.1818 47.0971 49.1604 48.0734 47.7121 48.4661C46.1021 48.9026 44.572 48.5581 43.1149 47.8433L48.5059 30.0472C48.6401 29.6045 48.4527 29.1286 48.0501 28.8893L43.0625 25.9241V17.2656C43.0625 16.7048 42.599 16.25 42.0273 16.25H39.957V13.2032C39.957 12.6423 39.4936 12.1875 38.9219 12.1875H35.6611V9.14067C35.6611 8.57984 35.1977 8.12504 34.626 8.12504H29.6055V1.01568C29.6055 0.454857 29.142 6.10352e-05 28.5703 6.10352e-05H24.4297C23.858 6.10352e-05 23.3945 0.454857 23.3945 1.01568V8.12504H18.374C17.8023 8.12504 17.3389 8.57984 17.3389 9.14067V12.1875H14.0782C13.5064 12.1875 13.043 12.6423 13.043 13.2032V16.25H10.9727C10.401 16.25 9.93753 16.7048 9.93753 17.2656V25.9241L4.94995 28.8891C4.54728 29.1285 4.36002 29.6044 4.49418 30.0471C4.49418 30.0471 9.87191 47.7991 9.87418 47.8069C9.78236 47.5038 8.12591 47.3042 7.83307 47.2671C4.81901 46.8844 2.52707 48.3658 0.355941 50.2179C-0.0755116 50.586 -0.121058 51.2274 0.253978 51.6507C0.612038 52.0547 1.27837 52.1225 1.71427 51.7507C3.95103 49.843 6.47277 48.3887 9.43228 49.8407C12.1096 51.154 14.8809 51.7172 17.6695 50.2775C19.9181 49.1162 22.088 48.1135 24.5978 49.2859L27.1781 50.4915C29.3857 51.5229 31.9061 51.4991 34.0929 50.4262C35.4404 49.7652 36.81 48.8854 38.3493 48.7817C39.8581 48.68 41.3161 49.2312 42.6418 49.8821C44.3932 50.7413 46.4435 50.9129 48.3242 50.3869C50.0565 49.9024 51.3172 48.8199 52.644 47.6881C53.0755 47.3202 53.1211 46.6788 52.746 46.2555ZM40.9922 18.2813V24.6934L30.2061 18.2813H40.9922ZM25.4648 2.03131H27.5352V8.12504H25.4648V2.03131ZM19.4092 10.1563H33.5908V12.1875H19.4092V10.1563ZM12.0078 18.2813H22.7939L12.0078 24.6934V18.2813ZM25.4648 47.4413C25.4651 47.2609 23.9892 46.9279 23.7962 46.8869C21.9946 46.5043 20.0605 46.7473 18.4272 47.5907C17.2422 48.2026 16.0989 48.9165 14.7435 49.0878C14.7411 49.0881 14.7386 49.0884 14.7361 49.0887C13.9442 49.1831 13.1337 49.1259 12.3672 48.9067L6.7063 30.2201L25.4648 19.0686C25.4648 19.0686 25.4648 47.4402 25.4648 47.4413ZM15.1133 16.25V14.2188H37.8867V16.25H15.1133ZM41.2015 47.0294C41.213 46.7152 38.299 46.718 38.1038 46.7382C36.3069 46.9247 34.7526 47.8317 33.1669 48.6096C31.2937 49.5285 29.3662 49.2644 27.5352 48.4085V19.0686L46.2937 30.2201L41.2015 47.0294Z" fill="#003472"/>
</g>
<defs>
<clipPath id="clip0">
<rect width="53" height="52" fill="white"/>
</clipPath>
</defs>
</svg>
