<svg width="43" height="43" viewBox="0 0 43 43" fill="none" xmlns="http://www.w3.org/2000/svg">
<path d="M29.8226 20.1129C28.1768 20.1129 26.7223 20.9375 25.8445 22.1935H22.8871V17.7431C22.8871 15.5605 21.416 13.6339 19.3096 13.0589L15.2581 11.9539V10.9136C16.5141 10.0351 17.3387 8.58063 17.3387 6.93548V4.85484C17.3387 2.17784 15.1609 0 12.4839 0C9.80687 0 7.62903 2.17784 7.62903 4.85484V6.93548C7.62903 8.58131 8.45364 10.0358 9.70968 10.9136V11.9539L5.65811 13.0589C3.55173 13.6339 2.08065 15.5605 2.08065 17.7431V22.1935H0V43H43V22.1935H33.8007C32.9229 20.9375 31.4684 20.1129 29.8226 20.1129ZM29.8226 21.5C31.7346 21.5 33.2903 23.0557 33.2903 24.9677V27.0484C33.2903 28.2787 32.6259 29.4287 31.5558 30.0488L31.2097 30.2493V33.1129L36.6622 34.7482C37.5495 35.0144 38.1452 35.8156 38.1452 36.7415V41.6129H21.5V36.7415C21.5 35.8156 22.0957 35.0144 22.9829 34.7482L28.4355 33.1129V30.2493L28.0894 30.0488C27.0193 29.4287 26.3548 28.2787 26.3548 27.0484V24.9677C26.3548 23.0557 27.9106 21.5 29.8226 21.5ZM18.9442 14.3972C20.4492 14.808 21.5 16.1832 21.5 17.7431V22.1935H18.7258V16.6452H17.3387V22.1935H13.1774V14.4724C13.9908 14.2567 14.5486 13.7003 14.8663 13.2848L18.9442 14.3972ZM9.01613 6.93548V4.85484C9.01613 2.94284 10.5719 1.3871 12.4839 1.3871C14.3959 1.3871 15.9516 2.94284 15.9516 4.85484V6.93548C15.9516 8.84748 14.3959 10.4032 12.4839 10.4032C10.5719 10.4032 9.01613 8.84748 9.01613 6.93548ZM12.4839 11.7903C12.9658 11.7903 13.4314 11.7175 13.871 11.5858V12.2925C13.6989 12.5587 13.2211 13.1774 12.4839 13.1774C11.7466 13.1774 11.2688 12.558 11.0968 12.2932V11.5865C11.5363 11.7175 12.002 11.7903 12.4839 11.7903ZM3.46774 17.7431C3.46774 16.1832 4.51856 14.808 6.02351 14.3972L10.1015 13.2848C10.4191 13.7003 10.9776 14.2567 11.7903 14.4724V22.1935H7.62903V16.6452H6.24194V22.1935H3.46774V17.7431ZM1.3871 23.5806H25.1723C25.0406 24.0202 24.9677 24.4858 24.9677 24.9677V27.0484C24.9677 28.6353 25.7558 30.125 27.0484 31.0278V32.0807L22.584 33.42C21.1062 33.8633 20.1129 35.1983 20.1129 36.7415V41.6129H1.3871V23.5806ZM41.6129 23.5806V41.6129H39.5323V36.7415C39.5323 35.1983 38.539 33.8633 37.0612 33.4193L32.5968 32.0807V31.0278C33.8894 30.125 34.6774 28.6346 34.6774 27.0484V24.9677C34.6774 24.4858 34.6046 24.0202 34.4729 23.5806H41.6129Z" fill="#003472"/>
<path d="M14.5645 16.6451H15.9515V18.0322H14.5645V16.6451Z" fill="#003472"/>
<path d="M14.5645 19.4194H15.9515V20.8065H14.5645V19.4194Z" fill="#003472"/>
<path d="M6.24194 24.9678V40.2258H18.7258V24.9678H6.24194ZM17.3387 38.8387H7.62904V26.3549H17.3387V38.8387Z" fill="#003472"/>
<path d="M9.01611 27.7419H15.9516V29.129H9.01611V27.7419Z" fill="#003472"/>
<path d="M9.01611 33.2903H15.9516V34.6774H9.01611V33.2903Z" fill="#003472"/>
<path d="M9.01611 36.0645H15.9516V37.4516H9.01611V36.0645Z" fill="#003472"/>
<path d="M9.01611 30.5161H11.7903V31.9032H9.01611V30.5161Z" fill="#003472"/>
<path d="M13.1775 30.5161H15.9517V31.9032H13.1775V30.5161Z" fill="#003472"/>
<path d="M29.1292 4.16132H30.5162V5.54841H29.1292V4.16132Z" fill="#003472"/>
<path d="M31.9033 4.16132H33.2904V5.54841H31.9033V4.16132Z" fill="#003472"/>
<path d="M34.6775 4.16132H36.0646V5.54841H34.6775V4.16132Z" fill="#003472"/>
<path d="M37.4517 4.16132H38.8388V5.54841H37.4517V4.16132Z" fill="#003472"/>
<path d="M29.5605 9.70291L28.8199 13.1629L34.862 9.70968H38.1452C40.8222 9.70968 43 7.53184 43 4.85484C43 2.17784 40.8222 0 38.1452 0H29.8226C27.1456 0 24.9678 2.17784 24.9678 4.85484C24.9678 7.44379 27.0054 9.56609 29.5605 9.70291ZM29.8226 1.3871H38.1452C40.0572 1.3871 41.6129 2.94284 41.6129 4.85484C41.6129 6.76684 40.0572 8.32258 38.1452 8.32258H34.4929L30.8253 10.4178L31.2751 8.32258H29.8226C27.9106 8.32258 26.3549 6.76684 26.3549 4.85484C26.3549 2.94284 27.9106 1.3871 29.8226 1.3871Z" fill="#003472"/>
</svg>
