<svg width="41" height="41" viewBox="0 0 41 41" fill="none" xmlns="http://www.w3.org/2000/svg">
<g clip-path="url(#clip0)">
<path d="M34.2776 0H11.9567C11.6253 0 11.3566 0.268683 11.3566 0.600096C11.3566 0.931509 11.6253 1.20019 11.9567 1.20019H30.3622C32.3489 1.20019 33.9652 2.81653 33.9652 4.80317V26.6421C33.9652 26.9735 34.2339 27.2422 34.5653 27.2422C34.8967 27.2422 35.1654 26.9735 35.1654 26.6421V4.80317C35.1654 3.36926 34.5331 2.08105 33.5335 1.20019H34.2776C36.2643 1.20019 37.8805 2.81653 37.8805 4.80317V36.1968C37.8805 38.1835 36.2643 39.7998 34.2776 39.7998H33.5335C34.533 38.9189 35.1654 37.6307 35.1654 36.1968V29.1995C35.1654 28.8681 34.8967 28.5994 34.5653 28.5994C34.2339 28.5994 33.9652 28.8681 33.9652 29.1995V36.1968C33.9652 38.1835 32.3489 39.7998 30.3622 39.7998H3.45648C3.27077 39.7998 3.11963 39.6487 3.11963 39.4629V1.53705C3.11963 1.35134 3.27077 1.20019 3.45648 1.20019H9.39927C9.73068 1.20019 9.99937 0.931509 9.99937 0.600096C9.99937 0.268683 9.73068 0 9.39927 0H3.45648C2.60898 0 1.91943 0.68955 1.91943 1.53705V39.463C1.91943 40.3105 2.60898 41.0001 3.45648 41.0001H34.2776C36.9261 41.0001 39.0807 38.8454 39.0807 36.1969V4.80317C39.0807 2.15474 36.9261 0 34.2776 0V0Z" fill="#003472"/>
<path d="M30.6258 17.6318C30.7905 16.8294 30.877 15.9988 30.877 15.1484C30.877 14.298 30.7905 13.4675 30.6258 12.6651C30.6232 12.6506 30.6202 12.6363 30.6164 12.6219C29.618 7.84421 25.8468 4.07304 21.0691 3.0744C21.0546 3.07064 21.04 3.06752 21.0253 3.0648C20.223 2.90021 19.3926 2.81372 18.5424 2.81372C17.6922 2.81372 16.8619 2.90021 16.0597 3.06472C16.0449 3.06744 16.0301 3.07056 16.0155 3.0744C11.2378 4.07312 7.46668 7.84445 6.46829 12.6223C6.46468 12.6363 6.46156 12.6506 6.459 12.6649C6.29434 13.4674 6.20776 14.298 6.20776 15.1485C6.20776 15.9989 6.29426 16.8294 6.45892 17.6319C6.46156 17.6463 6.46461 17.6607 6.46837 17.675C7.46701 22.4535 11.2391 26.2252 16.018 27.223C16.0302 27.2261 16.0426 27.2288 16.055 27.2311C16.8587 27.3963 17.6906 27.4831 18.5425 27.4831C19.3943 27.4831 20.2262 27.3963 21.0298 27.2311C21.0423 27.2288 21.0546 27.2261 21.0669 27.223C25.8457 26.2252 29.6179 22.4535 30.6165 17.675C30.6201 17.6607 30.6233 17.6463 30.6258 17.6318ZM7.40796 15.1484C7.40796 14.4537 7.47253 13.774 7.59479 13.1143C8.83082 12.2261 10.7516 11.5207 13.0173 11.0791C12.8486 12.3742 12.7593 13.7439 12.7593 15.1484C12.7593 16.553 12.8486 17.9226 13.0173 19.2177C10.7517 18.7762 8.8309 18.0707 7.59479 17.1827C7.47253 16.5229 7.40796 15.8431 7.40796 15.1484ZM13.9595 15.1484C13.9595 13.6711 14.0656 12.2236 14.262 10.8681C15.6176 10.6716 17.0651 10.5655 18.5424 10.5655C20.0197 10.5655 21.4672 10.6716 22.8227 10.8681C23.0192 12.2236 23.1253 13.6711 23.1253 15.1484C23.1253 16.6257 23.0192 18.0732 22.8227 19.4288C21.4672 19.6252 20.0197 19.7313 18.5424 19.7313C17.0652 19.7313 15.6176 19.6252 14.262 19.4288C14.0656 18.0732 13.9595 16.6257 13.9595 15.1484ZM24.0675 11.0791C26.3331 11.5206 28.2539 12.2261 29.49 13.1142C29.6123 13.774 29.6769 14.4537 29.6769 15.1484C29.6769 15.8431 29.6123 16.5229 29.49 17.1827C28.2539 18.0707 26.3331 18.7761 24.0675 19.2177C24.2362 17.9226 24.3255 16.553 24.3255 15.1484C24.3255 13.7439 24.2362 12.3743 24.0675 11.0791ZM29.0425 11.4441C27.6613 10.73 25.8832 10.1735 23.874 9.81693C23.5174 7.80764 22.9608 6.0296 22.2467 4.64834C25.4112 5.76804 27.9228 8.27972 29.0425 11.4441ZM20.5766 4.20082C21.4647 5.43686 22.1701 7.35773 22.6117 9.62329C21.3166 9.45463 19.9469 9.36533 18.5424 9.36533C17.1378 9.36533 15.7682 9.45463 14.4731 9.62329C14.9146 7.35773 15.6201 5.43694 16.5081 4.20082C17.1679 4.07848 17.8477 4.01399 18.5423 4.01399C19.237 4.01399 19.9168 4.07856 20.5766 4.20082ZM14.8381 4.64834C14.124 6.0296 13.5673 7.80764 13.2108 9.81693C11.2015 10.1735 9.4234 10.7301 8.04222 11.4442C9.16192 8.27972 11.6737 5.76804 14.8381 4.64834ZM8.0423 18.8527C9.42348 19.5668 11.2016 20.1234 13.2109 20.4799C13.5674 22.4892 14.1241 24.2673 14.8382 25.6485C11.6737 24.5289 9.162 22.0172 8.0423 18.8527ZM16.5082 26.096C15.6202 24.86 14.9147 22.9391 14.4732 20.6735C15.7683 20.8422 17.1379 20.9315 18.5425 20.9315C19.947 20.9315 21.3167 20.8422 22.6117 20.6735C22.1702 22.9391 21.4648 24.86 20.5767 26.096C19.9169 26.2184 19.2371 26.2829 18.5425 26.2829C17.8477 26.2829 17.1679 26.2184 16.5082 26.096ZM22.2467 25.6486C22.9608 24.2674 23.5173 22.4893 23.8739 20.48C25.8832 20.1235 27.6613 19.5668 29.0425 18.8528C27.9228 22.0172 25.4112 24.5289 22.2467 25.6486Z" fill="#003472"/>
<path d="M9.46233 32.3655H12.7086C13.04 32.3655 13.3087 32.0968 13.3087 31.7654C13.3087 31.434 13.04 31.1653 12.7086 31.1653H9.46233C8.76694 31.1653 8.20117 31.7311 8.20117 32.4264V35.3235C8.20117 36.0189 8.76694 36.5847 9.46233 36.5847H27.6225C28.3179 36.5847 28.8837 36.0189 28.8837 35.3235V32.4264C28.8837 31.7311 28.3179 31.1653 27.6225 31.1653H15.266C14.9346 31.1653 14.6659 31.434 14.6659 31.7654C14.6659 32.0968 14.9346 32.3655 15.266 32.3655H27.6225C27.6561 32.3655 27.6835 32.3928 27.6835 32.4264V35.3235C27.6835 35.3571 27.6561 35.3845 27.6225 35.3845H9.46233C9.42873 35.3845 9.40136 35.3571 9.40136 35.3235V32.4264C9.40136 32.3928 9.42873 32.3655 9.46233 32.3655Z" fill="#003472"/>
</g>
<defs>
<clipPath id="clip0">
<rect width="41" height="41" fill="white"/>
</clipPath>
</defs>
</svg>
