<svg width="41" height="41" viewBox="0 0 41 41" fill="none" xmlns="http://www.w3.org/2000/svg">
<path d="M22.2655 17.1562C21.7255 16.8654 21.0608 16.6992 20.3131 16.6992C19.7731 16.6992 19.2746 16.7823 18.8177 16.9485C18.3607 17.1146 17.9869 17.3639 17.6961 17.6962C17.4053 18.0285 17.1561 18.4439 16.9899 18.9008C16.8237 19.3993 16.7407 19.8978 16.7407 20.4794C16.7407 21.0194 16.8237 21.5594 16.9899 22.0164C17.1561 22.4733 17.3638 22.8887 17.6961 23.221C17.9869 23.5533 18.3607 23.8026 18.8177 24.0103C19.2746 24.1764 19.7731 24.3011 20.3546 24.3011C20.9362 24.3011 21.4347 24.218 21.8916 24.0518C22.3486 23.8857 22.7224 23.5949 23.0132 23.2626C23.304 22.9302 23.5532 22.5148 23.7194 22.0579C23.8855 21.6009 23.9686 21.1025 23.9686 20.5209C23.9686 19.7732 23.844 19.1085 23.5532 18.527C23.2209 17.9039 22.8055 17.4469 22.2655 17.1562ZM22.1409 21.9333C21.9332 22.3487 21.6839 22.6395 21.3931 22.8056C21.0608 23.0133 20.7285 23.0964 20.3546 23.0964C20.0639 23.0964 19.7731 23.0549 19.5238 22.9302C19.2746 22.8056 19.0669 22.6395 18.8592 22.4318C18.6515 22.2241 18.5269 21.9333 18.4023 21.6009C18.3192 21.2686 18.2361 20.8948 18.2361 20.4794C18.2361 20.064 18.2776 19.6901 18.4023 19.3578C18.5269 19.0255 18.6515 18.7347 18.8177 18.527C18.9838 18.3193 19.2331 18.1531 19.4823 18.0285C19.7315 17.9039 20.0223 17.8623 20.3131 17.8623C20.7285 17.8623 21.1024 17.9454 21.4347 18.1531C21.767 18.3608 22.0162 18.6516 22.1824 19.0255C22.3486 19.3993 22.4316 19.8978 22.4316 20.4378C22.4316 21.0194 22.307 21.5179 22.1409 21.9333Z" fill="white"/>
<path d="M35.8906 8.18338L35.8491 8.14184V8.1003L27.9565 0.2077L27.9149 0.16616C27.9149 0.16616 27.8734 0.16616 27.8734 0.12462C27.8734 0.12462 27.8318 0.12462 27.8318 0.08308C27.7072 0 27.5826 0 27.4164 0H7.85109C7.06183 0 6.35565 0.33232 5.85717 0.8308C5.35869 1.32928 5.02637 2.077 5.02637 2.82472V38.1753C5.02637 38.923 5.31715 39.6292 5.81563 40.1277L5.85717 40.1692C6.35565 40.6677 7.10337 41 7.85109 41H33.149C33.9382 41 34.6444 40.6677 35.1429 40.1692C35.6414 39.6707 35.9737 38.923 35.9737 38.1753V8.59878C35.9737 8.43262 35.9321 8.308 35.8906 8.18338ZM28.2057 2.99088L32.8997 7.6849H29.4519C29.1196 7.6849 28.7873 7.56028 28.5796 7.31104C28.3719 7.10334 28.2057 6.77102 28.2057 6.4387V2.99088ZM34.1875 38.1753C34.1875 38.4661 34.0628 38.7153 33.8551 38.923C33.6474 39.1307 33.3982 39.2553 33.1074 39.2553H7.85109C7.56031 39.2553 7.31107 39.1307 7.10337 38.923L7.06183 38.8815C6.89567 38.6738 6.77105 38.4245 6.77105 38.1753V2.78318C6.77105 2.4924 6.89567 2.24316 7.10337 2.03546C7.31107 1.82776 7.56031 1.70314 7.85109 1.70314H26.461V6.39716C26.461 7.22796 26.7933 7.97568 27.3749 8.55724C27.9149 9.09726 28.7042 9.42959 29.535 9.42959H34.1875V38.1753Z" fill="white"/>
<path d="M27.001 16.9485C26.5856 17.1146 26.2118 17.3639 25.8795 17.6962C25.5471 18.0285 25.2979 18.4439 25.1317 18.9008C24.9656 19.3578 24.8825 19.8978 24.8825 20.4794C24.8825 20.8532 24.924 21.1855 24.9656 21.5179C25.0487 21.8502 25.1317 22.141 25.2564 22.4318C25.381 22.7225 25.5471 22.9718 25.7548 23.221C25.9625 23.4703 26.2118 23.678 26.461 23.8441C26.7103 24.0103 27.001 24.0934 27.3334 24.1764C27.6657 24.2595 27.998 24.3011 28.3719 24.3011C28.8704 24.3011 29.3273 24.218 29.7011 24.0518C30.075 23.8857 30.4073 23.678 30.6566 23.4287C30.9058 23.1795 31.072 22.8887 31.1966 22.6395C31.3212 22.3487 31.3628 22.0994 31.3628 21.8917C31.3628 21.7256 31.2797 21.5594 31.1551 21.4348C31.0304 21.3102 30.8643 21.2686 30.6981 21.2686C30.4904 21.2686 30.3243 21.3102 30.2412 21.4348C30.1581 21.5594 30.075 21.7256 29.9919 21.8917C29.8258 22.3071 29.6181 22.5979 29.3273 22.8056C29.0365 23.0133 28.6626 23.1379 28.2472 23.1379C27.8734 23.1379 27.4995 23.0549 27.2087 22.8472C26.918 22.6395 26.6687 22.3902 26.5441 22.0164C26.3779 21.6425 26.2949 21.1855 26.2949 20.604C26.2949 19.7732 26.461 19.1085 26.8349 18.6516C27.2087 18.1947 27.6657 17.9454 28.2888 17.9454C28.6626 17.9454 28.995 18.0285 29.2442 18.1947C29.4935 18.3608 29.7427 18.6516 29.9088 19.0255C30.0335 19.2332 30.1166 19.3993 30.2412 19.4824C30.3243 19.5655 30.4904 19.607 30.6566 19.607C30.8227 19.607 30.9889 19.5239 31.072 19.3993C31.1966 19.2747 31.2381 19.1085 31.2381 18.9424C31.2381 18.6516 31.1135 18.3193 30.8643 17.9454C30.615 17.6131 30.2827 17.3223 29.7842 17.0731C29.3273 16.8238 28.7873 16.6992 28.2057 16.6992C27.9149 16.6992 27.458 16.7823 27.001 16.9485Z" fill="white"/>
<path d="M14.6636 17.4884C14.3728 17.2391 14.0405 17.073 13.6667 16.9484C13.2928 16.8653 12.8774 16.8237 12.3789 16.8237H10.4681C10.1358 16.8237 9.92806 16.9068 9.7619 17.0314C9.63728 17.1561 9.5542 17.4053 9.5542 17.7376V23.0963C9.5542 23.3455 9.5542 23.5117 9.63728 23.6778C9.67882 23.844 9.7619 23.9271 9.88652 24.0102C10.0111 24.0932 10.2188 24.1348 10.5096 24.1348H12.4205C12.7528 24.1348 13.0436 24.0932 13.3343 24.0517C13.5836 24.0102 13.8328 23.9271 14.0821 23.844C14.3313 23.7194 14.539 23.5948 14.7052 23.4286C14.9544 23.1794 15.1621 22.9301 15.3283 22.6393C15.4944 22.3486 15.619 22.0162 15.7021 21.6424C15.7852 21.2685 15.8267 20.8947 15.8267 20.4377C15.7852 19.15 15.4113 18.153 14.6636 17.4884ZM13.542 22.5978C13.4174 22.6809 13.2928 22.764 13.1682 22.8055C13.002 22.847 12.8774 22.8886 12.7528 22.8886C12.6282 22.8886 12.4205 22.8886 12.1712 22.8886H11.0496V17.9869H12.0466C12.5035 17.9869 12.8774 18.0284 13.2097 18.153C13.542 18.2361 13.7913 18.4853 13.999 18.8592C14.2067 19.2331 14.3313 19.7731 14.3313 20.4793C14.2898 21.4762 14.0405 22.1824 13.542 22.5978Z" fill="white"/>
</svg>
