<svg width="42" height="42" viewBox="0 0 42 42" fill="none" xmlns="http://www.w3.org/2000/svg">
<path d="M38.133 6.58691H3.86702C1.73484 6.58691 0 8.32176 0 10.4539V31.5456C0 33.6778 1.73484 35.4126 3.86702 35.4126H38.133C40.2652 35.4126 42 33.6778 42 31.5456V10.4539C42 8.32159 40.2652 6.58691 38.133 6.58691ZM39.5831 31.5456C39.5831 32.3451 38.9327 32.9957 38.133 32.9957H3.86702C3.06735 32.9957 2.41689 32.3451 2.41689 31.5456V10.4539C2.41689 9.65443 3.06735 9.0038 3.86702 9.0038H38.133C38.9327 9.0038 39.5831 9.65443 39.5831 10.4539V31.5456Z" fill="white"/>
<path d="M34.8096 13.4863H23.7027C23.1687 13.4863 22.736 13.9193 22.736 14.4531C22.736 14.9869 23.1687 15.4198 23.7027 15.4198H34.8096C35.3436 15.4198 35.7763 14.9869 35.7763 14.4531C35.7763 13.9193 35.3436 13.4863 34.8096 13.4863Z" fill="white"/>
<path d="M34.8096 26.5791H23.7027C23.1687 26.5791 22.736 27.0119 22.736 27.5459C22.736 28.0797 23.1687 28.5126 23.7027 28.5126H34.8096C35.3436 28.5126 35.7763 28.0797 35.7763 27.5459C35.7763 27.0119 35.3436 26.5791 34.8096 26.5791Z" fill="white"/>
<path d="M34.8096 19.0791H28.0877C27.5539 19.0791 27.121 19.512 27.121 20.0459C27.121 20.5797 27.5539 21.0126 28.0877 21.0126H34.8096C35.3435 21.0126 35.7763 20.5797 35.7763 20.0459C35.7763 19.512 35.3435 19.0791 34.8096 19.0791Z" fill="white"/>
<path d="M34.8096 22.8291H28.0877C27.5539 22.8291 27.121 23.262 27.121 23.7959C27.121 24.3298 27.5539 24.7626 28.0877 24.7626H34.8096C35.3435 24.7626 35.7763 24.3298 35.7763 23.7959C35.7763 23.262 35.3435 22.8291 34.8096 22.8291Z" fill="white"/>
<path d="M13.722 21.4511C16.4617 21.4511 18.6908 19.2212 18.6908 16.4805C18.6908 13.7396 16.4617 11.5098 13.722 11.5098C10.9814 11.5098 8.75171 13.7396 8.75171 16.4805C8.75171 19.2212 10.9814 21.4511 13.722 21.4511ZM13.722 13.9268C15.1291 13.9268 16.2739 15.0724 16.2739 16.4807C16.2739 17.8887 15.1292 19.0343 13.722 19.0343C12.314 19.0343 11.1686 17.8887 11.1686 16.4807C11.1686 15.0724 12.314 13.9268 13.722 13.9268Z" fill="white"/>
<path d="M15.6448 22.3447H11.829C9.15565 22.3447 6.98077 24.5194 6.98077 27.1927V29.281C6.98077 29.9484 7.52167 30.4895 8.18922 30.4895C8.85676 30.4895 9.39766 29.9484 9.39766 29.281V27.1927C9.39766 25.8523 10.4885 24.7616 11.829 24.7616H15.6448C16.9854 24.7616 18.0762 25.8521 18.0762 27.1927V29.281C18.0762 29.9484 18.6171 30.4895 19.2847 30.4895C19.9522 30.4895 20.4931 29.9484 20.4931 29.281V27.1927C20.4931 24.5194 18.3181 22.3447 15.6448 22.3447Z" fill="white"/>
</svg>
