<svg width="48" height="46" viewBox="0 0 48 46" fill="none" xmlns="http://www.w3.org/2000/svg">
<g clip-path="url(#clip0)">
<path d="M4.80804 36.1886C3.88868 35.226 3.32499 33.9378 3.32499 32.5234C3.32499 29.551 5.81099 27.1328 8.86667 27.1328C11.9223 27.1328 14.4083 29.551 14.4083 32.5234C14.4083 33.9378 13.8447 35.226 12.9253 36.1886C14.2822 36.8802 15.4315 37.9067 16.2556 39.1552C17.0796 37.9068 18.229 36.8802 19.5858 36.1886C18.6665 35.226 18.1028 33.9378 18.1028 32.5234C18.1028 29.551 20.5888 27.1328 23.6445 27.1328C26.7002 27.1328 29.1861 29.551 29.1861 32.5234C29.1861 33.9378 28.6225 35.226 27.7031 36.1886C29.06 36.8802 30.2093 37.9067 31.0334 39.1552C31.8574 37.9068 33.0068 36.8802 34.3636 36.1886C33.4443 35.226 32.8806 33.9378 32.8806 32.5234C32.8806 29.551 35.3666 27.1328 38.4223 27.1328C41.478 27.1328 43.964 29.551 43.964 32.5234C43.964 33.9378 43.4003 35.226 42.4809 36.1886C45.2813 37.616 47.1966 40.4712 47.1966 43.7539V44.6523C47.1966 45.3966 46.5763 46 45.8112 46H1.47777C0.712648 46 0.0923496 45.3966 0.0923496 44.6523V43.7539C0.0923496 40.4712 2.00765 37.616 4.80804 36.1886ZM38.4223 29.8281C36.8944 29.8281 35.6514 31.0372 35.6514 32.5234C35.6514 34.0096 36.8944 35.2188 38.4223 35.2188C39.9501 35.2188 41.1931 34.0096 41.1931 32.5234C41.1931 31.0372 39.9501 29.8281 38.4223 29.8281ZM44.4082 43.3047C44.1716 40.2937 41.5772 37.9141 38.4223 37.9141C35.2673 37.9141 32.673 40.2937 32.4363 43.3047H44.4082ZM23.6445 29.8281C22.1166 29.8281 20.8736 31.0372 20.8736 32.5234C20.8736 34.0096 22.1166 35.2188 23.6445 35.2188C25.1723 35.2188 26.4153 34.0096 26.4153 32.5234C26.4153 31.0372 25.1723 29.8281 23.6445 29.8281ZM29.6304 43.3047C29.3938 40.2937 26.7994 37.9141 23.6445 37.9141C20.4895 37.9141 17.8952 40.2937 17.6585 43.3047H29.6304ZM8.86667 29.8281C7.33883 29.8281 6.09583 31.0372 6.09583 32.5234C6.09583 34.0096 7.33883 35.2188 8.86667 35.2188C10.3945 35.2188 11.6375 34.0096 11.6375 32.5234C11.6375 31.0372 10.3945 29.8281 8.86667 29.8281ZM14.8526 43.3047C14.616 40.2937 12.0216 37.9141 8.86667 37.9141C5.7117 37.9141 3.11737 40.2937 2.88074 43.3047H14.8526Z" fill="white"/>
<path d="M31.0334 24.2578H16.2555C13.4545 24.2578 11.1757 22.0411 11.1757 19.3164V4.94141C11.1757 2.21671 13.4545 0 16.2555 0H31.0334C33.8344 0 36.1132 2.21671 36.1132 4.94141V19.3164C36.1132 22.0411 33.8344 24.2578 31.0334 24.2578ZM33.3424 4.94141C33.3424 3.70291 32.3066 2.69531 31.0334 2.69531H16.2555C14.9823 2.69531 13.9465 3.70291 13.9465 4.94141V19.3164C13.9465 20.5549 14.9823 21.5625 16.2555 21.5625H31.0334C32.3066 21.5625 33.3424 20.5549 33.3424 19.3164V4.94141Z" fill="white"/>
<path d="M26.9099 16.8936C26.3689 17.4199 25.4916 17.4199 24.9506 16.8936L17.1135 9.27007C16.5724 8.74376 16.5724 7.89052 17.1135 7.36421C17.6545 6.83791 18.5317 6.83791 19.0728 7.36421L25.9302 14.0348L28.2161 11.8113C28.757 11.285 29.6343 11.285 30.1753 11.8113C30.7164 12.3376 30.7164 13.1909 30.1753 13.7172L26.9099 16.8936Z" fill="white"/>
</g>
<defs>
<clipPath id="clip0">
<rect width="47.289" height="46" fill="white" transform="matrix(-1 0 0 1 47.2889 0)"/>
</clipPath>
</defs>
</svg>
