<svg width="52" height="51" viewBox="0 0 52 51" fill="none" xmlns="http://www.w3.org/2000/svg">
<g clip-path="url(#clip0)">
<path d="M31.3412 20.0552C30.7235 19.5158 29.9188 19.2181 29.0802 19.219C27.941 19.334 26.9047 19.9287 26.2483 20.8442L26.1696 20.9319L23.0027 24.7077L15.931 23.7361C15.5943 23.6911 15.2548 23.8171 15.0321 24.0696L13.458 25.8616C13.1029 26.2686 13.1517 26.872 13.5672 27.2095C13.6492 27.2761 13.742 27.3291 13.8421 27.3664L19.1276 29.3206L16.2656 32.7268L13.9288 32.5333C13.607 32.5071 13.2899 32.6348 13.0794 32.8754L11.7021 34.4434C11.3425 34.8467 11.3847 35.4508 11.7962 35.7926C11.8373 35.8266 11.8812 35.8573 11.9275 35.8843L15.303 37.8569L15.7205 38.2028L18.2795 41.1103C18.4668 41.3228 18.7425 41.4434 19.0334 41.4401C19.3177 41.4341 19.5873 41.3103 19.7739 41.1001L21.1512 39.5321C21.3607 39.2948 21.4402 38.9758 21.3644 38.676L20.7985 36.4761L23.8987 33.1897L26.7445 37.9197C27.0192 38.3727 27.6249 38.519 28.0974 38.2464C28.192 38.1917 28.2769 38.1225 28.3485 38.0414L29.8532 36.2507C30.0937 35.9859 30.1677 35.6175 30.0461 35.2898L27.9627 28.7358L31.3185 25.1094L31.3972 25.0217C32.1687 24.2877 32.6091 23.2897 32.6197 22.2507C32.5251 21.3758 32.0629 20.5821 31.3412 20.0552ZM29.8963 23.8164L26.1076 27.9108C25.8602 28.1718 25.7785 28.5408 25.8949 28.8721L28.0377 35.4345L27.7328 35.785L24.897 31.0548C24.6252 30.6001 24.0205 30.4503 23.5463 30.7201C23.4553 30.7719 23.373 30.8373 23.3028 30.9138L18.963 35.6124C18.7434 35.8524 18.6599 36.1804 18.74 36.4877L19.3158 38.6971L19.0305 39.0185L17.208 36.8911L17.0986 36.7879L16.5618 36.339L16.4326 36.2458L14.0101 34.8097L14.2954 34.4883L16.652 34.6814C16.9806 34.7062 17.3028 34.5705 17.5111 34.3199L21.563 29.4547C21.9108 29.0418 21.851 28.4394 21.4294 28.1093C21.3484 28.0458 21.2572 27.9955 21.1592 27.9599L15.9034 26.0146L16.2084 25.6641L23.29 26.6356C23.6368 26.6828 23.9863 26.5486 24.2086 26.2825L27.7197 22.0979L27.7986 22.039C28.0937 21.6982 28.5954 21.1236 29.1397 21.113C29.5143 21.1304 29.8672 21.2801 30.1317 21.5338C30.4444 21.7412 30.6593 22.0598 30.7302 22.4218C30.6736 22.9398 30.1915 23.4852 29.8963 23.8164Z" fill="white"/>
<path d="M49.8294 18.2379L49.8196 18.2477L30.0376 1.89485C29.132 1.18852 27.8027 1.29869 27.0104 2.14563L21.6484 8.17555L1.64612 30.6205C0.867508 31.4952 0.958558 32.8038 1.84964 33.5455L21.6416 49.9172C22.5367 50.6548 23.8913 50.5425 24.6688 49.6665L50.0329 21.1628C50.8115 20.2882 50.7204 18.9795 49.8294 18.2379ZM48.5715 19.928L43.8589 25.2369L42.2784 23.9566C41.851 23.6335 41.2284 23.7105 40.8877 24.1289C40.5678 24.5217 40.6078 25.0812 40.9797 25.4178L42.5205 26.6893L23.1679 48.4516C23.1245 48.5132 23.0383 48.53 22.9752 48.489C22.9616 48.4802 22.9497 48.4689 22.9403 48.456L3.10881 32.0946C3.05367 32.0319 3.05318 31.9393 3.10764 31.8745L22.4899 10.1021L23.7824 11.2157C24.1785 11.5742 24.805 11.5497 25.1815 11.161C25.5581 10.7725 25.5423 10.1668 25.1461 9.80844C25.1252 9.78958 25.1036 9.77158 25.081 9.75456L23.7687 8.64127L28.4913 3.33219C28.52 3.29657 28.5633 3.27478 28.6097 3.27244C28.6448 3.25931 28.6834 3.25855 28.7186 3.2703L48.5703 19.7175C48.6202 19.7785 48.6207 19.865 48.5715 19.928Z" fill="white"/>
<path d="M29.0327 12.9768C29.0118 12.958 28.9902 12.94 28.9676 12.923L26.89 11.2025C26.4939 10.8441 25.8675 10.8685 25.4909 11.2572C25.1144 11.6459 25.1301 12.2515 25.5263 12.6098C25.5472 12.6287 25.5688 12.6467 25.5914 12.6637L27.669 14.3841C28.0651 14.7426 28.6916 14.7181 29.0681 14.3294C29.4446 13.9407 29.4289 13.3353 29.0327 12.9768Z" fill="white"/>
<path d="M32.8049 16.1213L32.8148 16.1211L30.7273 14.4009C30.2999 14.0777 29.6773 14.1548 29.3366 14.5731C29.0167 14.966 29.0567 15.5255 29.4286 15.8621L31.5062 17.5825C31.9337 17.9056 32.5563 17.8286 32.897 17.4102C33.2167 17.0174 33.1767 16.4577 32.8049 16.1213Z" fill="white"/>
<path d="M36.6916 19.309L34.614 17.5886C34.1995 17.2399 33.5661 17.2866 33.1993 17.6929C32.8325 18.0992 32.8711 18.7113 33.2857 19.0599L35.3633 20.7803C35.7779 21.129 36.4113 21.0824 36.778 20.676C37.1448 20.2697 37.1062 19.6577 36.6916 19.309Z" fill="white"/>
<path d="M40.574 22.5519C40.5532 22.5331 40.5315 22.5151 40.5089 22.498L38.4313 20.7776C38.0353 20.4191 37.4088 20.4436 37.0323 20.8323C36.6558 21.221 36.6715 21.8266 37.0676 22.1849C37.0885 22.2038 37.1101 22.2218 37.1327 22.2388L39.2104 23.9592C39.6064 24.3177 40.2329 24.2932 40.6094 23.9045C40.986 23.5159 40.9702 22.9104 40.574 22.5519Z" fill="white"/>
</g>
<defs>
<clipPath id="clip0">
<rect width="50.5315" height="48.8602" fill="white" transform="matrix(0.999808 -0.0196008 0.00529114 0.999986 0.449463 1.98267)"/>
</clipPath>
</defs>
</svg>
