<svg width="48" height="46" viewBox="0 0 48 46" fill="none" xmlns="http://www.w3.org/2000/svg">
<g clip-path="url(#clip0)">
<path d="M3.8136 4.45161H26.6954V9.64516C26.6954 10.0556 27.0361 10.3871 27.4581 10.3871H32.7972V16.3226H34.3226V9.64516C34.3226 9.43975 34.2366 9.25427 34.0984 9.11987L27.9988 3.18655C27.8599 3.05143 27.6692 2.96774 27.4581 2.96774H6.8645V1.48387H35.8481V17.8065H37.3735V0.741935C37.3735 0.33148 37.0327 0 36.6108 0H6.10177C5.67982 0 5.33905 0.33148 5.33905 0.741935V2.96774H3.05087C2.62892 2.96774 2.28815 3.29922 2.28815 3.70968V45.2581C2.28815 45.6685 2.62892 46 3.05087 46H28.9835V44.5161H3.8136V4.45161ZM28.2208 5.50076L31.7186 8.90323H28.2208V5.50076Z" fill="white"/>
<path d="M44.2381 22.258H43.0895C39.6837 22.258 36.4805 20.7988 34.3007 18.2546L34.1465 18.0741C33.8575 17.7351 33.2631 17.7351 32.9741 18.0741L32.8199 18.2538C30.6393 20.7988 27.4361 22.258 24.0303 22.258H22.8817C22.4598 22.258 22.119 22.5895 22.119 23V35.0162C22.119 37.9379 23.7391 40.6535 26.3468 42.1026L33.1815 45.9022C33.2985 45.9674 33.4295 46 33.5599 46C33.6902 46 33.8213 45.9674 33.9383 45.9022L40.773 42.1026C43.3807 40.6535 45.0008 37.9379 45.0008 35.0162V23C45.0008 22.5895 44.66 22.258 44.2381 22.258V22.258ZM43.4753 35.0162C43.4753 37.4069 42.1506 39.6283 40.0162 40.8137L33.5599 44.4042L27.1035 40.8148C24.9692 39.6283 23.6445 37.4069 23.6445 35.0162V23.7419H24.0303C27.67 23.7419 31.1071 22.2707 33.5599 19.6826C36.0119 22.2707 39.4498 23.7419 43.0895 23.7419H43.4753V35.0162Z" fill="white"/>
<path d="M33.5599 24.4839C28.934 24.4839 25.1699 28.1454 25.1699 32.6452C25.1699 37.145 28.934 40.8065 33.5599 40.8065C38.1858 40.8065 41.9499 37.145 41.9499 32.6452C41.9499 28.1454 38.1858 24.4839 33.5599 24.4839ZM33.5599 39.3226C29.7746 39.3226 26.6954 36.3273 26.6954 32.6452C26.6954 28.963 29.7746 25.9678 33.5599 25.9678C37.3452 25.9678 40.4244 28.963 40.4244 32.6452C40.4244 36.3273 37.3452 39.3226 33.5599 39.3226Z" fill="white"/>
<path d="M33.1961 34.9518L31.811 33.6045L30.7325 34.6537L33.0207 36.8795C33.1648 37.0204 33.3599 37.0968 33.5599 37.0968C33.6217 37.0968 33.6843 37.0896 33.7461 37.0747C34.0068 37.0106 34.2128 36.8179 34.2906 36.5679L36.5788 29.1486L35.1174 28.7225L33.1961 34.9518Z" fill="white"/>
<path d="M5.33905 11.871H25.1699V13.3548H5.33905V11.871Z" fill="white"/>
<path d="M5.33905 14.8387H25.1699V16.3226H5.33905V14.8387Z" fill="white"/>
<path d="M5.33905 17.8065H25.1699V19.2904H5.33905V17.8065Z" fill="white"/>
<path d="M5.33905 20.7742H20.5936V22.258H5.33905V20.7742Z" fill="white"/>
<path d="M5.33905 23.7419H20.5936V25.2258H5.33905V23.7419Z" fill="white"/>
<path d="M5.33905 26.7097H20.5936V28.1936H5.33905V26.7097Z" fill="white"/>
<path d="M5.33905 35.6129H20.5936V37.0968H5.33905V35.6129Z" fill="white"/>
<path d="M5.33905 38.5807H20.5936V40.0646H5.33905V38.5807Z" fill="white"/>
<path d="M5.33905 41.5483H20.5936V43.0322H5.33905V41.5483Z" fill="white"/>
<path d="M6.10181 5.93542H7.62726V7.41929H6.10181V5.93542Z" fill="white"/>
<path d="M9.15271 5.93542H10.6782V7.41929H9.15271V5.93542Z" fill="white"/>
<path d="M12.2036 5.93542H13.7291V7.41929H12.2036V5.93542Z" fill="white"/>
<path d="M15.2545 5.93542H25.1699V7.41929H15.2545V5.93542Z" fill="white"/>
</g>
<defs>
<clipPath id="clip0">
<rect width="47.289" height="46" fill="white"/>
</clipPath>
</defs>
</svg>
