<?xml version="1.0" standalone="no"?>
<!DOCTYPE svg PUBLIC "-//W3C//DTD SVG 20010904//EN"
 "http://www.w3.org/TR/2001/REC-SVG-20010904/DTD/svg10.dtd">
<svg version="1.0" xmlns="http://www.w3.org/2000/svg"
 width="1024.000000pt" height="1024.000000pt" viewBox="0 0 1024.000000 1024.000000"
 preserveAspectRatio="xMidYMid meet">
<metadata>
Created by potrace 1.11, written by Peter Selinger 2001-2013
</metadata>
<g transform="translate(0.000000,1024.000000) scale(0.100000,-0.100000)"
fill="#000000" stroke="none">
<path d="M4982 9439 c-264 -44 -511 -229 -632 -474 -63 -126 -83 -216 -83
-375 -1 -166 14 -233 88 -386 45 -93 68 -126 134 -196 44 -47 98 -97 120 -113
l41 -28 0 -288 0 -289 -205 0 c-200 0 -206 1 -244 24 -188 119 -451 39 -556
-170 -28 -55 -30 -67 -30 -169 0 -99 3 -116 27 -168 35 -73 116 -155 193 -193
55 -27 69 -29 166 -29 103 0 108 1 180 38 l74 37 195 -2 195 -3 3 -2093 2
-2093 -52 6 c-310 36 -514 74 -721 135 -493 144 -878 389 -1176 749 -34 41
-59 76 -57 78 2 2 99 -3 216 -12 293 -21 333 -20 382 7 42 24 81 81 93 135 10
48 -12 111 -53 153 -22 23 -299 195 -692 431 l-655 394 -61 0 c-77 0 -135 -35
-164 -98 -19 -41 -300 -1501 -300 -1556 1 -35 32 -101 61 -128 32 -29 91 -53
131 -53 78 1 107 26 275 244 87 113 161 205 165 206 3 0 41 -53 84 -118 312
-475 738 -924 1169 -1231 381 -272 849 -486 1225 -561 l65 -13 215 -213 c220
-218 255 -244 325 -244 70 0 105 26 325 245 201 199 218 214 260 220 71 11
304 80 420 123 749 280 1446 859 1967 1635 58 86 109 157 112 157 3 -1 74 -89
156 -197 83 -108 166 -206 185 -219 70 -46 157 -41 222 14 35 29 67 94 68 133
0 57 -280 1515 -300 1556 -29 63 -87 98 -164 98 l-61 0 -655 -394 c-393 -236
-670 -408 -692 -431 -83 -86 -67 -217 35 -283 50 -33 82 -34 387 -12 117 9
214 14 216 12 8 -8 -156 -196 -242 -276 -399 -377 -920 -594 -1629 -676 -71
-8 -131 -15 -132 -15 -2 0 -2 942 -1 2093 l3 2092 195 3 195 2 74 -37 c72 -37
77 -38 180 -38 97 0 111 2 166 29 77 38 153 114 191 191 27 55 29 69 29 170 0
105 -1 113 -33 174 -43 81 -110 146 -192 185 -58 28 -75 31 -160 31 -91 0
-100 -2 -172 -37 l-76 -38 -201 0 -201 0 0 289 0 289 33 21 c53 33 172 161
219 236 83 131 124 258 134 415 27 428 -285 820 -711 895 -95 16 -209 18 -293
4z m266 -662 c65 -42 96 -97 100 -176 3 -54 0 -76 -18 -114 -54 -116 -192
-160 -311 -99 -77 39 -112 92 -117 180 -6 104 34 178 121 221 62 32 168 26
225 -12z"/>
</g>
</svg>
