<svg width="40" height="41" viewBox="0 0 40 41" fill="none" xmlns="http://www.w3.org/2000/svg">
<g clip-path="url(#clip0)">
<path d="M5.83333 36.875H0.833333C0.373333 36.875 0 36.5089 0 36.0577V21.3452C0 20.894 0.373333 20.5278 0.833333 20.5278C6.50167 20.5278 9.49667 22.4012 9.62167 22.4813C9.92 22.6726 10.0617 23.029 9.97333 23.3673L6.64 36.2587C6.54833 36.6216 6.215 36.875 5.83333 36.875ZM1.66667 35.2403H5.185L8.19833 23.5848C7.26167 23.1434 5.05167 22.2999 1.66667 22.1773V35.2403Z" fill="#003472"/>
<path d="M21.6667 40.1442C17.7334 40.1442 10.1284 36.9009 5.94502 34.9654C5.52836 34.7742 5.35002 34.2854 5.54669 33.8783C5.74169 33.468 6.24002 33.2948 6.65502 33.4876C9.92169 34.9981 17.9234 38.5095 21.6667 38.5095C25.7217 38.5095 35.275 33.8391 38.0234 32.4512C37.59 31.8954 36.695 31.1533 35 31.1533C33.4617 31.1533 31.5117 31.7565 29.625 32.3417C27.62 32.9613 25.545 33.6053 23.75 33.6053C20.31 33.6053 15.74 31.9902 15.5484 31.9216C15.115 31.7679 14.8917 31.2988 15.05 30.8737C15.2067 30.4487 15.6867 30.2313 16.1184 30.385C16.1617 30.4013 20.605 31.9706 23.75 31.9706C25.2884 31.9706 27.2384 31.3674 29.125 30.7822C31.13 30.1626 33.205 29.5186 35 29.5186C38.89 29.5186 39.915 32.4071 39.9584 32.5297C40.0867 32.9073 39.9184 33.3209 39.56 33.5105C39.0417 33.7786 26.8167 40.1442 21.6667 40.1442Z" fill="#003472"/>
<path d="M27.5001 32.9353C27.0401 32.9353 26.6668 32.5692 26.6668 32.118V31.3006C26.6668 30.1596 25.8818 29.182 24.7601 28.927L8.67179 25.1165C8.22346 25.0102 7.94846 24.5688 8.05679 24.1291C8.16513 23.6894 8.6168 23.4294 9.06346 23.5259L25.1451 27.3348C27.0201 27.7647 28.3335 29.3962 28.3335 31.3006V32.118C28.3335 32.5692 27.9601 32.9353 27.5001 32.9353Z" fill="#003472"/>
<path d="M27.4999 13.9887C27.2799 13.9887 27.0666 13.9037 26.9099 13.75L24.4099 11.2979C24.0849 10.9792 24.0849 10.4609 24.4099 10.1422C24.7349 9.8234 25.2632 9.8234 25.5882 10.1422L27.4432 11.9616L31.0249 7.74404C31.3216 7.39585 31.8449 7.35334 32.1982 7.63942C32.5516 7.92876 32.5982 8.4437 32.3032 8.7919L28.1366 13.6961C27.9899 13.871 27.7716 13.9772 27.5366 13.9887C27.5249 13.9887 27.5132 13.9887 27.4999 13.9887Z" fill="#003472"/>
<path d="M32.2183 18.8931H22.4117C21.0817 18.8931 20 17.8256 20 16.5113V4.92768C20 3.61337 21.0817 2.5459 22.4117 2.5459H34.2533C35.585 2.5459 36.6667 3.61337 36.6667 4.92768V14.4973C36.6667 15.1316 36.4183 15.7283 35.9633 16.1778L33.9267 18.1934C33.4717 18.6446 32.865 18.8931 32.2183 18.8931ZM22.4117 4.18062C22 4.18062 21.6667 4.51574 21.6667 4.92768V16.5129C21.6667 16.9233 22 17.2584 22.4117 17.2584H32.2183C32.415 17.2584 32.6017 17.1815 32.7417 17.0426L34.7783 15.027C34.9217 14.8864 35 14.6968 35 14.4973V4.92768C35 4.51574 34.6667 4.18062 34.255 4.18062H22.4117Z" fill="#003472"/>
</g>
<defs>
<clipPath id="clip0">
<rect width="40" height="39.2332" fill="white" transform="translate(0 0.911133)"/>
</clipPath>
</defs>
</svg>
