<svg width="41" height="42" viewBox="0 0 41 42" fill="none" xmlns="http://www.w3.org/2000/svg">
<path d="M37.2251 7.28809H3.77495C1.69354 7.28809 0 8.94916 0 10.9907V31.1855C0 33.227 1.69354 34.8881 3.77495 34.8881H37.2251C39.3065 34.8881 41 33.227 41 31.1855V10.9907C41 8.949 39.3065 7.28809 37.2251 7.28809ZM38.6407 31.1855C38.6407 31.951 38.0057 32.574 37.2251 32.574H3.77495C2.99432 32.574 2.35934 31.951 2.35934 31.1855V10.9907C2.35934 10.2252 2.99432 9.6022 3.77495 9.6022H37.2251C38.0057 9.6022 38.6407 10.2252 38.6407 10.9907V31.1855Z" fill="#003472"/>
<path d="M33.9809 13.894H23.1384C22.6172 13.894 22.1947 14.3086 22.1947 14.8197C22.1947 15.3308 22.6172 15.7453 23.1384 15.7453H33.9809C34.5021 15.7453 34.9246 15.3308 34.9246 14.8197C34.9246 14.3086 34.5021 13.894 33.9809 13.894Z" fill="#003472"/>
<path d="M33.9809 26.4307H23.1384C22.6172 26.4307 22.1947 26.845 22.1947 27.3563C22.1947 27.8674 22.6172 28.282 23.1384 28.282H33.9809C34.5021 28.282 34.9246 27.8674 34.9246 27.3563C34.9246 26.845 34.5021 26.4307 33.9809 26.4307Z" fill="#003472"/>
<path d="M33.9808 19.249H27.419C26.8979 19.249 26.4753 19.6636 26.4753 20.1747C26.4753 20.6858 26.8979 21.1003 27.419 21.1003H33.9808C34.5021 21.1003 34.9246 20.6858 34.9246 20.1747C34.9246 19.6636 34.5021 19.249 33.9808 19.249Z" fill="#003472"/>
<path d="M33.9808 22.8394H27.419C26.8979 22.8394 26.4753 23.2539 26.4753 23.765C26.4753 24.2763 26.8979 24.6906 27.419 24.6906H33.9808C34.5021 24.6906 34.9246 24.2763 34.9246 23.765C34.9246 23.2539 34.5021 22.8394 33.9808 22.8394Z" fill="#003472"/>
<path d="M13.3953 21.5205C16.0699 21.5205 18.2458 19.3855 18.2458 16.7613C18.2458 14.137 16.0699 12.002 13.3953 12.002C10.72 12.002 8.5434 14.137 8.5434 16.7613C8.5434 19.3855 10.72 21.5205 13.3953 21.5205ZM13.3953 14.3162C14.7689 14.3162 15.8865 15.4131 15.8865 16.7615C15.8865 18.1097 14.7691 19.2066 13.3953 19.2066C12.0209 19.2066 10.9027 18.1097 10.9027 16.7615C10.9027 15.4131 12.0209 14.3162 13.3953 14.3162Z" fill="#003472"/>
<path d="M15.2723 22.376H11.5474C8.93767 22.376 6.81458 24.4582 6.81458 27.0178V29.0173C6.81458 29.6563 7.3426 30.1744 7.99425 30.1744C8.6459 30.1744 9.17392 29.6563 9.17392 29.0173V27.0178C9.17392 25.7344 10.2388 24.6901 11.5474 24.6901H15.2723C16.581 24.6901 17.6458 25.7342 17.6458 27.0178V29.0173C17.6458 29.6563 18.1739 30.1744 18.8255 30.1744C19.4772 30.1744 20.0052 29.6563 20.0052 29.0173V27.0178C20.0052 24.4582 17.8819 22.376 15.2723 22.376Z" fill="#003472"/>
</svg>
