<svg width="40" height="40" viewBox="0 0 40 40" fill="none" xmlns="http://www.w3.org/2000/svg">
<path d="M6.17811 0V5.29548H0.882629V40H33.8207V34.7045H39.1162V0H6.17811ZM31.1781 30.5897H3.52908V7.94064H31.1781V30.5897ZM36.4736 32.0594H33.8233V5.29548H8.82586V2.64903H36.4736V32.0594ZM12.3936 16.3665C12.2981 15.8026 12.4968 15.3058 12.8323 15.2477C12.8594 15.2426 12.8826 15.2594 12.9084 15.2606C12.7536 11.2155 15.1394 9.36129 17.8013 9.34581C20.3884 9.40645 22.4426 10.9252 22.5484 15.2477C22.5691 15.2426 22.5859 15.2323 22.6091 15.2348C22.9471 15.2903 23.1459 15.7948 23.0581 16.351C22.9626 16.8877 22.6375 17.2761 22.3123 17.2542C21.6013 19.8658 19.471 21.7987 17.7317 21.8813C15.8259 21.84 13.9459 19.8761 13.2181 17.2529C13.2052 17.2581 13.1949 17.2684 13.182 17.271C12.8375 17.329 12.4865 16.9252 12.3936 16.3665ZM28.5368 29.369L6.90456 29.3948C6.8994 25.0129 9.91876 23.2052 14.1252 22.6323L16.5497 27.3716L16.9278 24.2877L16.3278 23.7974L17.653 23.7948H19.0994L18.4994 24.2839L18.8878 27.3665L21.302 22.6245C25.511 23.1884 28.5291 24.9871 28.5368 29.369Z" fill="#003472"/>
</svg>
