<svg width="46" height="47" viewBox="0 0 46 47" fill="none" xmlns="http://www.w3.org/2000/svg">
<g clip-path="url(#clip0)">
<path d="M45.7369 39.8919C45.3861 39.5478 44.8174 39.5478 44.4662 39.8919C43.7086 40.635 42.4761 40.6351 41.7183 39.8919C41.0917 39.2773 40.2817 38.9083 39.4094 38.8327C41.8989 36.3472 44.0928 33.1221 44.0928 29.5138C44.0928 29.0271 43.6905 28.6326 43.1944 28.6326H39.784L34.4403 18.8504C34.2838 18.564 33.9795 18.3854 33.6484 18.3854H28.7504C28.3843 18.3854 28.055 18.6031 27.9175 18.9359L26.5704 22.1994H24.5759V18.2449H24.9255C25.4217 18.2449 25.824 17.8504 25.824 17.3637C25.824 16.877 25.4217 16.4825 24.9255 16.4825H24.8225V14.2125C24.8225 13.0643 23.8701 12.1302 22.6996 12.1302C22.5198 12.1302 22.3735 11.9868 22.3735 11.8104V10.7909C22.3735 10.6145 22.5198 10.4711 22.6996 10.4711C23.8701 10.4711 24.8225 9.53699 24.8225 8.38886V6.88762C24.8225 5.67401 23.8158 4.68652 22.5785 4.68652C22.0823 4.68652 21.68 5.08104 21.68 5.56774C21.68 6.05443 22.0823 6.44895 22.5785 6.44895C22.825 6.44895 23.0256 6.64573 23.0256 6.88762V8.38868C23.0256 8.56501 22.8793 8.70848 22.6996 8.70848C21.529 8.70848 20.5766 9.64257 20.5766 10.7907V11.8103C20.5766 12.9584 21.529 13.8925 22.6996 13.8925C22.8793 13.8925 23.0256 14.0359 23.0256 14.2123V16.4823H20.043C19.8294 16.4823 19.6556 16.3118 19.6556 16.1023V14.3039C19.6556 13.1226 18.6757 12.1615 17.4713 12.1615C17.2577 12.1615 17.0839 11.9911 17.0839 11.7815V10.7442C17.0839 9.56282 16.104 8.60176 14.8996 8.60176H13.3516C13.138 8.60176 12.9642 8.43133 12.9642 8.22178V5.56774C12.9642 5.08104 12.562 4.68652 12.0658 4.68652C11.5695 4.68652 11.1673 5.08104 11.1673 5.56774V8.22205C11.1673 9.40332 12.1471 10.3645 13.3516 10.3645H14.8996C15.1132 10.3645 15.287 10.535 15.287 10.7444V11.7818C15.287 12.9631 16.2668 13.9242 17.4713 13.9242C17.6848 13.9242 17.8587 14.0947 17.8587 14.3042V16.1026C17.8587 16.2323 17.8712 16.3591 17.8938 16.4826H17.4371C16.9409 16.4826 16.5386 16.8771 16.5386 17.3638C16.5386 17.8505 16.9409 18.245 17.4371 18.245H17.8811V23.0807V25.0589H16.5881V22.3663C16.5881 21.8796 16.1859 21.4851 15.6897 21.4851H9.50997C9.01376 21.4851 8.61153 21.8796 8.61153 22.3663V25.0589H6.42015C5.92394 25.0589 5.52171 25.4534 5.52171 25.9401V28.6327H2.07944C1.78682 28.6327 1.51253 28.7724 1.34434 29.0073C1.17615 29.2421 1.135 29.5426 1.23419 29.8126L4.78499 39.4792C4.60818 39.6004 4.43928 39.7373 4.28151 39.892C3.52395 40.6352 2.2912 40.6352 1.53373 39.892C1.18289 39.5479 0.613998 39.5479 0.263069 39.892C-0.087771 40.2361 -0.087771 40.7941 0.263069 41.1383C1.72123 42.5685 4.09383 42.5686 5.55217 41.1383C5.78262 40.9123 6.05727 40.756 6.34899 40.6675C6.35762 40.6649 6.36597 40.6615 6.3746 40.659C7.03531 40.4683 7.77967 40.628 8.30004 41.1383C8.99759 41.8226 9.95775 42.2124 10.9442 42.2124C11.9308 42.2124 12.8914 41.8226 13.5891 41.1383C14.3466 40.3952 15.5794 40.3952 16.3369 41.1383C17.0345 41.8224 17.9953 42.2124 18.9815 42.2124C19.9682 42.2124 20.9283 41.8227 21.626 41.1383C21.993 40.7784 22.481 40.5802 23 40.5802C23.5189 40.5802 24.007 40.7785 24.3739 41.1383C25.0803 41.8312 26.0195 42.2127 27.0185 42.2127C28.0176 42.2127 28.9566 41.8312 29.6631 41.1383C30.3695 40.4454 31.4887 40.3993 32.251 40.9987C32.4931 41.1898 32.7011 41.4113 32.9604 41.5837C33.3992 41.8761 33.8944 42.0711 34.4182 42.1589C35.5926 42.3892 36.8631 41.9592 37.7001 41.1382C38.067 40.7784 38.555 40.5801 39.074 40.5801C39.5929 40.5801 40.0809 40.7784 40.4478 41.1382C41.9061 42.5685 44.2789 42.5684 45.7369 41.1382C46.0877 40.794 46.0877 40.2361 45.7369 39.8919ZM27.1759 23.9617C27.542 23.9617 27.8713 23.7439 28.0088 23.4112L29.3559 20.1477H33.1104L33.8409 21.485H31.9062C31.4101 21.485 31.0078 21.8796 31.0078 22.3663C31.0078 22.8529 31.4101 23.2475 31.9062 23.2475H34.8037L37.7454 28.6325H19.6779V25.9399V23.9617H23.6774H27.1759ZM22.779 18.2448V22.1993H19.6779V18.2448H22.779ZM17.881 28.6325H13.4982V26.8211H17.881V28.6325ZM10.4084 23.2475H14.7912V25.0588H10.4084V23.2475ZM7.31859 26.8212H11.7013V28.6326H7.31859V26.8212ZM42.2411 30.395C42.1541 31.1005 41.9671 31.7866 41.7116 32.4447H17.4581C16.9619 32.4447 16.5596 32.8392 16.5596 33.3259C16.5596 33.8126 16.9619 34.2071 17.4581 34.2071H40.84C40.1417 35.3719 39.2881 36.3981 38.5029 37.219C36.9286 38.8646 35.3414 40.0098 34.7369 40.4227C34.0503 40.3125 33.6918 39.8244 33.1523 39.4598C32.5325 39.0409 31.7891 38.8173 31.0367 38.8173C30.0379 38.8173 29.0988 39.1989 28.3922 39.8916C28.0253 40.2515 27.5375 40.4497 27.0185 40.4497C26.4996 40.4497 26.0117 40.2514 25.6442 39.8911C24.9371 39.1986 23.9979 38.8172 22.9995 38.8172C22.0006 38.8172 21.0614 39.1988 20.3552 39.8915C20.2121 40.0319 20.0449 40.1501 19.865 40.2407C19.3115 40.5176 18.6505 40.5175 18.0971 40.2404C17.9176 40.1501 17.7503 40.0315 17.6076 39.8915C16.9012 39.1988 15.9621 38.8172 14.9632 38.8172C13.9649 38.8172 13.0256 39.1986 12.3179 39.8915C12.1357 40.0703 11.9117 40.2182 11.6716 40.3113C11.1487 40.5175 10.5523 40.4919 10.0476 40.2346C9.87311 40.1452 9.70969 40.0281 9.57034 39.8915C8.86399 39.1988 7.92485 38.8172 6.92597 38.8172C6.76982 38.8172 6.61502 38.8266 6.46193 38.8452L4.75822 34.2071H9.96502C10.4612 34.2071 10.8635 33.8126 10.8635 33.3259C10.8635 32.8392 10.4612 32.4447 9.96502 32.4447H4.11081L3.35792 30.395H42.2411Z" fill="#003472"/>
<path d="M23.5184 25.7484C23.1115 25.4825 22.5435 25.5934 22.2722 25.9925C22.0011 26.3915 22.1133 26.9484 22.5211 27.2139C22.9277 27.4786 23.4954 27.3715 23.7663 26.9707C24.0391 26.5674 23.9229 26.0203 23.5184 25.7484Z" fill="#003472"/>
<path d="M26.6791 26.8186C26.8649 27.263 27.401 27.4788 27.8525 27.2954C28.3048 27.1116 28.5258 26.5882 28.3386 26.1445C28.1518 25.7019 27.6159 25.4846 27.1651 25.6686C26.7139 25.8528 26.4906 26.3747 26.6791 26.8186Z" fill="#003472"/>
<path d="M31.1686 26.8182C31.3542 27.2622 31.8907 27.4789 32.3419 27.2949C32.7936 27.1106 33.0146 26.5884 32.8271 26.1449C32.6398 25.7017 32.1072 25.4839 31.6546 25.6682C31.2032 25.8519 30.9801 26.3745 31.1686 26.8182Z" fill="#003472"/>
<path d="M12.8674 33.6628C13.0189 34.0195 13.4018 34.245 13.7947 34.2019C14.1721 34.1604 14.489 33.883 14.5725 33.5191C14.7442 32.7702 13.8788 32.1704 13.2165 32.5816C12.8522 32.8078 12.7014 33.2719 12.8674 33.6628Z" fill="#003472"/>
</g>
<defs>
<clipPath id="clip0">
<rect width="46" height="45.1182" fill="white" transform="translate(0 0.894531)"/>
</clipPath>
</defs>
</svg>
