<svg width="43" height="41" viewBox="0 0 43 41" fill="none" xmlns="http://www.w3.org/2000/svg">
<g clip-path="url(#clip0)">
<path d="M33.9827 25.3981C33.1024 24.5241 32.0405 24.0568 30.9152 24.0568C29.7989 24.0568 28.728 24.5155 27.8114 25.3894L24.9435 28.1152C24.7076 27.9941 24.4716 27.8816 24.2447 27.7691C23.918 27.6133 23.6094 27.4662 23.3463 27.3105C20.6599 25.6837 18.2186 23.5636 15.8772 20.8205C14.7427 19.4533 13.9804 18.3024 13.4268 17.1342C14.171 16.4852 14.8607 15.8102 15.5323 15.1612C15.7864 14.9189 16.0405 14.668 16.2946 14.4257C18.2005 12.6085 18.2005 10.2548 16.2946 8.43757L13.817 6.07521C13.5357 5.80695 13.2453 5.53005 12.973 5.25314C12.4285 4.71664 11.8567 4.16282 11.2668 3.64362C10.3865 2.8129 9.33377 2.37158 8.22656 2.37158C7.11936 2.37158 6.04846 2.8129 5.14091 3.64362C5.13184 3.65227 5.13184 3.65228 5.12276 3.66093L2.03711 6.62902C0.875454 7.73665 0.212947 9.08657 0.0677396 10.6528C-0.150071 13.1796 0.630417 15.5333 1.2294 17.0736C2.69962 20.8551 4.89588 24.3597 8.17211 28.1152C12.1472 32.6409 16.9299 36.2148 22.3933 38.7329C24.4807 39.6761 27.2668 40.7924 30.3797 40.9827C30.5703 40.9914 30.77 41.0001 30.9515 41.0001C33.0479 41.0001 34.8085 40.2818 36.188 38.854C36.1971 38.8367 36.2152 38.8281 36.2243 38.8108C36.6962 38.2656 37.2408 37.7724 37.8125 37.2445C38.2028 36.8897 38.6021 36.5176 38.9923 36.1282C39.8908 35.2369 40.3627 34.1985 40.3627 33.1342C40.3627 32.0612 39.8817 31.0314 38.9651 30.1661L33.9827 25.3981ZM37.2317 34.5101C37.2226 34.5101 37.2226 34.5187 37.2317 34.5101C36.8777 34.8735 36.5147 35.2023 36.1245 35.5658C35.5346 36.1023 34.9356 36.6647 34.3729 37.2964C33.4563 38.231 32.3763 38.6723 30.9606 38.6723C30.8244 38.6723 30.6792 38.6723 30.5431 38.6637C27.8477 38.4992 25.3429 37.4955 23.4642 36.6388C18.3275 34.2678 13.817 30.9016 10.0689 26.6355C6.97415 23.079 4.90495 19.7907 3.53456 16.2602C2.69054 14.1055 2.38198 12.4268 2.51811 10.8432C2.60886 9.83075 3.01726 8.99138 3.77052 8.27315L6.86525 5.32237C7.30994 4.92431 7.78187 4.70798 8.24472 4.70798C8.81647 4.70798 9.27932 5.03681 9.56973 5.31371C9.5788 5.32237 9.58788 5.33102 9.59696 5.33967C10.1506 5.83291 10.6769 6.34346 11.2305 6.88862C11.5119 7.16553 11.8023 7.44243 12.0927 7.72799L14.5703 10.0904C15.5323 11.0076 15.5323 11.8556 14.5703 12.7729C14.3071 13.0238 14.053 13.2748 13.7898 13.5171C13.0275 14.2613 12.3014 14.9535 11.5119 15.6285C11.4937 15.6458 11.4756 15.6544 11.4665 15.6718C10.686 16.4159 10.8312 17.1428 10.9946 17.6361C11.0036 17.662 11.0127 17.688 11.0218 17.7139C11.6662 19.2023 12.5737 20.6042 13.9532 22.2742L13.9622 22.2829C16.4671 25.225 19.108 27.5182 22.0212 29.2748C22.3933 29.4998 22.7745 29.6815 23.1375 29.8546C23.4642 30.0103 23.7728 30.1574 24.036 30.3132C24.0723 30.3305 24.1086 30.3565 24.1449 30.3738C24.4535 30.5209 24.7439 30.5901 25.0434 30.5901C25.7966 30.5901 26.2685 30.1401 26.4228 29.993L29.5266 27.0336C29.8352 26.7394 30.3253 26.3846 30.897 26.3846C31.4597 26.3846 31.9225 26.7221 32.2039 27.0163C32.213 27.0249 32.213 27.0249 32.222 27.0336L37.2226 31.8016C38.1574 32.6842 38.1574 33.5928 37.2317 34.5101Z" fill="#003472"/>
<path d="M23.2382 9.75273C25.616 10.1335 27.7759 11.2065 29.5003 12.8506C31.2246 14.4948 32.3409 16.5542 32.7493 18.8214C32.8491 19.3925 33.3664 19.7906 33.9563 19.7906C34.0289 19.7906 34.0924 19.7819 34.165 19.7733C34.8366 19.6694 35.2813 19.0637 35.1724 18.4234C34.6823 15.6803 33.321 13.1794 31.2428 11.1978C29.1645 9.21622 26.5417 7.91822 23.6648 7.45094C22.9932 7.3471 22.367 7.77112 22.249 8.40281C22.131 9.0345 22.5666 9.64889 23.2382 9.75273Z" fill="#003472"/>
<path d="M42.9501 18.086C42.1424 13.5689 39.9098 9.45859 36.4793 6.18763C33.0488 2.91668 28.7379 0.787956 24.0005 0.0178098C23.338 -0.0946835 22.7118 0.337983 22.5938 0.969676C22.4849 1.61002 22.9296 2.2071 23.6012 2.3196C27.8304 3.00321 31.6874 4.91559 34.7549 7.83177C37.8224 10.7566 39.819 14.4343 40.536 18.4667C40.6358 19.0378 41.1531 19.4359 41.743 19.4359C41.8156 19.4359 41.8792 19.4272 41.9518 19.4186C42.6143 19.3234 43.0681 18.7177 42.9501 18.086Z" fill="#003472"/>
</g>
<defs>
<clipPath id="clip0">
<rect width="43" height="41" fill="white"/>
</clipPath>
</defs>
</svg>
