<svg width="46" height="46" viewBox="0 0 46 46" fill="none" xmlns="http://www.w3.org/2000/svg">
<path d="M36.4166 19.2152V9.58336C36.4166 7.46925 34.6975 5.75 32.5833 5.75H3.83327C1.71916 5.75 0 7.46916 0 9.58336V28.75C0 30.8641 1.71916 32.5834 3.83336 32.5834H25.3253C26.581 37.0012 30.6433 40.25 35.4584 40.25C37.3114 40.25 39.1335 39.7624 40.7301 38.8387C41.1878 38.5739 41.345 37.988 41.0792 37.5294C40.8143 37.0709 40.2275 36.9127 39.7699 37.1804C38.4653 37.9347 36.9744 38.3334 35.4583 38.3334C30.7021 38.3334 26.8333 34.4644 26.8333 29.7084C26.8333 24.9523 30.7022 21.0834 35.4583 21.0834C40.2143 21.0834 44.0833 24.9523 44.0833 29.7084V30.6667C44.0833 31.7233 43.2232 32.5834 42.1666 32.5834C41.1101 32.5834 40.25 31.7233 40.25 30.6667V26.8334C40.25 26.3036 39.8214 25.875 39.2916 25.875C39.0339 25.875 38.8023 25.9793 38.6302 26.1445C37.7832 25.3898 36.6793 24.9166 35.4583 24.9166C32.8163 24.9166 30.6666 27.0663 30.6666 29.7083C30.6666 32.3502 32.8163 34.5 35.4584 34.5C36.8865 34.5 38.1564 33.8593 39.035 32.8647C39.7293 33.8509 40.8715 34.5 42.1667 34.5C44.2808 34.5 46 32.7808 46 30.6666V29.7083C46 24.2191 41.7813 19.7017 36.4166 19.2152ZM3.83336 7.66664H32.5834C32.6233 7.66664 32.6567 7.68703 32.696 7.68946L18.9964 18.9346C18.5088 19.2416 17.8022 19.1779 17.4849 18.9833L3.72187 7.68928C3.76077 7.68694 3.79383 7.66664 3.83336 7.66664ZM34.5 19.2152C29.1353 19.7017 24.9166 24.2191 24.9166 29.7084C24.9166 30.0318 24.9365 30.3506 24.9652 30.6667H3.83336C2.7768 30.6667 1.91673 29.8067 1.91673 28.7501V9.58336C1.91673 9.31195 1.97665 9.05562 2.07889 8.82149L16.3535 20.5275C16.9113 20.8915 17.5524 21.0835 18.2085 21.0835C18.8392 21.0835 19.4559 20.9057 19.9988 20.5687C20.053 20.5397 20.1045 20.5051 20.1532 20.4649L34.3377 8.82131C34.4401 9.05562 34.5001 9.31195 34.5001 9.58345V19.2152H34.5ZM35.4584 32.5834C33.873 32.5834 32.5834 31.2937 32.5834 29.7084C32.5834 28.123 33.873 26.8334 35.4584 26.8334C37.0437 26.8334 38.3334 28.123 38.3334 29.7084C38.3334 31.2937 37.0437 32.5834 35.4584 32.5834Z" fill="#003472"/>
</svg>
