<svg width="52" height="52" viewBox="0 0 52 52" fill="none" xmlns="http://www.w3.org/2000/svg">
<path d="M43.0625 39C43.0625 40.3439 44.1561 41.4375 45.5 41.4375C46.8439 41.4375 47.9375 40.3439 47.9375 39C47.9375 37.6561 46.8439 36.5625 45.5 36.5625C44.1561 36.5625 43.0625 37.6561 43.0625 39ZM46.3125 39C46.3125 39.4485 45.9477 39.8125 45.5 39.8125C45.0523 39.8125 44.6875 39.4485 44.6875 39C44.6875 38.5515 45.0523 38.1875 45.5 38.1875C45.9477 38.1875 46.3125 38.5515 46.3125 39Z" fill="#002047"/>
<path d="M51.1875 39C51.1875 36.1408 49.0644 33.774 46.3125 33.3775V23.5625C46.3125 22.6663 45.5837 21.9375 44.6875 21.9375H25.1875C24.2913 21.9375 23.5625 22.6663 23.5625 23.5625V25.6888L20.3125 25.2826V23.4195C21.4021 22.8239 22.3519 21.9708 23.0644 20.9024C23.3594 20.4604 23.5877 19.9859 23.7851 19.5H24.375C26.1674 19.5 27.625 18.0424 27.625 16.25C27.625 14.4576 26.1674 13 24.375 13V12.1128C26.2218 11.765 27.625 10.1457 27.625 8.19975C27.625 6.86319 26.9612 5.6225 25.8489 4.8815L25.0047 4.31925L24.7252 3.76025C23.8168 1.94269 21.9887 0.8125 19.9566 0.8125C19.5886 0.8125 19.2205 0.858 18.8606 0.947375C18.2146 1.10906 17.6402 1.41537 17.1454 1.81025C16.0883 1.16512 14.8883 0.8125 13.6451 0.8125C8.80913 0.8125 4.875 4.74662 4.875 9.58263C4.875 10.2993 4.96275 11.0151 5.13662 11.7098L5.72731 14.0741C5.20325 14.651 4.875 15.4099 4.875 16.25C4.875 18.0424 6.33262 19.5 8.125 19.5H8.71487C8.91231 19.9859 9.14062 20.4596 9.43556 20.9024C10.1473 21.9708 11.0971 22.8248 12.1875 23.4203V25.2834L8.82294 25.7034C7.08256 25.9212 5.45106 26.6297 4.10231 27.7518C2.01175 29.4954 0.8125 32.0556 0.8125 34.7783V41.4375C0.8125 44.1261 2.99894 46.3125 5.6875 46.3125H7.3125V51.1875H25.1875V49.5625H41.5147L41.2945 51.7611L45.5 49.6584L49.7055 51.7611L48.8849 43.5598C50.2791 42.5222 51.1875 40.8671 51.1875 39ZM49.5625 39C49.5625 41.2401 47.7401 43.0625 45.5 43.0625C43.2599 43.0625 41.4375 41.2401 41.4375 39C41.4375 36.7599 43.2599 34.9375 45.5 34.9375C47.7401 34.9375 49.5625 36.7599 49.5625 39ZM23.5625 44.6875H10.5625V41.4375H18.3771L18.7614 40.6689C19.0255 40.1399 19.5561 39.8125 20.1467 39.8125C20.5538 39.8125 20.9536 39.9783 21.242 40.2667L22.4136 41.4375H23.5625C24.4587 41.4375 25.1875 42.1663 25.1875 43.0625C25.1875 43.9587 24.4587 44.6875 23.5625 44.6875ZM14.8956 28.4375L13.2909 29.6408L11.9462 26.9498L12.7749 26.8458L14.8956 28.4375ZM19.7251 26.8466L20.5538 26.9506L19.2091 29.6416L17.6044 28.4375L19.7251 26.8466ZM24.375 14.625C25.2712 14.625 26 15.3538 26 16.25C26 17.1462 25.2712 17.875 24.375 17.875H24.2564C24.3287 17.4468 24.375 17.0138 24.375 16.5742V14.625ZM8.125 17.875C7.22881 17.875 6.5 17.1462 6.5 16.25C6.5 15.3538 7.22881 14.625 8.125 14.625V16.5726C8.125 17.0129 8.17131 17.446 8.24362 17.875H8.125ZM8.12825 13H8.125C7.79187 13 7.47662 13.065 7.17438 13.1584L6.71369 11.3165C6.5715 10.7494 6.5 10.1668 6.5 9.58263C6.5 5.64281 9.70531 2.4375 13.6451 2.4375C14.495 2.4375 15.3164 2.6585 16.0583 3.05825C15.6658 3.73181 15.4375 4.50775 15.4375 5.33162V5.6875H17.0625V5.33162C17.0625 4.00075 17.9636 2.84619 19.253 2.52444C19.4837 2.46675 19.7202 2.4375 19.9566 2.4375C21.3704 2.4375 22.6411 3.22319 23.2732 4.48663L23.7453 5.43075L24.9486 6.23269C25.6067 6.67306 26 7.40756 26 8.19975C26 9.50219 24.9397 10.5625 23.6372 10.5625H23.2148C22.9946 10.5625 22.776 10.5268 22.5282 10.4447C21.6889 10.1652 21.125 9.38275 21.125 8.49875C21.125 7.95031 21.3387 7.43519 21.7254 7.04844L22.5119 6.26194L21.3631 5.11306L20.5766 5.89956C20.0988 6.37731 19.7811 6.96719 19.6219 7.60581L18.7452 8.19325C18.0156 8.68075 17.1649 8.9375 16.2866 8.9375C14.9224 8.9375 13.8125 7.82763 13.8125 6.46344C13.8125 6.08075 13.9027 5.69888 14.0741 5.35681L14.5397 4.42569L13.0861 3.6985L12.6206 4.62963C12.337 5.19675 12.1875 5.8305 12.1875 6.46344C12.1875 6.84856 12.2582 7.215 12.3581 7.56844C9.89787 8.21519 8.15831 10.4163 8.12825 13ZM10.7876 20.0005C10.1091 18.9824 9.75 17.797 9.75 16.5726V13.0674C9.75 11.0744 11.1768 9.38925 13.1414 9.06019C13.8938 9.97019 15.0166 10.5625 16.2866 10.5625C17.4874 10.5625 18.6493 10.2107 19.6487 9.54444L19.6568 9.53875C19.9924 10.6706 20.8601 11.6009 22.0537 11.999C22.2812 12.0746 22.5144 12.1193 22.75 12.1493V16.5734C22.75 17.797 22.3917 18.9816 21.7124 19.9997C20.5644 21.7222 18.6444 22.75 16.5766 22.75C16.5758 22.75 16.5742 22.75 16.5726 22.75L15.9201 22.7492C13.8523 22.7484 11.934 21.7206 10.7876 20.0005ZM15.9185 24.3742L16.5709 24.375H16.5758C17.3006 24.375 18.0082 24.2653 18.6875 24.0744V25.5938L16.25 27.4219L13.8125 25.5938V24.0744C14.4901 24.2653 15.1954 24.3742 15.9185 24.3742ZM2.4375 41.4375V34.7783C2.4375 32.5398 3.42388 30.4338 5.14313 29.0014C6.25137 28.0776 7.59363 27.495 9.02444 27.3163L10.2359 27.1651L12.7083 32.11L16.25 29.4531L19.7909 32.1092L22.2633 27.1643L23.4731 27.3154C23.5032 27.3195 23.5324 27.3268 23.5617 27.3309V39.8125H23.0856L22.3901 39.1178C21.7913 38.5174 20.9942 38.1875 20.1467 38.1875C18.9857 38.1875 17.9376 38.8066 17.3761 39.8125H8.9375V33.3125H7.3125V39.8125H5.6875V41.4375H8.9375V44.6875H5.6875C3.89512 44.6875 2.4375 43.2299 2.4375 41.4375ZM23.5625 49.5625H8.9375V46.3125H23.5625V49.5625ZM25.1875 47.9375V45.8608C26.1544 45.2969 26.8125 44.2601 26.8125 43.0625C26.8125 41.8649 26.1544 40.8281 25.1875 40.2643V23.5625H44.6875V33.3775C41.9356 33.774 39.8125 36.1408 39.8125 39C39.8125 40.8671 40.7209 42.5222 42.1151 43.5598L41.6772 47.9375H25.1875ZM47.7945 48.9889L45.5 47.8416L43.2055 48.9889L43.667 44.3788C44.2422 44.5754 44.8581 44.6875 45.5 44.6875C46.1419 44.6875 46.7578 44.5754 47.3338 44.3788L47.7945 48.9889Z" fill="#002047"/>
<path d="M36.5625 36.712V34.9375H34.9375V36.5625H33.3125V39C33.3125 40.3439 34.4061 41.4375 35.75 41.4375C36.1977 41.4375 36.5625 41.8015 36.5625 42.25V43.0625H35.75C35.3023 43.0625 34.9375 42.6985 34.9375 42.25V41.4375H33.3125V42.25C33.3125 43.3079 33.9942 44.2016 34.9375 44.538V46.3125H36.5625V44.6875H38.1875V42.25C38.1875 40.9061 37.0939 39.8125 35.75 39.8125C35.3023 39.8125 34.9375 39.4485 34.9375 39V38.1875H35.75C36.1977 38.1875 36.5625 38.5515 36.5625 39V39.8125H38.1875V39C38.1875 37.9421 37.5058 37.0484 36.5625 36.712Z" fill="#002047"/>
<path d="M31.6875 44.6875H33.3125V46.3125H31.6875V44.6875Z" fill="#002047"/>
<path d="M26.8125 31.6875H43.0625V33.3125H26.8125V31.6875Z" fill="#002047"/>
<path d="M26.8125 25.1875H43.0625V26.8125H26.8125V25.1875Z" fill="#002047"/>
<path d="M33.3125 28.4375H43.0625V30.0625H33.3125V28.4375Z" fill="#002047"/>
<path d="M28.4375 44.6875H30.0625V46.3125H28.4375V44.6875Z" fill="#002047"/>
<path d="M26.8125 28.4375H31.6875V30.0625H26.8125V28.4375Z" fill="#002047"/>
<path d="M13 13.8125C13.4477 13.8125 13.8125 14.1765 13.8125 14.625H15.4375C15.4375 13.2811 14.3439 12.1875 13 12.1875C11.6561 12.1875 10.5625 13.2811 10.5625 14.625H12.1875C12.1875 14.1765 12.5523 13.8125 13 13.8125Z" fill="#002047"/>
<path d="M19.5 13.8125C19.9477 13.8125 20.3125 14.1765 20.3125 14.625H21.9375C21.9375 13.2811 20.8439 12.1875 19.5 12.1875C18.1561 12.1875 17.0625 13.2811 17.0625 14.625H18.6875C18.6875 14.1765 19.0523 13.8125 19.5 13.8125Z" fill="#002047"/>
<path d="M20.3125 17.0625V16.25H12.1875V17.0625C12.1875 19.3026 14.0099 21.125 16.25 21.125C18.4901 21.125 20.3125 19.3026 20.3125 17.0625ZM13.9514 17.875H18.5477C18.2122 18.8207 17.3087 19.5 16.2492 19.5C15.1897 19.5 14.287 18.8207 13.9514 17.875Z" fill="#002047"/>
</svg>
