<svg width="55" height="55" viewBox="0 0 55 55" fill="none" xmlns="http://www.w3.org/2000/svg">
<path d="M14.6094 4.72656C14.6097 4.3848 14.7457 4.05713 14.9873 3.81547C15.229 3.5738 15.5567 3.43787 15.8984 3.4375H39.1016C39.4433 3.43787 39.771 3.5738 40.0127 3.81547C40.2543 4.05713 40.3903 4.3848 40.3906 4.72656V9.45312H42.1094V4.72656C42.1085 3.92912 41.7913 3.1646 41.2274 2.60072C40.6635 2.03685 39.899 1.71966 39.1016 1.71875H15.8984C15.101 1.71966 14.3365 2.03685 13.7726 2.60072C13.2087 3.1646 12.8915 3.92912 12.8906 4.72656V9.45312H14.6094V4.72656Z" fill="#002047"/>
<path d="M40.3906 46.4062H14.6094V43.8281H12.8906V50.2734C12.8915 51.0709 13.2087 51.8354 13.7726 52.3993C14.3365 52.9632 15.101 53.2803 15.8984 53.2812H39.1016C39.899 53.2803 40.6635 52.9632 41.2274 52.3993C41.7913 51.8354 42.1085 51.0709 42.1094 50.2734V43.8281H40.3906V46.4062ZM39.1016 51.5625H15.8984C15.5567 51.5621 15.229 51.4262 14.9873 51.1845C14.7457 50.9429 14.6097 50.6152 14.6094 50.2734V48.125H40.3906V50.2734C40.3903 50.6152 40.2543 50.9429 40.0127 51.1845C39.771 51.4262 39.4433 51.5621 39.1016 51.5625Z" fill="#002047"/>
<path d="M24.0625 6.01562H30.9375V7.73438H24.0625V6.01562Z" fill="#002047"/>
<path d="M51.5625 40.1758C51.5625 40.2328 51.5399 40.2874 51.4996 40.3277C51.4593 40.368 51.4046 40.3906 51.3477 40.3906H3.65234C3.59536 40.3906 3.54072 40.368 3.50043 40.3277C3.46014 40.2874 3.4375 40.2328 3.4375 40.1758V18.0469H1.71875V40.1758C1.71935 40.6884 1.92326 41.1799 2.28575 41.5424C2.64824 41.9049 3.13971 42.1088 3.65234 42.1094H51.3477C51.8603 42.1088 52.3518 41.9049 52.7143 41.5424C53.0767 41.1799 53.2807 40.6884 53.2812 40.1758V33.5156H51.5625V40.1758Z" fill="#002047"/>
<path d="M51.3477 11.1719H3.65234C3.13971 11.1725 2.64824 11.3764 2.28575 11.7389C1.92326 12.1014 1.71935 12.5928 1.71875 13.1055V16.3281H3.4375V13.1055C3.4375 13.0485 3.46014 12.9938 3.50043 12.9536C3.54072 12.9133 3.59536 12.8906 3.65234 12.8906H51.3477C51.4046 12.8906 51.4593 12.9133 51.4996 12.9536C51.5399 12.9938 51.5625 13.0485 51.5625 13.1055V31.7969H53.2812V13.1055C53.2807 12.5928 53.0767 12.1014 52.7143 11.7389C52.3518 11.3764 51.8603 11.1725 51.3477 11.1719Z" fill="#002047"/>
<path d="M33.5156 33.5156H35.2344V36.9531H33.5156V33.5156Z" fill="#002047"/>
<path d="M30.0781 33.5156H31.7969V36.9531H30.0781V33.5156Z" fill="#002047"/>
<path d="M36.9531 33.5156H40.3906V36.9531H36.9531V33.5156Z" fill="#002047"/>
<path d="M42.1094 33.5156H43.8281V36.9531H42.1094V33.5156Z" fill="#002047"/>
<path d="M45.5469 33.5156H48.9844V36.9531H45.5469V33.5156Z" fill="#002047"/>
<path d="M30.0781 24.9219H42.1094V26.6406H30.0781V24.9219Z" fill="#002047"/>
<path d="M43.8281 24.9219H48.9844V26.6406H43.8281V24.9219Z" fill="#002047"/>
<path d="M36.9531 28.3594H48.9844V30.0781H36.9531V28.3594Z" fill="#002047"/>
<path d="M30.0781 28.3594H35.2344V30.0781H30.0781V28.3594Z" fill="#002047"/>
<path d="M30.0781 21.4844H33.5156V23.2031H30.0781V21.4844Z" fill="#002047"/>
<path d="M35.2344 21.4844H42.1094V23.2031H35.2344V21.4844Z" fill="#002047"/>
<path d="M40.3906 16.3281H42.1094V18.0469H40.3906V16.3281Z" fill="#002047"/>
<path d="M43.8281 16.3281H45.5469V18.0469H43.8281V16.3281Z" fill="#002047"/>
<path d="M47.2656 16.3281H48.9844V18.0469H47.2656V16.3281Z" fill="#002047"/>
<path d="M30.0781 18.0469H37.8125V19.7656H30.0781V18.0469Z" fill="#002047"/>
<path d="M25.7812 38.6719C26.0092 38.6719 26.2278 38.5813 26.3889 38.4202C26.5501 38.259 26.6406 38.0404 26.6406 37.8125V15.4688C26.6406 15.2408 26.5501 15.0222 26.3889 14.8611C26.2278 14.6999 26.0092 14.6094 25.7812 14.6094H6.875C6.64708 14.6094 6.42849 14.6999 6.26733 14.8611C6.10617 15.0222 6.01562 15.2408 6.01562 15.4688V37.8125C6.01562 38.0404 6.10617 38.259 6.26733 38.4202C6.42849 38.5813 6.64708 38.6719 6.875 38.6719H25.7812ZM7.73438 34.8896C7.73586 34.4088 7.88326 33.9399 8.15708 33.5447C8.4309 33.1496 8.81822 32.8469 9.26782 32.6767L13.4492 31.1094L13.9219 31.74C14.202 32.1136 14.5653 32.4168 14.983 32.6256C15.4006 32.8345 15.8612 32.9432 16.3281 32.9432C16.7951 32.9432 17.2556 32.8345 17.6733 32.6256C18.0909 32.4168 18.4542 32.1136 18.7344 31.74L19.207 31.1094L23.3881 32.6777C23.8376 32.8478 24.2249 33.1503 24.4987 33.5453C24.7726 33.9402 24.9201 34.409 24.9219 34.8896V36.9531H7.73438V34.8896ZM17.9486 29.9227L17.3594 30.7084C17.2393 30.8685 17.0836 30.9984 16.9046 31.0879C16.7256 31.1774 16.5282 31.224 16.3281 31.224C16.128 31.224 15.9306 31.1774 15.7516 31.0879C15.5726 30.9984 15.4169 30.8685 15.2969 30.7084L14.7077 29.9227L15.2288 28.3594H17.4275L17.9486 29.9227ZM18.9062 25.3516C18.9059 25.6933 18.7699 26.021 18.5283 26.2627C18.2866 26.5043 17.959 26.6403 17.6172 26.6406H15.0391C14.6973 26.6403 14.3696 26.5043 14.128 26.2627C13.8863 26.021 13.7504 25.6933 13.75 25.3516V21.0547C13.7504 20.7129 13.8863 20.3853 14.128 20.1436C14.3696 19.9019 14.6973 19.766 15.0391 19.7656H17.6172C17.959 19.766 18.2866 19.9019 18.5283 20.1436C18.7699 20.3853 18.9059 20.7129 18.9062 21.0547V25.3516ZM24.9219 16.3281V31.5631C24.6348 31.358 24.3222 31.1914 23.9919 31.0674L19.5918 29.4174L19.1072 27.9636C19.568 27.7006 19.951 27.3205 20.2176 26.8618C20.4841 26.4031 20.6247 25.8821 20.625 25.3516V21.0547C20.6241 20.2572 20.3069 19.4927 19.743 18.9288C19.1792 18.365 18.4146 18.0478 17.6172 18.0469H15.0391C14.2416 18.0478 13.4771 18.365 12.9132 18.9288C12.3493 19.4927 12.0322 20.2572 12.0312 21.0547V25.3516C12.0316 25.8821 12.1721 26.4031 12.4387 26.8618C12.7052 27.3205 13.0883 27.7006 13.549 27.9636L13.0644 29.4174L8.66433 31.0674C8.33404 31.1914 8.02141 31.358 7.73438 31.5631V16.3281H24.9219Z" fill="#002047"/>
</svg>
