<svg width="49" height="49" viewBox="0 0 49 49" fill="none" xmlns="http://www.w3.org/2000/svg">
<path d="M44.1 19.2122V4.9C44.0986 3.54752 43.0025 2.45144 41.65 2.45H40.8334C40.8319 1.09752 39.7358 0.00143555 38.3834 0H24.5C23.5582 0.0030625 22.6642 0.415064 22.05 1.12891C21.4358 0.415064 20.5418 0.0030625 19.6 0H5.71663C4.36416 0.00143555 3.26807 1.09752 3.26663 2.45H2.45C1.09752 2.45144 0.00143555 3.54752 0 4.9V35.1166C0.00143555 36.4691 1.09752 37.5652 2.45 37.5666H29.4V41.65C29.4047 45.7073 32.6927 48.9953 36.75 49H41.65C45.7073 48.9953 48.9953 45.7073 49 41.65V26.1334C48.9945 23.0222 47.0325 20.251 44.1 19.2122ZM40.8334 4.08337H41.65C42.1008 4.08394 42.4661 4.44924 42.4666 4.9V18.8315C42.1955 18.8003 41.9229 18.7842 41.65 18.7834H40.8334V4.08337ZM8.16663 1.63337H13.0666V12.372L11.2542 10.1066C11.0994 9.91283 10.8647 9.8 10.6166 9.8C10.3686 9.8 10.1339 9.91283 9.97906 10.1066L8.16663 12.372V1.63337ZM4.9 2.45C4.90057 1.99924 5.26587 1.63394 5.71663 1.63337H6.53327V14.7C6.53308 15.0469 6.75214 15.356 7.07954 15.4708C7.40685 15.5856 7.771 15.481 7.98757 15.21L10.6166 11.9238L13.2457 15.21C13.4005 15.4039 13.6352 15.5167 13.8833 15.5166C14.0999 15.5168 14.3077 15.4308 14.4609 15.2777C14.6142 15.1244 14.7001 14.9167 14.6999 14.7V1.63337H19.5999C20.5016 1.63423 21.2323 2.36502 21.2333 3.26673V29.9047C20.7218 29.5787 20.1287 29.4037 19.5222 29.4H4.9V2.45ZM4.9 31.0334H19.5223C20.421 31.0649 21.1511 31.7696 21.2141 32.6667H4.9V31.0334ZM29.4 35.9334H2.45C1.99924 35.9328 1.63394 35.5675 1.63337 35.1167V4.9C1.63394 4.44924 1.99924 4.08394 2.45 4.08337H3.26663V33.4834C3.26663 33.9344 3.63222 34.3 4.08327 34.3H29.4V35.9334ZM29.4 32.6666H22.8859C22.9501 31.7686 23.6818 31.0638 24.5817 31.0333H29.4V32.6666ZM29.4 29.4H24.5817C23.9738 29.4036 23.3792 29.5791 22.8666 29.9059V3.26663C22.8675 2.36492 23.5983 1.63423 24.5 1.63327H38.3834C38.8341 1.63384 39.1994 1.99914 39.2 2.4499V18.7833H36.75C32.6927 18.788 29.4047 22.0759 29.4 26.1333V29.4ZM38.3834 20.4166V31.0333H31.0334V26.1333C31.0369 22.9776 33.5943 20.4202 36.75 20.4166H38.3834ZM47.3666 41.65C47.3631 44.8057 44.8057 47.3631 41.65 47.3666H36.75C33.5943 47.3631 31.0369 44.8057 31.0334 41.65V32.6666H47.3667V41.65H47.3666ZM47.3666 31.0334H40.0166V20.4166H41.65C44.8057 20.4202 47.3631 22.9776 47.3666 26.1333V31.0334Z" fill="#002047"/>
</svg>
