<svg width="36" height="36" viewBox="0 0 36 36" fill="none" xmlns="http://www.w3.org/2000/svg">
<g clip-path="url(#clip0)">
<path d="M28.4506 22.3007C27.7135 21.5333 26.8246 21.123 25.8824 21.123C24.9479 21.123 24.0513 21.5257 23.2839 22.2931L20.8829 24.6865C20.6854 24.5801 20.4878 24.4814 20.2979 24.3826C20.0243 24.2458 19.766 24.1166 19.5456 23.9799C17.2966 22.5514 15.2527 20.6899 13.2925 18.2813C12.3427 17.0809 11.7045 16.0703 11.241 15.0446C11.864 14.4747 12.4415 13.8821 13.0037 13.3122C13.2165 13.0995 13.4292 12.8791 13.642 12.6664C15.2376 11.0708 15.2376 9.00413 13.642 7.40854L11.5677 5.33428C11.3322 5.09874 11.089 4.8556 10.8611 4.61246C10.4052 4.14138 9.92652 3.65511 9.43264 3.19923C8.69563 2.46981 7.81426 2.08231 6.8873 2.08231C5.96034 2.08231 5.06377 2.46981 4.30396 3.19923C4.29637 3.20682 4.29637 3.20682 4.28877 3.21442L1.70543 5.82055C0.732881 6.7931 0.178224 7.9784 0.0566555 9.35364C-0.125698 11.5723 0.527734 13.6389 1.02921 14.9914C2.26009 18.3117 4.09882 21.3889 6.84171 24.6865C10.1697 28.6603 14.1738 31.7983 18.7478 34.0093C20.4954 34.8375 22.828 35.8176 25.4341 35.9848C25.5937 35.9924 25.7608 36 25.9128 36C27.668 36 29.142 35.3694 30.2969 34.1157C30.3045 34.1005 30.3197 34.0929 30.3273 34.0777C30.7224 33.599 31.1783 33.1659 31.6569 32.7024C31.9836 32.3909 32.318 32.0642 32.6447 31.7223C33.3969 30.9397 33.792 30.0279 33.792 29.0934C33.792 28.1512 33.3893 27.247 32.6219 26.4872L28.4506 22.3007ZM31.1707 30.3015C31.1631 30.3015 31.1631 30.3091 31.1707 30.3015C30.8743 30.6206 30.5704 30.9093 30.2437 31.2284C29.7498 31.6995 29.2484 32.1934 28.7773 32.748C28.0099 33.5686 27.1057 33.9561 25.9204 33.9561C25.8064 33.9561 25.6849 33.9561 25.5709 33.9485C23.3143 33.8042 21.2172 32.9228 19.6444 32.1706C15.3439 30.0887 11.5677 27.1331 8.4297 23.3872C5.83877 20.2644 4.10641 17.3772 2.95911 14.2772C2.25249 12.3853 1.99416 10.9112 2.10813 9.5208C2.18411 8.63183 2.52602 7.89482 3.15666 7.26418L5.74759 4.67325C6.1199 4.32374 6.515 4.13379 6.9025 4.13379C7.38117 4.13379 7.76867 4.42251 8.01181 4.66565C8.01941 4.67325 8.02701 4.68085 8.0346 4.68844C8.49809 5.12153 8.93877 5.56982 9.40225 6.04849C9.63779 6.29163 9.88093 6.53477 10.1241 6.7855L12.1983 8.85977C13.0037 9.66516 13.0037 10.4098 12.1983 11.2152C11.978 11.4355 11.7652 11.6559 11.5449 11.8686C10.9067 12.522 10.2988 13.1299 9.63779 13.7225C9.6226 13.7377 9.6074 13.7453 9.5998 13.7605C8.94637 14.4139 9.06794 15.0522 9.2047 15.4853C9.2123 15.5081 9.2199 15.5309 9.2275 15.5536C9.76696 16.8605 10.5268 18.0914 11.6817 19.5578L11.6893 19.5654C13.7863 22.1488 15.9974 24.1622 18.4363 25.7046C18.7479 25.9022 19.067 26.0617 19.3709 26.2137C19.6444 26.3505 19.9028 26.4796 20.1231 26.6164C20.1535 26.6316 20.1839 26.6544 20.2143 26.6696C20.4726 26.7988 20.7157 26.8595 20.9665 26.8595C21.5971 26.8595 21.9922 26.4644 22.1214 26.3353L24.7199 23.7367C24.9782 23.4784 25.3885 23.1669 25.8672 23.1669C26.3383 23.1669 26.7258 23.4632 26.9613 23.7215C26.9689 23.7291 26.9689 23.7291 26.9765 23.7367L31.1631 27.9233C31.9457 28.6983 31.9457 29.4961 31.1707 30.3015Z" fill="white"/>
<path d="M19.4552 8.56343C21.4458 8.89774 23.2542 9.8399 24.6978 11.2835C26.1414 12.7272 27.076 14.5355 27.4179 16.5262C27.5015 17.0277 27.9346 17.3772 28.4284 17.3772C28.4892 17.3772 28.5424 17.3696 28.6032 17.362C29.1654 17.2708 29.5377 16.7389 29.4466 16.1767C29.0363 13.7681 27.8966 11.5723 26.1566 9.8323C24.4167 8.09235 22.2208 6.95264 19.8123 6.54235C19.25 6.45117 18.7257 6.82348 18.627 7.37814C18.5282 7.93279 18.8929 8.47225 19.4552 8.56343Z" fill="white"/>
<path d="M35.9582 15.8803C35.282 11.9141 33.4129 8.30507 30.5408 5.43301C27.6688 2.56095 24.0597 0.691833 20.0935 0.0156074C19.5389 -0.0831672 19.0146 0.296735 18.9158 0.851392C18.8246 1.41365 19.197 1.93791 19.7592 2.03669C23.2999 2.63693 26.5291 4.3161 29.0972 6.87664C31.6653 9.44478 33.3369 12.674 33.9372 16.2146C34.0207 16.7161 34.4538 17.0656 34.9477 17.0656C35.0085 17.0656 35.0617 17.058 35.1225 17.0504C35.6771 16.9668 36.057 16.435 35.9582 15.8803Z" fill="white"/>
</g>
<defs>
<clipPath id="clip0">
<rect width="36" height="36" fill="white"/>
</clipPath>
</defs>
</svg>
