<svg width="40" height="41" viewBox="0 0 40 41" fill="none" xmlns="http://www.w3.org/2000/svg">
<g clip-path="url(#clip0)">
<path d="M36.9515 33.7403C34.4064 30.5566 34.4584 30.5573 34.1963 30.4725C33.9405 30.3895 33.6481 30.4646 33.4689 30.682C32.4999 31.859 31.0606 32.5341 29.5201 32.5341C26.7231 32.5341 24.4476 30.3021 24.4476 27.5588C24.4476 24.8154 26.7232 22.5834 29.5201 22.5834C32.5094 22.5834 34.8699 25.121 34.5667 28.0663C34.5297 28.4255 34.7967 28.7461 35.1629 28.7824C35.5292 28.819 35.8561 28.5569 35.8931 28.1976C36.0926 26.2598 35.3768 24.4073 34.0195 23.0918V3.54147C34.0195 2.09943 32.8234 0.92627 31.3532 0.92627H5.44005C3.96983 0.92627 2.77374 2.09943 2.77374 3.54147V31.9817C2.77374 32.1551 2.84398 32.3214 2.96897 32.444C11.1652 40.4818 10.658 40.0087 10.7995 40.0807C11.0124 40.1889 9.78054 40.1542 30.5227 40.1542C30.8908 40.1542 31.1892 39.8615 31.1892 39.5004C31.1892 39.1393 30.8908 38.8466 30.5227 38.8466H11.7725V33.5646C11.7725 32.3313 10.7496 31.3279 9.49208 31.3279H7.27313C6.90502 31.3279 6.60656 31.6207 6.60656 31.9817C6.60656 32.3428 6.90502 32.6355 7.27313 32.6355H9.49208C10.0144 32.6355 10.4394 33.0523 10.4394 33.5646V37.9221L4.1069 31.711V3.54147C4.1069 2.82049 4.70498 2.23387 5.44005 2.23387H31.3532C32.0883 2.23387 32.6864 2.82049 32.6864 3.54147V22.1004C31.7517 21.5768 30.6714 21.2758 29.5201 21.2758C25.9879 21.2758 23.1144 24.0943 23.1144 27.5587C23.1144 30.2515 24.8508 32.5533 27.2828 33.4454L25.9306 36.1584L25.339 35.1841C25.128 34.8368 24.7569 34.6086 24.3463 34.5739L23.1876 34.476C23.3554 34.1978 23.2911 33.834 23.0247 33.6292C22.7349 33.4063 22.3159 33.4561 22.0889 33.7403C21.4601 34.5267 21.9739 35.6859 22.9888 35.7715L24.2066 35.8745L24.8319 36.9045C25.3527 37.7623 26.6402 37.712 27.0881 36.8134L28.602 33.7761C30.5464 34.0512 32.5116 33.4491 33.9465 32.1005L35.846 34.4764L34.6941 34.5739C34.2834 34.6086 33.9123 34.8367 33.7013 35.1841L33.1062 36.1642C32.9241 35.8949 32.5622 35.793 32.2583 35.9388C31.9275 36.0974 31.7905 36.4889 31.9522 36.8134C32.3995 37.7105 33.687 37.7636 34.2084 36.9046L34.8337 35.8746L36.0515 35.7716C37.0667 35.6858 37.58 34.5265 36.9515 33.7403Z" fill="#003472"/>
<path d="M21.1408 26.6191C20.7899 26.5092 20.415 26.699 20.303 27.0429C19.479 29.5728 18.9509 30.3956 18.7191 30.6583C18.437 30.2294 18.0654 29.3753 17.1709 29.2882C16.5461 29.2276 16.0722 29.5857 15.7253 29.9174C15.7341 28.9832 15.7816 27.8579 14.8483 27.5261C14.187 27.291 13.3224 27.5952 12.0454 28.5122C11.7483 28.7255 11.6838 29.1347 11.9013 29.426C12.1188 29.7174 12.5359 29.7806 12.8329 29.5673C13.7551 28.9051 14.1828 28.7823 14.3366 28.7617C14.4039 28.9779 14.3974 29.4888 14.3938 29.7782C14.3839 30.5624 14.3737 31.3733 15.091 31.6186C15.7003 31.8271 16.1486 31.3687 16.4759 31.034C16.6207 30.8859 16.9242 30.5783 17.0395 30.5895C17.1327 30.5986 17.3425 30.9485 17.4321 31.0979C17.7469 31.6229 18.0624 32.067 18.701 32.067C19.5259 32.067 20.3482 31.2019 21.5732 27.441C21.6849 27.0969 21.4915 26.729 21.1408 26.6191Z" fill="#003472"/>
<path d="M29.52 19.8416C29.8882 19.8416 30.1866 19.5488 30.1866 19.1878V10.5724C30.1866 9.66872 29.5651 8.88686 28.6752 8.67102C27.4212 8.36701 26.4335 7.39898 26.1232 6.16804C25.9033 5.29513 25.1061 4.68555 24.1848 4.68555H12.6917C11.7704 4.68555 10.9732 5.29513 10.7532 6.16804C10.4432 7.39791 9.45626 8.36668 8.20126 8.67102C7.31138 8.88686 6.68988 9.66872 6.68988 10.5724V28.2145C6.68988 28.5755 6.98834 28.8683 7.35646 28.8683C7.72457 28.8683 8.02303 28.5755 8.02303 28.2145V10.5724C8.02303 10.2714 8.22792 10.0116 8.52122 9.94037C10.2551 9.51998 11.6183 8.18419 12.0473 6.48186C12.1199 6.19411 12.3849 5.99314 12.6917 5.99314H24.1848C24.4916 5.99314 24.7566 6.19411 24.8292 6.48178C25.2578 8.18239 26.6197 9.51949 28.3553 9.94029C28.6487 10.0115 28.8535 10.2714 28.8535 10.5723V19.1877C28.8535 19.5488 29.1519 19.8416 29.52 19.8416Z" fill="#003472"/>
<path d="M14.5035 35.0874C14.1354 35.0874 13.8369 35.3801 13.8369 35.7412C13.8369 36.1023 14.1354 36.395 14.5035 36.395H19.5136C19.8817 36.395 20.1801 36.1023 20.1801 35.7412C20.1801 35.3801 19.8817 35.0874 19.5136 35.0874H14.5035Z" fill="#003472"/>
<path d="M13.5224 11.1421C13.1542 11.1421 12.8558 11.4348 12.8558 11.7959C12.8558 12.1569 13.1542 12.4497 13.5224 12.4497H23.3544C23.7225 12.4497 24.0209 12.1569 24.0209 11.7959C24.0209 11.4348 23.7225 11.1421 23.3544 11.1421H13.5224Z" fill="#003472"/>
<path d="M25.354 17.7617C25.354 17.4006 25.0555 17.1079 24.6874 17.1079H12.1891C11.821 17.1079 11.5225 17.4006 11.5225 17.7617C11.5225 18.1228 11.821 18.4155 12.1891 18.4155H24.6874C25.0556 18.4155 25.354 18.1228 25.354 17.7617Z" fill="#003472"/>
<path d="M19.6881 24.5449C20.0562 24.5449 20.3547 24.2522 20.3547 23.8911C20.3547 23.53 20.0562 23.2373 19.6881 23.2373H12.1891C11.821 23.2373 11.5225 23.53 11.5225 23.8911C11.5225 24.2522 11.821 24.5449 12.1891 24.5449H19.6881Z" fill="#003472"/>
</g>
<defs>
<clipPath id="clip0">
<rect width="40" height="39.2332" fill="white" transform="translate(0 0.92627)"/>
</clipPath>
</defs>
</svg>
