<svg width="49" height="48" viewBox="0 0 49 48" fill="none" xmlns="http://www.w3.org/2000/svg">
<g clip-path="url(#clip0)">
<path d="M42.9247 24.6991V1.46448C42.9247 0.655151 42.2652 0 41.4505 0C40.1802 0 2.25527 0 1.47415 0C0.659478 0 0 0.655151 0 1.46448V36.9034C0 37.712 0.659478 38.3679 1.47415 38.3679H22.6784C24.139 43.9036 29.2187 48 35.2435 48C42.4049 48 48.2315 42.2117 48.2315 35.0973C48.2315 30.835 46.1413 27.0498 42.9247 24.6991ZM17.8818 2.92896H25.0428V13.0598L22.2549 11.2936C21.7716 10.9882 21.1534 10.9871 20.6698 11.2936L17.8818 13.0598V2.92896ZM22.2589 35.439H2.9483V2.92896H14.9335V15.7299C14.9335 16.8845 16.2208 17.5865 17.2006 16.9647L21.4627 14.2654L25.7241 16.9647C26.6983 17.5825 27.9911 16.8918 27.9911 15.7299V2.92896H39.9764V23.0804C38.5092 22.5081 36.9123 22.1938 35.2435 22.1938C28.2046 22.1938 22.1285 27.8628 22.2589 35.439ZM35.2435 45.071C29.7993 45.071 25.3868 40.7542 25.2091 35.439C25.0137 29.8129 29.5692 25.1228 35.2435 25.1228C40.7748 25.1228 45.2832 29.5942 45.2832 35.0973C45.2832 40.5967 40.7793 45.071 35.2435 45.071V45.071Z" fill="white"/>
<path d="M41.8557 31.1334C41.0373 30.928 42.0105 31.1719 38.8318 30.3776L37.2084 27.7837C36.299 26.3317 34.1816 26.3412 33.2784 27.7837L31.6557 30.3776L28.6318 31.1334C26.9601 31.5494 26.3202 33.5698 27.4449 34.8636C27.8411 35.3192 29.1004 36.7676 29.438 37.1569C29.3142 38.7535 29.3669 38.0702 29.1992 40.2488C29.0934 41.6268 30.2033 42.7247 31.5016 42.7247C32.1121 42.7247 32.1733 42.6394 35.2439 41.347L38.078 42.5402C39.6745 43.214 41.4214 41.9641 41.2876 40.248C41.1199 38.0713 41.1726 38.7532 41.0488 37.1569C41.4624 36.6804 42.6704 35.2918 43.0419 34.8636C44.1622 33.575 43.5333 31.5531 41.8557 31.1334V31.1334ZM38.5771 35.5228C38.2501 35.9377 38.0732 36.46 38.0831 36.9869C38.0831 37.0748 38.0739 36.9294 38.2686 39.4395L36.146 38.5463C35.5691 38.3005 34.8941 38.3104 34.3408 38.5463L32.219 39.4395C32.4044 37.051 32.4037 37.0811 32.4037 36.9869C32.4136 36.46 32.2378 35.9377 31.9093 35.5228C31.8489 35.4463 31.9171 35.5272 30.3489 33.7244L32.6237 33.156C33.2087 33.0099 33.706 32.6495 34.0242 32.1398L35.2439 30.1912L36.4623 32.1398C36.7808 32.6484 37.278 33.0099 37.8638 33.156C40.2614 33.7555 39.923 33.6709 40.1379 33.7244C39.412 34.5597 38.6383 35.4456 38.5771 35.5228V35.5228Z" fill="white"/>
</g>
<defs>
<clipPath id="clip0">
<rect width="48.317" height="48" fill="white"/>
</clipPath>
</defs>
</svg>
