<svg width="36" height="37" viewBox="0 0 36 37" fill="none" xmlns="http://www.w3.org/2000/svg">
<g clip-path="url(#clip0)">
<path d="M34.7708 4.73561C34.7374 4.74697 31.269 5.78047 28.0229 5.78047C26.2368 5.78047 24.8983 5.47428 24.0432 4.8696C22.8593 4.0332 21.1473 3.60889 18.9556 3.60889C15.4284 3.60889 11.8025 4.69017 11.6497 4.73561L10.9804 4.9373V20.72L12.224 20.3202C12.2523 20.3111 15.1426 19.3971 18.3803 19.3971C20.2285 19.3971 21.8135 19.6942 23.0882 20.2794C24.6177 20.9799 26.4705 21.3361 28.6011 21.3361C32.1371 21.3361 35.2172 20.362 35.347 20.3202L36 20.1112V4.3653L34.7708 4.73561ZM34.1018 18.7356C33.0643 19.0046 30.9207 19.4752 28.5992 19.4752C26.751 19.4752 25.1661 19.179 23.8913 18.5938C22.3619 17.8928 20.5081 17.5362 18.3784 17.5362C16.1588 17.5362 14.119 17.9196 12.8758 18.2158V6.33294C14.0462 6.03352 16.5665 5.46977 18.9538 5.46977C20.7398 5.46977 22.0794 5.77596 22.9335 6.38064C24.1175 7.21704 25.8294 7.64135 28.0212 7.64135C30.3445 7.64135 32.7124 7.1716 34.1001 6.83949V18.7356H34.1018Z" fill="#003472"/>
<path d="M8.8933 4.54333C9.37223 4.15263 9.68345 3.57021 9.68345 2.91145C9.68345 1.73431 8.71027 0.779785 7.50925 0.779785C6.30919 0.779785 5.33593 1.73431 5.33593 2.91145C5.33593 3.57114 5.64811 4.15349 6.12704 4.54426V31.9873H0V36.0579H32.2528V31.9873H8.8933V4.54333Z" fill="#003472"/>
</g>
<defs>
<clipPath id="clip0">
<rect width="36" height="35.3099" fill="white" transform="translate(0 0.763672)"/>
</clipPath>
</defs>
</svg>
