<svg width="46" height="46" viewBox="0 0 46 46" fill="none" xmlns="http://www.w3.org/2000/svg">
<g clip-path="url(#clip0)">
<path d="M17.6094 23.3594C18.1053 23.3594 18.5078 23.7619 18.5078 24.2578C18.5078 24.7537 18.1053 25.1562 17.6094 25.1562C17.1135 25.1562 16.7109 24.7537 16.7109 24.2578C16.7109 23.7619 17.1135 23.3594 17.6094 23.3594Z" fill="#002047"/>
<path d="M36.8202 33.2229L45.8046 44.5432C46.019 44.8131 46.0598 45.1819 45.9099 45.4922C45.76 45.8028 45.4456 46 45.101 46H0.897835C0.5532 46 0.238747 45.8028 0.0888901 45.4922C-0.0613174 45.1819 -0.020256 44.8131 0.194176 44.5432L9.17855 33.2229C9.34876 33.0081 9.60811 32.8828 9.88221 32.8828H17.7523L11.0333 22.3444C9.4572 19.9815 8.6244 17.2258 8.6244 14.375C8.6244 6.44875 15.0728 0 22.9994 0C30.926 0 37.3744 6.44875 37.3744 14.375C37.3744 17.2258 36.5416 19.9811 34.9655 22.3444L28.2465 32.8828H36.1166C36.3907 32.8828 36.6497 33.0081 36.8202 33.2229ZM40.1746 40.3398H34.7422L37.8082 44.2031H43.2409L40.1746 40.3398ZM27.1006 34.6797L24.6376 38.543H31.0222L27.9559 34.6797H27.1006ZM18.8978 34.6797H18.0425L14.9766 38.543H21.3608L18.8978 34.6797ZM13.5504 40.3398L10.4844 44.2031H35.5143L32.4481 40.3398H13.5504ZM8.19027 44.2031L11.2565 40.3398H5.8238L2.75788 44.2031H8.19027ZM7.25007 38.543H12.6825L15.7487 34.6797H10.316L7.25007 38.543ZM33.4655 21.3547C34.8472 19.2862 35.5775 16.8727 35.5775 14.375C35.5775 7.43948 29.9349 1.79688 22.9994 1.79688C16.0639 1.79688 10.4213 7.43948 10.4213 14.375C10.4213 16.8727 11.1516 19.2862 12.5329 21.3547C12.5368 21.36 12.54 21.3653 12.5435 21.3705C13.1334 22.296 22.5449 37.0577 22.9994 37.7702C24.1424 35.9772 32.2912 23.1962 33.4553 21.3705C33.4585 21.3653 33.462 21.36 33.4655 21.3547ZM30.2501 34.6797L33.316 38.543H38.7487L35.6825 34.6797H30.2501Z" fill="#003472"/>
<path d="M23 23.3594C18.0677 23.3594 14.0156 19.3652 14.0156 14.375C14.0156 9.42096 18.046 5.39062 23 5.39062C27.954 5.39062 31.9844 9.42096 31.9844 14.375C31.9844 19.3666 27.9309 23.3594 23 23.3594ZM23 7.1875C19.0367 7.1875 15.8125 10.4117 15.8125 14.375C15.8125 18.3752 19.0627 21.5625 23 21.5625C26.9384 21.5625 30.1875 18.3752 30.1875 14.375C30.1875 10.4117 26.9633 7.1875 23 7.1875Z" fill="#002047"/>
<path d="M19.2157 26.4253C19.6404 26.1691 20.1928 26.3059 20.449 26.731L23.7697 32.2402C24.0259 32.6652 23.889 33.2172 23.464 33.4734C23.0372 33.7307 22.4859 33.591 22.2307 33.1678L18.91 27.6585C18.6538 27.2335 18.7907 26.6815 19.2157 26.4253Z" fill="#002047"/>
</g>
<defs>
<clipPath id="clip0">
<rect width="46" height="46" fill="white" transform="matrix(-1 0 0 1 46 0)"/>
</clipPath>
</defs>
</svg>
