<svg width="51" height="49" viewBox="0 0 51 49" fill="none" xmlns="http://www.w3.org/2000/svg">
<g clip-path="url(#clip0)">
<path d="M25.186 9.75659C25.7293 9.75659 26.1698 9.32803 26.1698 8.79956V3.92444C26.1698 3.39597 25.7294 2.96741 25.186 2.96741C24.6426 2.96741 24.2021 3.39587 24.2021 3.92444V8.79956C24.2022 9.32803 24.6427 9.75659 25.186 9.75659Z" fill="white"/>
<path d="M17.7891 11.3287C17.9762 11.6175 18.2956 11.7756 18.6224 11.7756C18.8016 11.7756 18.9831 11.7279 19.146 11.6281C19.6056 11.3463 19.7434 10.7554 19.4537 10.3082L16.8324 6.26231C16.5426 5.81518 15.9351 5.6811 15.4755 5.96295C15.0159 6.2447 14.8781 6.83566 15.1678 7.28288L17.7891 11.3287Z" fill="white"/>
<path d="M31.2293 11.6283C31.3921 11.7279 31.5735 11.7755 31.7525 11.7755C32.0794 11.7755 32.399 11.6172 32.586 11.3283L35.2046 7.28243C35.4941 6.83511 35.3561 6.24434 34.8962 5.96259C34.4362 5.68112 33.829 5.81549 33.5395 6.26261L30.9209 10.3085C30.6314 10.7559 30.7696 11.3466 31.2293 11.6283V11.6283Z" fill="white"/>
<path d="M50.0558 25.4984L48.3464 22.5608C48.0786 22.1007 47.4783 21.9389 47.0057 22.1994C46.5328 22.4598 46.3665 23.0437 46.6342 23.5036L48.3429 26.4399C48.4285 26.5875 48.4062 26.7298 48.3854 26.8015C48.3653 26.8705 48.31 26.9979 48.1654 27.0756L45.5308 28.4952C45.2968 28.6209 44.9913 28.5415 44.8637 28.3225L44.1944 27.1708C44.1916 27.1656 44.1885 27.1609 44.1856 27.1558L37.2662 15.2509C37.1807 15.1044 37.2024 14.9639 37.2228 14.8932C37.2426 14.8247 37.2975 14.6983 37.4421 14.6205L40.0798 13.2006C40.3168 13.073 40.6148 13.1505 40.7444 13.3739L42.2865 16.0242C42.5542 16.4842 43.1546 16.6459 43.6273 16.3856C44.1002 16.1253 44.2665 15.5414 43.9989 15.0814L42.4575 12.4322C41.8001 11.2985 40.3064 10.8919 39.1275 11.5257L36.4899 12.9456C35.9192 13.2524 35.5069 13.7596 35.329 14.3739C35.1612 14.9531 35.2212 15.5577 35.496 16.0884L34.043 16.498C33.4241 16.6722 33.0484 16.7666 32.84 16.7666C32.8391 16.7666 32.8383 16.7666 32.8375 16.7666C32.694 16.7662 32.5374 16.7129 32.0907 16.5482C31.888 16.4736 31.6356 16.3806 31.3254 16.2753L28.7512 15.3999C27.3275 14.9162 26.6853 14.9423 25.755 15.0248L21.3654 15.407C19.3644 15.5794 18.0886 16.0185 17.3844 16.78L14.8829 16.075C15.152 15.5466 15.2098 14.9478 15.0435 14.3739C14.8656 13.7599 14.4536 13.2529 13.8835 12.9461L11.2473 11.5256C10.0675 10.8911 8.57295 11.298 7.91544 12.4314L0.319737 25.4971C-0.00542546 26.054 -0.0859043 26.7017 0.0933529 27.321C0.27143 27.936 0.683662 28.4436 1.25331 28.75L3.88943 30.1703C4.26635 30.373 4.67582 30.4693 5.07989 30.4693C5.9383 30.4693 6.7728 30.0349 7.22134 29.2646L7.49986 28.7853C8.25998 29.1108 8.89821 29.5837 9.33317 30.1435C8.90834 30.6265 8.64073 31.2224 8.56567 31.8706C8.46649 32.7278 8.71541 33.5689 9.26656 34.2393C9.81299 34.9039 10.5944 35.3233 11.4681 35.4221C11.3756 36.272 11.6255 37.1048 12.1725 37.7677C12.7378 38.4553 13.5368 38.8564 14.3725 38.951C14.2804 39.7997 14.5295 40.6317 15.0747 41.2951C15.6208 41.9612 16.4024 42.3814 17.2771 42.4802C17.1845 43.3308 17.4344 44.1641 17.9813 44.8271C18.6332 45.6199 19.5956 46.0327 20.5671 46.0326C21.2924 46.0326 22.0228 45.8025 22.6326 45.3288L24.6926 43.7254C24.8562 43.5984 25.0049 43.458 25.1386 43.3067L26.3153 44.2211C26.9238 44.6935 27.6525 44.923 28.3768 44.9229C29.3489 44.9228 30.3129 44.5095 30.9656 43.716C31.3097 43.2976 31.5275 42.82 31.6259 42.327C31.9699 42.4428 32.3332 42.5026 32.7035 42.5026C32.8277 42.5026 32.9526 42.4959 33.078 42.4824C33.9595 42.3871 34.7477 41.9655 35.2955 41.2973C35.8434 40.6333 36.0933 39.8006 36.0009 38.9507C36.8361 38.8559 37.6354 38.4549 38.2024 37.7676C38.7672 37.0808 38.9938 36.2351 38.9051 35.4219C39.7784 35.3229 40.5593 34.9036 41.1045 34.2405C41.656 33.5719 41.906 32.7321 41.8083 31.8756C41.7342 31.2254 41.4664 30.6274 41.0407 30.1432C41.4744 29.5835 42.1114 29.11 42.872 28.7848L43.1511 29.265C43.5993 30.035 44.4334 30.4692 45.292 30.4692C45.6963 30.4691 46.1062 30.3728 46.4835 30.17L49.1181 28.7503C49.6876 28.444 50.0996 27.9372 50.2784 27.3233C50.4586 26.7045 50.3798 26.0568 50.0558 25.4984V25.4984ZM5.50885 28.322C5.38095 28.5418 5.07527 28.621 4.84219 28.4955L2.20617 27.0753C2.06223 26.9978 2.00733 26.8709 1.98726 26.8021C1.9667 26.7308 1.94476 26.5892 2.03153 26.4409L9.62842 13.3726C9.71539 13.2227 9.8793 13.1386 10.0495 13.1386C10.1323 13.1386 10.2166 13.1584 10.2943 13.2003L12.9296 14.6203C12.9299 14.6205 12.9302 14.6207 12.9305 14.6208C13.0747 14.6984 13.1295 14.8248 13.1494 14.8933C13.1699 14.964 13.1915 15.1045 13.105 15.2526L5.50885 28.322ZM12.6884 33.2469C12.4109 33.4631 12.0606 33.5608 11.7026 33.5221C11.3443 33.4834 11.0251 33.3136 10.8033 33.0439C10.5811 32.7736 10.4809 32.4329 10.5212 32.0847C10.5612 31.738 10.7358 31.4289 11.0147 31.2131L14.698 28.3491C15.2761 27.9002 16.1223 27.9925 16.5843 28.5538C16.8065 28.824 16.9067 29.1641 16.8666 29.5112C16.8266 29.8572 16.6519 30.1659 16.3747 30.3805C16.3686 30.3852 16.3634 30.3905 16.3575 30.3953L12.6893 33.2462C12.689 33.2464 12.6887 33.2467 12.6884 33.2469V33.2469ZM13.708 36.5711C13.486 36.3019 13.3856 35.9626 13.4253 35.6158C13.4649 35.2686 13.6398 34.9582 13.9174 34.7416L13.9177 34.7414C13.9179 34.7413 13.9181 34.7411 13.9183 34.741C13.9184 34.741 13.9184 34.7409 13.9185 34.7408L19.224 30.6176C19.802 30.1685 20.6484 30.2602 21.1103 30.8223C21.3322 31.0921 21.4324 31.4318 21.3928 31.7788C21.353 32.1262 21.1777 32.4367 20.8994 32.653L15.5953 36.7747C15.0166 37.2239 14.1705 37.1333 13.708 36.5711V36.5711ZM17.5114 40.5801C17.1533 40.5414 16.8343 40.3714 16.6123 40.1006C16.3904 39.8308 16.2902 39.4911 16.3298 39.144C16.3696 38.7969 16.5446 38.4868 16.8225 38.2705C16.8227 38.2703 16.823 38.2701 16.8232 38.2699L20.4947 35.4168C20.4991 35.4135 20.5038 35.4108 20.5081 35.4074C21.0846 34.9585 21.9308 35.0499 22.3932 35.6105C22.6154 35.8808 22.7157 36.2215 22.6754 36.5696C22.6353 36.9164 22.4607 37.2254 22.1819 37.4412L18.4987 40.3051C18.2204 40.5213 17.8696 40.6185 17.5114 40.5801V40.5801ZM23.9574 41.357C23.9175 41.7041 23.7427 42.0139 23.4643 42.2302L21.4042 43.8339C20.8254 44.2832 19.9793 44.1928 19.5171 43.6304C19.295 43.3614 19.1946 43.0218 19.2342 42.6743C19.2739 42.3268 19.4485 42.0169 19.7257 41.8015C19.726 41.8013 19.7263 41.801 19.7266 41.8009L21.7862 40.1994C21.7873 40.1985 21.7885 40.1978 21.7896 40.1971C22.3678 39.7482 23.214 39.8402 23.676 40.4018C23.8973 40.6711 23.9973 41.0102 23.9574 41.357V41.357ZM39.5689 33.0438C39.3471 33.3135 39.0278 33.4834 38.6697 33.5221C38.3118 33.5612 37.9613 33.4632 37.6838 33.2469C37.6837 33.2468 37.6836 33.2467 37.6834 33.2466C37.6833 33.2465 37.6831 33.2464 37.683 33.2463L35.0504 31.2003C34.6257 30.8703 34.0067 30.9377 33.6677 31.3506C33.3285 31.7634 33.3977 32.3657 33.8221 32.6956L36.4538 34.7409C37.0312 35.1906 37.1263 36.0122 36.6668 36.571C36.2033 37.1329 35.357 37.2243 34.7793 36.7742L31.9237 34.5576C31.4991 34.228 30.88 34.2956 30.5411 34.7087C30.2023 35.1217 30.2717 35.7239 30.6965 36.0536L33.5507 38.2692C33.8288 38.4859 34.0039 38.7965 34.0436 39.144C34.0833 39.4909 33.9829 39.8302 33.759 40.1016C33.5377 40.3714 33.2187 40.5413 32.8607 40.5801C32.5023 40.6184 32.1516 40.5211 31.8743 40.3059L30.4534 39.2005C30.451 39.1986 30.4488 39.1966 30.4464 39.1947L29.2459 38.2611L29.0215 38.0865C28.5969 37.7563 27.9779 37.8234 27.6387 38.2361C27.5963 38.2878 27.5601 38.3423 27.5304 38.399C27.388 38.6698 27.3903 38.9875 27.524 39.2538C27.5859 39.3772 27.6751 39.4898 27.7925 39.5812L29.2212 40.6926C29.7947 41.1431 29.8884 41.9618 29.4293 42.5203C28.9671 43.0821 28.1208 43.1739 27.543 42.7255L25.9221 41.4659C25.9896 40.6468 25.7401 39.8479 25.2124 39.2061C24.8844 38.8073 24.4775 38.5052 24.0308 38.3026C24.3582 37.8608 24.5661 37.3417 24.6306 36.7835C24.7298 35.9264 24.4809 35.0854 23.9288 34.4138C23.6006 34.0161 23.1943 33.7147 22.7484 33.5126C23.0764 33.0694 23.2843 32.5492 23.3483 31.9903C23.4462 31.1351 23.1971 30.2957 22.6469 29.6265C21.7002 28.4752 20.0993 28.1252 18.7669 28.6753C18.6602 28.1989 18.4423 27.7494 18.1206 27.3581C16.9815 25.9735 14.8956 25.7469 13.4699 26.8535L10.8355 28.9018C10.2398 28.1623 9.42998 27.549 8.4725 27.1117L13.8914 17.7882L16.7767 18.6014C16.7899 18.7515 16.8148 18.9094 16.8567 19.0767C17.5551 21.8701 20.1991 23.1717 23.757 22.4743C26.7548 21.8875 27.9889 22.7616 30.4469 24.5027C30.7019 24.6833 30.9668 24.871 31.2442 25.0642C33.0118 26.2978 34.9008 27.7478 36.1673 28.7306L39.3609 31.2133C39.6384 31.4286 39.813 31.7387 39.8526 32.0865C39.8923 32.434 39.7919 32.7736 39.5689 33.0438V33.0438ZM39.5383 28.9012L37.3952 27.2351C36.1112 26.2388 34.1955 24.7685 32.3906 23.5088C32.1171 23.3183 31.8563 23.1335 31.6052 22.9557C29.0565 21.1502 27.2144 19.8458 23.3688 20.5981C22.1917 20.8289 19.3873 21.0986 18.7688 18.6249C18.6816 18.2757 18.7701 18.1557 18.8078 18.1045C18.9394 17.9261 19.4687 17.4919 21.5396 17.3135L25.9337 16.931C26.6498 16.8674 27.009 16.8354 28.1018 17.2068L30.6764 18.0823C30.9626 18.1795 31.1914 18.2637 31.3934 18.3382C32.6331 18.795 32.9616 18.7949 34.5901 18.3364L36.4882 17.8014L41.8998 27.1122C40.9421 27.5493 40.133 28.1621 39.5383 28.9012Z" fill="white"/>
<path d="M45.3131 20.2507C45.8564 20.2507 46.2969 19.8208 46.2969 19.2922C46.2969 18.7637 45.8564 18.3352 45.3131 18.3352C44.7698 18.3352 44.3292 18.7638 44.3292 19.2922V19.2949C44.3292 19.8235 44.7698 20.2507 45.3131 20.2507Z" fill="white"/>
</g>
<defs>
<clipPath id="clip0">
<rect width="50.373" height="49" fill="white"/>
</clipPath>
</defs>
</svg>
