<svg width="40" height="40" viewBox="0 0 40 40" fill="none" xmlns="http://www.w3.org/2000/svg">
<path d="M38.0645 20.6452H33.5484V17.4194C33.5484 16.3523 32.68 15.4839 31.6129 15.4839H30.9677V0H8.76516L0 8.76516V40H14.8387H17.4194H38.0645C39.1316 40 40 39.1316 40 38.0645V22.5806C40 21.5135 39.1316 20.6452 38.0645 20.6452ZM33.5484 21.9355H38.0645C38.2684 21.9355 38.4426 22.0361 38.5606 22.1839L35.0471 30.9677H29.0323V29.6774H23.871V30.9677H17.8561L14.3426 22.1839C14.4606 22.0361 14.6348 21.9355 14.8387 21.9355H19.3548H21.9355H30.9677H33.5484ZM27.7419 30.9677V32.2581H25.1613V30.9677H27.7419ZM23.2258 20.6452V19.3548H29.6774V20.6452H23.2258ZM31.6129 16.7742C31.969 16.7742 32.2581 17.0632 32.2581 17.4194V20.6452H30.9677V18.0645H21.9355V20.6452H20.6452V17.4194C20.6452 17.0632 20.9342 16.7742 21.2903 16.7742H31.6129ZM8.3871 2.20258V8.3871H2.20258L8.3871 2.20258ZM13.0219 38.7097H1.29032V9.67742H2.58065V14.1935H27.0968V8.91355C27.8458 8.64645 28.3871 7.93677 28.3871 7.09677C28.3871 6.59935 28.1929 6.14968 27.8839 5.80645C28.1929 5.46323 28.3871 5.01355 28.3871 4.51613C28.3871 3.44903 27.5187 2.58065 26.4516 2.58065H23.2258V5.16129V6.45161V9.03226H25.8064V12.9032H3.87097V9.67742H9.67742V1.29032H29.6774V15.4839H21.2903C20.2232 15.4839 19.3548 16.3523 19.3548 17.4194V20.6452H14.8387C13.7716 20.6452 12.9032 21.5135 12.9032 22.5806V38.0645C12.9032 38.2916 12.9497 38.5071 13.0219 38.7097ZM26.4516 6.45161C26.8077 6.45161 27.0968 6.74064 27.0968 7.09677C27.0968 7.4529 26.8077 7.74194 26.4516 7.74194H24.5161V6.45161H26.4516ZM24.5161 5.16129V3.87097H26.4516C26.8077 3.87097 27.0968 4.16 27.0968 4.51613C27.0968 4.87226 26.8077 5.16129 26.4516 5.16129H24.5161ZM38.7097 38.0645C38.7097 38.4206 38.4206 38.7097 38.0645 38.7097H17.4194H14.8387C14.4826 38.7097 14.1935 38.4206 14.1935 38.0645V25.2858L16.9826 32.2581H23.871V33.5484H29.0323V32.2581H35.9206L38.7097 25.2858V38.0645Z" fill="white"/>
<path d="M3.87095 15.4834H2.58063V16.7737H3.87095V15.4834Z" fill="white"/>
<path d="M18.0645 15.4834H5.16132V16.7737H18.0645V15.4834Z" fill="white"/>
<path d="M18.0645 18.0645H2.58063V19.3548H18.0645V18.0645Z" fill="white"/>
<path d="M11.6129 20.6455H2.58063V21.9358H11.6129V20.6455Z" fill="white"/>
<path d="M11.6129 23.2256H2.58063V24.5159H11.6129V23.2256Z" fill="white"/>
<path d="M11.6129 25.8066H2.58063V27.097H11.6129V25.8066Z" fill="white"/>
<path d="M11.6129 28.3867H6.4516V29.677H11.6129V28.3867Z" fill="white"/>
<path d="M5.16127 28.3867H2.58063V29.677H5.16127V28.3867Z" fill="white"/>
<path d="M11.6129 30.9678H2.58063V32.2581H11.6129V30.9678Z" fill="white"/>
<path d="M11.6129 33.5488H2.58063V34.8392H11.6129V33.5488Z" fill="white"/>
<path d="M9.03224 36.1289H2.58063V37.4192H9.03224V36.1289Z" fill="white"/>
<path d="M11.6129 36.1289H10.3226V37.4192H11.6129V36.1289Z" fill="white"/>
<path d="M11.6129 3.87138H12.9032V7.09718C12.9032 7.45331 12.6142 7.74234 12.2581 7.74234C11.9019 7.74234 11.6129 7.45331 11.6129 7.09718V6.45202H10.3226V7.09718C10.3226 8.16428 11.191 9.03267 12.2581 9.03267C13.3252 9.03267 14.1935 8.16428 14.1935 7.09718V3.87138H15.4839V2.58105H11.6129V3.87138Z" fill="white"/>
<path d="M19.3548 2.58105C17.9316 2.58105 16.7742 3.73847 16.7742 5.1617V6.45202C16.7742 7.87525 17.9316 9.03267 19.3548 9.03267C20.778 9.03267 21.9355 7.87525 21.9355 6.45202V5.1617C21.9355 3.73847 20.778 2.58105 19.3548 2.58105ZM20.6451 6.45202C20.6451 7.16364 20.0664 7.74234 19.3548 7.74234C18.6432 7.74234 18.0645 7.16364 18.0645 6.45202V5.1617C18.0645 4.45009 18.6432 3.87138 19.3548 3.87138C20.0664 3.87138 20.6451 4.45009 20.6451 5.1617V6.45202Z" fill="white"/>
</svg>
