<svg width="41" height="41" viewBox="0 0 41 41" fill="none" xmlns="http://www.w3.org/2000/svg">
<path d="M3.07947 33.5962C3.08015 34.1694 3.30816 34.719 3.71348 35.1243C4.11881 35.5296 4.66836 35.7577 5.24158 35.7583H35.7584C36.3316 35.7577 36.8812 35.5296 37.2865 35.1243C37.6918 34.719 37.9198 34.1694 37.9205 33.5962V19.1668C37.9205 19.1626 37.9205 19.1588 37.9205 19.1546V16.5921C37.9205 16.5879 37.9205 16.5838 37.9205 16.5796V14.3195C37.9199 13.7462 37.6919 13.1967 37.2866 12.7913C36.8812 12.386 36.3316 12.158 35.7584 12.1574H26.9863V6.92188C26.9858 6.47603 26.8085 6.0486 26.4932 5.73334C26.178 5.41808 25.7505 5.24074 25.3047 5.24023H15.6953C15.2495 5.24074 14.822 5.41808 14.5068 5.73334C14.1915 6.0486 14.0142 6.47603 14.0137 6.92188V12.1574H5.24158C4.66833 12.158 4.11874 12.386 3.71339 12.7913C3.30804 13.1967 3.08006 13.7462 3.07947 14.3195V16.5796V16.5921V19.1546V19.1668V33.5962ZM29.6359 17.1527V18.5941H11.3637V17.1527H29.6359ZM36.7994 17.1527V18.5941H34.0768V17.1527H36.7994ZM32.9557 16.7363V19.0076C32.9557 19.2991 32.8398 19.5788 32.6337 19.7849C32.4275 19.9911 32.1479 20.1069 31.8564 20.1069C31.5648 20.1069 31.2852 19.9911 31.079 19.7849C30.8729 19.5788 30.757 19.2991 30.757 19.0076V16.7363C30.757 16.4447 30.8729 16.1651 31.079 15.9589C31.2852 15.7528 31.5648 15.6369 31.8564 15.6369C32.1479 15.6369 32.4275 15.7528 32.6337 15.9589C32.8398 16.1651 32.9557 16.4447 32.9557 16.7363ZM10.2426 16.7363V19.0076C10.2451 19.1535 10.2185 19.2985 10.1644 19.434C10.1103 19.5695 10.0297 19.6929 9.9274 19.797C9.82509 19.9011 9.70308 19.9838 9.56848 20.0402C9.43389 20.0966 9.28941 20.1257 9.14347 20.1257C8.99752 20.1257 8.85304 20.0966 8.71845 20.0402C8.58385 19.9838 8.46184 19.9011 8.35953 19.797C8.25722 19.6929 8.17665 19.5695 8.12253 19.434C8.06841 19.2985 8.04182 19.1535 8.04431 19.0076V16.7363C8.04182 16.5903 8.06841 16.4454 8.12253 16.3098C8.17665 16.1743 8.25722 16.0509 8.35953 15.9468C8.46184 15.8427 8.58385 15.7601 8.71845 15.7037C8.85304 15.6472 8.99752 15.6182 9.14347 15.6182C9.28941 15.6182 9.43389 15.6472 9.56848 15.7037C9.70308 15.7601 9.82509 15.8427 9.9274 15.9468C10.0297 16.0509 10.1103 16.1743 10.1644 16.3098C10.2185 16.4454 10.2451 16.5903 10.2426 16.7363ZM6.92322 18.5941H4.20056V17.1527H6.92322V18.5941ZM35.7584 34.6372H5.24158C4.96559 34.6369 4.701 34.5271 4.50584 34.332C4.31069 34.1368 4.2009 33.8722 4.20056 33.5962V19.7152H7.04077C7.18859 20.1558 7.47109 20.5389 7.84838 20.8103C8.22568 21.0816 8.6787 21.2276 9.14347 21.2276C9.60823 21.2276 10.0613 21.0816 10.4385 20.8103C10.8158 20.5389 11.0983 20.1558 11.2462 19.7152H29.7538C29.9016 20.1558 30.1841 20.5389 30.5614 20.8103C30.9387 21.0816 31.3917 21.2276 31.8565 21.2276C32.3213 21.2276 32.7743 21.0816 33.1516 20.8103C33.5289 20.5389 33.8114 20.1558 33.9592 19.7152H36.7994V33.5962C36.7991 33.8722 36.6893 34.1368 36.4941 34.332C36.299 34.5271 36.0344 34.6369 35.7584 34.6372ZM15.1348 6.92188C15.1349 6.77326 15.194 6.63078 15.2991 6.5257C15.4042 6.42061 15.5467 6.3615 15.6953 6.36133H25.3047C25.4533 6.3615 25.5958 6.42061 25.7009 6.5257C25.8059 6.63078 25.8651 6.77326 25.8652 6.92188V12.1574H24.7441V8.04297C24.744 7.89433 24.685 7.7518 24.5799 7.6467C24.4748 7.54159 24.3322 7.48251 24.1836 7.48242H16.8164C16.6678 7.48251 16.5252 7.54159 16.4201 7.6467C16.315 7.7518 16.2559 7.89433 16.2558 8.04297V12.1574H15.1348V6.92188ZM23.623 12.1574H17.3769V8.60352H23.623V12.1574ZM5.24158 13.2785H35.7584C36.0344 13.2788 36.299 13.3886 36.4941 13.5838C36.6893 13.7789 36.7991 14.0435 36.7994 14.3195V16.0316H33.9602C33.8129 15.5901 33.5304 15.2062 33.1529 14.9342C32.7753 14.6621 32.3217 14.5157 31.8564 14.5157C31.391 14.5157 30.9374 14.6621 30.5598 14.9342C30.1823 15.2062 29.8998 15.5901 29.7525 16.0316H11.2474C11.1001 15.5901 10.8177 15.2062 10.4401 14.9342C10.0626 14.6621 9.60899 14.5157 9.14363 14.5157C8.67826 14.5157 8.22468 14.6621 7.84711 14.9342C7.46954 15.2062 7.18711 15.5901 7.03981 16.0316H4.20056V14.3195C4.2009 14.0435 4.31069 13.7789 4.50584 13.5838C4.701 13.3886 4.96559 13.2788 5.24158 13.2785Z" fill="#003472"/>
<path d="M20.5 21.0532C19.289 21.0532 18.1053 21.4123 17.0985 22.085C16.0917 22.7578 15.3069 23.714 14.8435 24.8327C14.3802 25.9514 14.2589 27.1825 14.4951 28.3701C14.7314 29.5577 15.3145 30.6487 16.1707 31.5049C17.027 32.3611 18.1179 32.9443 19.3055 33.1805C20.4932 33.4167 21.7242 33.2955 22.8429 32.8321C23.9616 32.3687 24.9178 31.584 25.5906 30.5771C26.2633 29.5703 26.6224 28.3866 26.6224 27.1757C26.6206 25.5525 25.975 23.9962 24.8272 22.8484C23.6794 21.7006 22.1232 21.055 20.5 21.0532ZM20.5 32.177C19.5108 32.177 18.5438 31.8837 17.7213 31.3342C16.8989 30.7846 16.2578 30.0035 15.8793 29.0896C15.5008 28.1757 15.4017 27.1701 15.5947 26.2C15.7877 25.2298 16.264 24.3386 16.9635 23.6392C17.6629 22.9397 18.5541 22.4634 19.5242 22.2704C20.4944 22.0774 21.5 22.1765 22.4139 22.555C23.3278 22.9336 24.1089 23.5746 24.6584 24.3971C25.208 25.2195 25.5013 26.1865 25.5013 27.1757C25.4998 28.5017 24.9724 29.7729 24.0348 30.7105C23.0972 31.6481 21.8259 32.1755 20.5 32.177Z" fill="#003472"/>
<path d="M22.9513 26.6149H21.0615V24.7251C21.0615 24.5764 21.0024 24.4339 20.8973 24.3287C20.7922 24.2236 20.6496 24.1646 20.5009 24.1646C20.3523 24.1646 20.2097 24.2236 20.1046 24.3287C19.9994 24.4339 19.9404 24.5764 19.9404 24.7251V26.6149H18.0505C17.9019 26.6149 17.7593 26.674 17.6542 26.7791C17.549 26.8842 17.49 27.0268 17.49 27.1755C17.49 27.3242 17.549 27.4667 17.6542 27.5719C17.7593 27.677 17.9019 27.736 18.0505 27.736H19.9404V29.6259C19.9404 29.7745 19.9994 29.9171 20.1046 30.0222C20.2097 30.1274 20.3523 30.1864 20.5009 30.1864C20.6496 30.1864 20.7922 30.1274 20.8973 30.0222C21.0024 29.9171 21.0615 29.7745 21.0615 29.6259V27.736H22.9513C23.1 27.736 23.2426 27.677 23.3477 27.5719C23.4528 27.4667 23.5119 27.3242 23.5119 27.1755C23.5119 27.0268 23.4528 26.8842 23.3477 26.7791C23.2426 26.674 23.1 26.6149 22.9513 26.6149Z" fill="#003472"/>
</svg>
