<svg width="41" height="40" viewBox="0 0 41 40" fill="none" xmlns="http://www.w3.org/2000/svg">
<path d="M4.16863 31.4684C3.37153 30.6313 2.88281 29.5112 2.88281 28.2812C2.88281 25.6966 5.0382 23.5938 7.6875 23.5938C10.3368 23.5938 12.4922 25.6966 12.4922 28.2812C12.4922 29.5112 12.0035 30.6313 11.2064 31.4684C12.3828 32.0698 13.3793 32.9623 14.0938 34.048C14.8082 32.9624 15.8047 32.0698 16.9811 31.4684C16.184 30.6313 15.6953 29.5112 15.6953 28.2812C15.6953 25.6966 17.8507 23.5938 20.5 23.5938C23.1493 23.5938 25.3047 25.6966 25.3047 28.2812C25.3047 29.5112 24.816 30.6313 24.0189 31.4684C25.1953 32.0698 26.1918 32.9623 26.9062 34.048C27.6207 32.9624 28.6172 32.0698 29.7936 31.4684C28.9965 30.6313 28.5078 29.5112 28.5078 28.2812C28.5078 25.6966 30.6632 23.5938 33.3125 23.5938C35.9618 23.5938 38.1172 25.6966 38.1172 28.2812C38.1172 29.5112 37.6285 30.6313 36.8314 31.4684C39.2593 32.7095 40.9199 35.1923 40.9199 38.0469V38.8281C40.9199 39.4753 40.3821 40 39.7188 40H1.28125C0.617882 40 0.0800781 39.4753 0.0800781 38.8281V38.0469C0.0800781 35.1923 1.74066 32.7095 4.16863 31.4684ZM33.3125 25.9375C31.9878 25.9375 30.9102 26.9889 30.9102 28.2812C30.9102 29.5736 31.9878 30.625 33.3125 30.625C34.6372 30.625 35.7148 29.5736 35.7148 28.2812C35.7148 26.9889 34.6372 25.9375 33.3125 25.9375ZM38.5024 37.6562C38.2972 35.038 36.0479 32.9688 33.3125 32.9688C30.5771 32.9688 28.3278 35.038 28.1226 37.6562H38.5024ZM20.5 25.9375C19.1753 25.9375 18.0977 26.9889 18.0977 28.2812C18.0977 29.5736 19.1753 30.625 20.5 30.625C21.8247 30.625 22.9023 29.5736 22.9023 28.2812C22.9023 26.9889 21.8247 25.9375 20.5 25.9375ZM25.6899 37.6562C25.4847 35.038 23.2354 32.9688 20.5 32.9688C17.7646 32.9688 15.5153 35.038 15.3101 37.6562H25.6899ZM7.6875 25.9375C6.36285 25.9375 5.28516 26.9889 5.28516 28.2812C5.28516 29.5736 6.36285 30.625 7.6875 30.625C9.01215 30.625 10.0898 29.5736 10.0898 28.2812C10.0898 26.9889 9.01215 25.9375 7.6875 25.9375ZM12.8774 37.6562C12.6722 35.038 10.4229 32.9688 7.6875 32.9688C4.95211 32.9688 2.7028 35.038 2.49764 37.6562H12.8774Z" fill="#003472"/>
<path d="M26.9062 21.0938H14.0938C11.6652 21.0938 9.68945 19.1662 9.68945 16.7969V4.29688C9.68945 1.92758 11.6652 0 14.0938 0H26.9062C29.3348 0 31.3105 1.92758 31.3105 4.29688V16.7969C31.3105 19.1662 29.3348 21.0938 26.9062 21.0938ZM28.9082 4.29688C28.9082 3.21992 28.0101 2.34375 26.9062 2.34375H14.0938C12.9899 2.34375 12.0918 3.21992 12.0918 4.29688V16.7969C12.0918 17.8738 12.9899 18.75 14.0938 18.75H26.9062C28.0101 18.75 28.9082 17.8738 28.9082 16.7969V4.29688Z" fill="#003472"/>
<path d="M23.3312 14.6901C22.8622 15.1477 22.1015 15.1477 21.6325 14.6901L14.8376 8.06093C14.3685 7.60328 14.3685 6.86132 14.8376 6.40367C15.3066 5.94601 16.0672 5.94601 16.5363 6.40367L22.4818 12.2041L24.4636 10.2707C24.9327 9.81305 25.6932 9.81305 26.1623 10.2707C26.6314 10.7284 26.6314 11.4703 26.1623 11.928L23.3312 14.6901Z" fill="#003472"/>
</svg>
