<svg width="40" height="40" viewBox="0 0 40 40" fill="none" xmlns="http://www.w3.org/2000/svg">
<path d="M14.2857 28.5712C10.985 28.6552 7.6944 28.172 4.55713 27.1426C7.6944 26.1133 10.985 25.6301 14.2857 25.714H14.4C14.4571 26.6783 14.5429 27.6355 14.6571 28.564C14.5286 28.5712 14.4143 28.5712 14.2857 28.5712Z" fill="#003472"/>
<path d="M14.3286 19.9999C14.3072 20.4785 14.3 20.9499 14.2929 21.4285H14.2858C10.6607 21.3773 7.04858 21.8734 3.57147 22.8999V21.8499C5.07858 21.0856 8.69288 19.9999 14.2857 19.9999H14.3286Z" fill="#003472"/>
<path d="M3.57141 16.1357C5.07852 15.3714 8.69282 14.2857 14.2857 14.2857C14.4786 14.2857 14.6571 14.2928 14.8428 14.3C14.7714 14.7643 14.7142 15.2357 14.6571 15.7214C14.5285 15.7214 14.4071 15.7143 14.2857 15.7143C9.3286 15.7143 5.65711 16.55 3.57141 17.4214V16.1357Z" fill="#003472"/>
<path d="M14.2857 12.8569C9.3286 12.8569 5.65711 13.6926 3.57141 14.564V13.2783C5.07852 12.514 8.69282 11.4283 14.2857 11.4283C14.6714 11.4283 15.0286 11.4354 15.3786 11.4426C15.2715 11.9069 15.1715 12.3854 15.0786 12.8712C14.8143 12.864 14.5571 12.8569 14.2857 12.8569Z" fill="#003472"/>
<path d="M3.57141 18.9926C5.07852 18.2283 8.69282 17.1426 14.2857 17.1426H14.5071C14.4642 17.6212 14.4285 18.0926 14.4 18.5712H14.2857C9.3286 18.5712 5.65711 19.4069 3.57141 20.2783V18.9926Z" fill="#003472"/>
<path d="M3.22859 24.5215C6 23.4644 10.0357 22.8572 14.2857 22.8572H14.2928C14.2999 23.3358 14.3071 23.8072 14.3285 24.2858H14.2856C8.31422 24.2858 4.19992 25.4929 2.48563 26.5287C2.2725 26.6601 2.14273 26.8926 2.14273 27.143C2.14273 27.3934 2.2725 27.6259 2.48563 27.7573C4.2 28.793 8.3143 30.0001 14.2857 30.0001C14.4786 30.0001 14.6571 29.993 14.8428 29.993C14.9142 30.4788 14.9928 30.9501 15.0785 31.4145C14.8142 31.4145 14.5571 31.4287 14.2856 31.4287C6.10711 31.4287 0 29.1644 0 27.143C0 26.2787 1.20711 25.3001 3.22859 24.5215Z" fill="#003472"/>
<path d="M3.57149 11.707C3.57149 11.707 3.57141 11.707 3.57149 11.707L3.57141 10.4213C4.7018 9.84812 7.01743 9.09406 10.4641 8.75289C11.613 8.63914 12.8875 8.57133 14.2857 8.57133C14.9428 8.57133 15.5714 8.59273 16.1857 8.62133C16.1446 8.73203 16.1045 8.84453 16.0652 8.95875C15.9473 9.30125 15.8375 9.65883 15.7357 10.0285C15.7357 10.0285 15.7357 10.0285 15.7356 10.0285C15.2785 10.0142 14.807 9.99992 14.2856 9.99992C9.3286 9.99992 5.65719 10.8356 3.57149 11.707Z" fill="#003472"/>
<path d="M26.8929 9.2857H28.2215C27.3215 11.7643 26.4286 16.2286 26.4286 22.1428C26.4286 28.057 27.3214 32.5214 28.2214 35H26.8928C25.9786 32.8214 25 28.3357 25 22.1429C25 15.9501 25.9786 11.4643 26.8929 9.2857Z" fill="#003472"/>
<path d="M35.7143 33.6997C34.6926 29.9346 34.2117 26.0432 34.2857 22.1426C34.2116 18.242 34.6926 14.3506 35.7143 10.5855C36.7359 14.3506 37.2169 18.242 37.1429 22.1426C37.2169 26.0431 36.7358 29.9346 35.7143 33.6997Z" fill="#003472"/>
<path d="M35.7143 38.5713C33.9214 38.5713 31.4286 32.3213 31.4286 22.1427C31.4286 11.9641 33.9215 5.7141 35.7143 5.7141C37.5071 5.7141 40 11.9642 40 22.1428C40 32.3214 37.5071 38.5713 35.7143 38.5713ZM36.3571 8.26418C36.2395 8.01558 35.9892 7.85707 35.7142 7.85707C35.4392 7.85707 35.1889 8.01558 35.0713 8.26418C33.9999 10.4928 32.857 15.3142 32.857 22.1428C32.857 28.9714 34 33.7928 35.0714 36.0213C35.189 36.2699 35.4393 36.4284 35.7143 36.4284C35.9893 36.4284 36.2396 36.2699 36.3572 36.0213C37.4286 33.7927 38.5715 28.9713 38.5715 22.1427C38.5715 15.3141 37.4286 10.4928 36.3571 8.26418Z" fill="#003472"/>
<path d="M30 22.1429C29.9359 26.4867 30.4988 30.817 31.6714 35H29.75C28.8357 32.8214 27.8571 28.3357 27.8571 22.1429C27.8571 15.9501 28.8357 11.4643 29.75 9.28578H31.6714C30.4988 13.4688 29.9359 17.7991 30 22.1429Z" fill="#003472"/>
<path d="M25.3643 35H24.0357C23.1214 32.8214 22.1428 28.3357 22.1428 22.1429C22.1428 15.9501 23.1214 11.4643 24.0357 9.28578H25.3643C24.4643 11.7644 23.5714 16.2287 23.5714 22.1429C23.5714 28.0571 24.4643 32.5214 25.3643 35Z" fill="#003472"/>
<path d="M22.5071 35H20.4642C19.5499 32.8214 18.5714 28.3357 18.5714 22.1429C18.5714 15.9501 19.5499 11.4643 20.4642 9.28578H22.5071C21.6071 11.7644 20.7142 16.2287 20.7142 22.1429C20.7142 28.0571 21.6071 32.5214 22.5071 35Z" fill="#003472"/>
<path d="M14.2857 7.14285C8.3143 7.14285 4.2 8.34996 2.4857 9.38574C2.4643 9.40004 2.45 9.42863 2.42859 9.44285C2.38797 9.47051 2.35188 9.50426 2.32148 9.54285C2.29125 9.57801 2.26492 9.61637 2.24289 9.65715C2.21961 9.69551 2.20047 9.73621 2.18578 9.77855C2.17211 9.82527 2.16258 9.87308 2.15719 9.92144C2.15719 9.95004 2.14289 9.97144 2.14289 10V12.1357C0.792891 11.4643 0 10.7 0 9.99996C0 7.97855 6.10711 5.71426 14.2857 5.71426C15.3928 5.71426 16.4786 5.77137 17.55 5.84996C17.2438 6.2816 16.9784 6.74066 16.7571 7.22136C15.9714 7.17136 15.15 7.14285 14.2857 7.14285Z" fill="#003472"/>
<path d="M19.7571 7.907C19.7318 7.91215 19.7076 7.92184 19.6857 7.93559C19.6291 7.96465 19.5762 8.00059 19.5286 8.0427C19.5143 8.057 19.5 8.06411 19.4857 8.0784C19.4333 8.13309 19.3898 8.19583 19.3571 8.26411C19.35 8.27122 19.35 8.28551 19.3428 8.2927C18.3214 10.4356 17.1428 15.3284 17.1428 22.1427C17.1256 25.0509 17.3647 27.955 17.8571 30.8213C18.1362 32.6 18.6352 34.3371 19.3428 35.9927C19.3499 35.9998 19.3499 36.0141 19.3571 36.0213C19.3745 36.0527 19.3961 36.0816 19.4214 36.107C19.4459 36.152 19.4773 36.1929 19.5143 36.2284C19.5477 36.2609 19.5863 36.2875 19.6286 36.307C19.664 36.3349 19.7023 36.3589 19.7429 36.3784C19.7922 36.3914 19.8423 36.4009 19.8929 36.407C19.9278 36.4175 19.9637 36.4247 20 36.4284H21.9714C21.3285 37.7784 20.6214 38.5713 20 38.5713C18.2071 38.5713 15.7143 32.3213 15.7143 22.1427C15.7143 11.9641 18.2071 5.71418 20 5.71418C20.6214 5.71418 21.3286 6.50707 21.9714 7.85707H20C19.9167 7.85918 19.8345 7.87606 19.7571 7.907Z" fill="#003472"/>
<path d="M28.8 7.85693C29.1715 6.83553 29.6214 4.92123 28.9071 3.82834C28.4928 3.18545 27.6571 2.85693 26.4285 2.85693V1.42834C28.1714 1.42834 29.4071 1.97834 30.1071 3.04974C31.0714 4.53545 30.6714 6.62834 30.3 7.85685H28.8V7.85693Z" fill="#003472"/>
</svg>
