<svg width="52" height="52" viewBox="0 0 52 52" fill="none" xmlns="http://www.w3.org/2000/svg">
<g clip-path="url(#clip0)">
<path d="M24.2589 1.16623L19.9937 10.2493L22.9726 11.6475L25.2442 6.80492L45.1951 26.7558L19.8637 38.6435L13.3565 32.1346L15.9884 26.542L13.0111 25.1438L10.1013 31.3286L0 37.3884L14.6116 52L20.6714 41.8987L25.7409 39.5186L26.4384 41.0072C27.5951 43.4742 30.5325 44.5367 32.9998 43.3808L39.6469 40.2653C42.1149 39.1094 43.1785 36.1715 42.0226 33.7034C42.0219 33.7019 42.0211 33.7005 42.0204 33.6989L41.3197 32.207L50.8338 27.7411L24.2589 1.16623ZM13.9586 46.6936L5.30642 38.0414L11.1228 34.5526L17.4474 40.8772L13.9586 46.6936ZM39.1007 36.3521C38.9535 36.763 38.6478 37.0977 38.252 37.2815L31.6033 40.4035C30.7803 40.7877 29.8017 40.432 29.4173 39.609L28.7182 38.1286L38.3474 33.6052L39.0498 35.0987C39.2316 35.4934 39.25 35.944 39.1007 36.3521Z" fill="#003472"/>
<path d="M18.7805 20.5816L15.8022 19.1841L14.4047 22.1623L17.383 23.5598L18.7805 20.5816Z" fill="#003472"/>
<path d="M21.5747 14.6263L18.5964 13.2288L17.1989 16.207L20.1772 17.6045L21.5747 14.6263Z" fill="#003472"/>
<path d="M51.5171 2.80953L49.1909 0.483322L42.6112 7.063L44.9375 9.38921L51.5171 2.80953Z" fill="#003472"/>
<path d="M51.9998 13.1591H43.7754V16.4489H51.9998V13.1591Z" fill="#003472"/>
<path d="M38.8408 0H35.551V8.22446H38.8408V0Z" fill="#003472"/>
</g>
<defs>
<clipPath id="clip0">
<rect width="52" height="52" fill="white"/>
</clipPath>
</defs>
</svg>
