<svg width="38" height="38" viewBox="0 0 38 38" fill="none" xmlns="http://www.w3.org/2000/svg">
<path d="M33.7535 0H8.94333C7.40863 0 6.16012 1.24851 6.16012 2.7832V25.171H2.29578C1.7024 25.171 1.2196 25.6538 1.2196 26.2472V34.9731C1.2196 36.6422 2.57744 38 4.24654 38C4.26332 38 4.27987 37.999 4.29664 37.9987C4.3198 37.9984 29.0311 38 29.0566 38C30.5913 38 31.8398 36.7515 31.8398 35.2168V29.0467C31.8398 28.7392 31.5906 28.4901 31.2832 28.4901C30.9758 28.4901 30.7265 28.7392 30.7265 29.0467V35.2168C30.7265 36.1376 29.9774 36.8867 29.0566 36.8867H6.58978C7.01676 36.3648 7.27341 35.6985 7.27341 34.9731V2.7832C7.27341 1.86245 8.0225 1.11328 8.94333 1.11328H31.4102C30.9832 1.63519 30.7265 2.30152 30.7265 3.02686V26.449C30.7265 26.7565 30.9758 27.0057 31.2832 27.0057C31.5906 27.0057 31.8398 26.7565 31.8398 26.449V12.829H35.7042C36.2975 12.829 36.7803 12.3462 36.7803 11.7528V3.02686C36.7803 1.35783 35.4225 0 33.7535 0V0ZM6.16012 34.9731C6.16012 36.0283 5.30171 36.8867 4.24647 36.8867C3.19123 36.8867 2.33281 36.0283 2.33281 34.9731V26.2843H6.16012V34.9731ZM35.667 11.7157H31.8398V3.02686C31.8398 1.9717 32.6982 1.11328 33.7535 1.11328C34.8087 1.11328 35.6671 1.9717 35.6671 3.02686V11.7157H35.667ZM27.9433 30.207H10.0566C9.74919 30.207 9.49997 30.4562 9.49997 30.7637C9.49997 31.0712 9.74919 31.3203 10.0566 31.3203H27.9433C28.2507 31.3203 28.5 31.0712 28.5 30.7637C28.5 30.4562 28.2507 30.207 27.9433 30.207ZM27.9433 26.8672H10.0566C9.74919 26.8672 9.49997 27.1163 9.49997 27.4238C9.49997 27.7313 9.74919 27.9805 10.0566 27.9805H27.9433C28.2507 27.9805 28.5 27.7313 28.5 27.4238C28.5 27.1163 28.2507 26.8672 27.9433 26.8672ZM17.0113 17.6608C17.0113 17.3533 16.762 17.1042 16.4546 17.1042C16.1472 17.1042 15.898 17.3533 15.898 17.6608C15.898 19.1757 16.9935 20.4387 18.4336 20.7014L18.433 21.1475C18.4326 21.455 18.6815 21.7045 18.9889 21.7049H18.9897C19.2968 21.7049 19.5459 21.4561 19.5463 21.149L19.5469 20.7049C20.9966 20.4499 22.1019 19.1825 22.1019 17.6608C22.1019 17.3533 21.8527 17.1042 21.5453 17.1042C21.2379 17.1042 20.9887 17.3533 20.9887 17.6608C20.9887 18.5652 20.3785 19.3292 19.5484 19.5642L19.5533 15.7674H21.0257C21.3331 15.7674 21.5823 15.5183 21.5823 15.2108C21.5823 14.9033 21.3331 14.6541 21.0257 14.6541H19.5547L19.556 13.6018C20.2042 13.3722 20.6699 12.7533 20.6699 12.0274C20.6699 11.1067 19.9208 10.3575 19 10.3575C18.0791 10.3575 17.33 11.1067 17.33 12.0274C17.33 12.7529 17.7952 13.3715 18.4427 13.6014L18.4414 14.6541H16.964C16.6566 14.6541 16.4074 14.9033 16.4074 15.2108C16.4074 15.5183 16.6566 15.7674 16.964 15.7674H18.44L18.4351 19.5595C17.6134 19.3191 17.0113 18.5591 17.0113 17.6608ZM19 11.4709C19.3069 11.4709 19.5566 11.7206 19.5566 12.0275C19.5566 12.3345 19.3069 12.5842 19 12.5842C18.693 12.5842 18.4433 12.3345 18.4433 12.0275C18.4433 11.7206 18.693 11.4709 19 11.4709ZM27.9433 33.5469H10.0566C9.74919 33.5469 9.49997 33.796 9.49997 34.1035C9.49997 34.411 9.74919 34.6602 10.0566 34.6602H27.9433C28.2507 34.6602 28.5 34.411 28.5 34.1035C28.5 33.796 28.2507 33.5469 27.9433 33.5469ZM28.5 4.41602C28.5 3.82264 28.0172 3.33984 27.4238 3.33984H17.177C16.8696 3.33984 16.6204 3.589 16.6204 3.89648C16.6204 4.20397 16.8696 4.45312 17.177 4.45312H27.3867V7.42188H10.6132V4.45312H14.5794C14.8868 4.45312 15.136 4.20397 15.136 3.89648C15.136 3.589 14.8868 3.33984 14.5794 3.33984H10.5761C9.98276 3.33984 9.49997 3.82264 9.49997 4.41602V7.45898C9.49997 8.05236 9.98276 8.53516 10.5761 8.53516H27.4238C28.0172 8.53516 28.5 8.05236 28.5 7.45898V4.41602ZM27.9433 23.5273H10.0566C9.74919 23.5273 9.49997 23.7765 9.49997 24.084C9.49997 24.3915 9.74919 24.6406 10.0566 24.6406H27.9433C28.2507 24.6406 28.5 24.3915 28.5 24.084C28.5 23.7765 28.2507 23.5273 27.9433 23.5273Z" fill="white"/>
</svg>
