<svg width="50" height="50" viewBox="0 0 50 50" fill="none" xmlns="http://www.w3.org/2000/svg">
<path d="M22.6562 14.4531C22.6562 15.0977 22.1289 15.625 21.4844 15.625C20.8398 15.625 20.3125 15.0977 20.3125 14.4531C20.3125 13.8086 20.8398 13.2813 21.4844 13.2813C22.1289 13.2813 22.6562 13.8086 22.6562 14.4531ZM28.5156 13.2813C27.8711 13.2813 27.3437 13.8086 27.3437 14.4531C27.3437 15.0977 27.8711 15.625 28.5156 15.625C29.1602 15.625 29.6875 15.0977 29.6875 14.4531C29.6875 13.8086 29.1602 13.2813 28.5156 13.2813ZM43.75 48.4375V31.9922C43.75 31.1133 43.5352 30.2539 43.1348 29.4727C42.9199 29.6777 42.6074 29.7363 42.334 29.6387L37.1875 27.8027L38.1543 29.248C38.3105 29.4727 38.3301 29.7656 38.2129 30.0098L36.3867 33.916L34.9707 33.252L36.6113 29.7461L35.293 27.7637C35.1269 27.5098 35.1172 27.1777 35.2832 26.9141L35.9961 25.7715C36.0059 25.7617 36.0059 25.752 36.0156 25.7422L38.7598 21.3574L36.0352 19.7949C35.0488 19.2285 33.9551 18.8867 32.8223 18.7695V37.3242C33.4277 37.5098 34.3848 37.8906 34.3848 37.8906V35.9375C34.3848 35.5078 34.7363 35.1563 35.166 35.1563H41.416C41.8457 35.1563 42.1973 35.5078 42.1973 35.9375V39.8438C42.1973 41.3965 41.2793 42.8027 39.8535 43.4277V46.0938C39.8535 47.3828 38.7988 48.4375 37.5098 48.4375H17.1875V41.582L11.7969 30.0195C11.6797 29.7754 11.6992 29.4824 11.8555 29.2578L12.8223 27.8125L7.67578 29.6484C7.40234 29.7461 7.08984 29.6777 6.875 29.4824C6.46484 30.2637 6.25977 31.1231 6.25977 32.002V33.5938H4.6875V31.9922C4.6875 30.4199 5.21484 28.8965 6.18164 27.666L5.6543 26.0547C5.52734 25.6543 5.73242 25.2148 6.13281 25.0781L10.7031 23.4473L9.49219 21.5137C9.26758 21.1523 9.375 20.6641 9.73633 20.4395C9.74609 20.4297 9.75586 20.4297 9.76562 20.4199L13.2031 18.457C13.3691 18.3594 13.5449 18.2715 13.7207 18.1836L14.4141 19.5801C14.2676 19.6484 14.1211 19.7266 13.9844 19.8047L11.2598 21.3672L14.7363 26.9238C14.9023 27.1875 14.8926 27.5195 14.7266 27.7734L13.4082 29.7559L17.1973 37.8809V18.7305C15.2637 18.5156 13.877 16.7773 14.0918 14.8438C14.2773 13.2129 15.5664 11.9238 17.1973 11.7383V10.9375C16.7285 10.3125 16.4551 9.57031 16.4258 8.78906L15.9766 7.90039C15.1758 6.30859 15.8301 4.36523 17.4219 3.56445C17.5586 3.49609 17.6953 3.4375 17.8418 3.38867L18.5059 3.16406L19.0039 4.64844L18.3398 4.87305C17.4609 5.16602 16.9922 6.11328 17.2852 6.98242C17.3145 7.06055 17.3437 7.12891 17.373 7.19727L17.6758 7.8125H23.0957C22.666 7.5 22.3047 7.11914 22.0117 6.67969L23.3105 5.81055C23.5449 6.16211 23.8574 6.46484 24.2187 6.67969V6.03516C23.4668 5.60547 23.2129 4.64844 23.6426 3.89648C24.0723 3.14453 25.0293 2.89063 25.7812 3.32031C26.5332 3.75 26.7871 4.70703 26.3574 5.45898C26.2207 5.69336 26.0254 5.89844 25.7812 6.03516V6.67969C26.1426 6.46484 26.4551 6.16211 26.6894 5.81055L27.9883 6.67969C27.6953 7.11914 27.3242 7.5 26.9043 7.8125H32.3242L32.627 7.19727C33.0371 6.37695 32.7051 5.37109 31.8848 4.96094C31.8164 4.92188 31.7383 4.89258 31.6699 4.87305L27.793 3.58398C25.9766 2.97852 24.0137 2.97852 22.1973 3.58398L20.5566 4.13086L20.0586 2.64648L21.6992 2.09961C23.8379 1.38672 26.1426 1.38672 28.2812 2.09961L32.1582 3.38867C33.8477 3.95508 34.7656 5.78125 34.1992 7.4707C34.1504 7.61719 34.0918 7.75391 34.0234 7.89063L33.5742 8.7793C33.5352 9.56055 33.2617 10.3027 32.8027 10.9277V11.7383C34.7266 11.9531 36.123 13.6914 35.9082 15.6152C35.8203 16.377 35.4883 17.0898 34.9609 17.6465C35.5957 17.8516 36.2109 18.1152 36.7871 18.4473L40.2246 20.4102C40.5957 20.625 40.7324 21.1035 40.5176 21.4746C40.5078 21.4844 40.5078 21.4941 40.498 21.5039L37.5293 26.2695L42.0996 27.9004L42.6269 26.2891L39.5898 25.2051L40.1172 23.7305L43.8769 25.0684C44.2773 25.2148 44.4922 25.6445 44.3555 26.0449L43.8281 27.6563C44.7949 28.8965 45.3223 30.4199 45.3223 31.9824V48.4375H43.75ZM12.4707 26.2695L11.5527 24.7949L7.37305 26.2793L7.90039 27.8906L12.4707 26.2695ZM17.1875 13.3203C16.1328 13.5352 15.4492 14.5703 15.6641 15.625C15.8203 16.3965 16.416 16.9922 17.1875 17.1484V13.3203ZM20.3125 10.9375H29.6875C30.6836 10.9375 31.5625 10.3125 31.8945 9.375H18.1055C18.4375 10.3125 19.3164 10.9375 20.3125 10.9375ZM25.7812 37.5C25.7812 37.0703 26.1328 36.7188 26.5625 36.7188C26.5625 36.7188 29.541 36.6602 31.25 36.9629V35.9375H18.75V37.5H25.7812ZM18.75 39.0625V40.625H25.7812V39.0625H18.75ZM31.25 34.375V32.8125H18.75V34.375H31.25ZM31.25 31.25V29.6875H18.75V31.25H31.25ZM31.25 25V22.6563H28.9062C27.334 22.6563 25.8691 21.8652 25 20.5566C24.1309 21.8652 22.666 22.6563 21.0937 22.6563H18.75V25C18.75 26.7285 20.1465 28.125 21.875 28.125H28.125C29.8535 28.125 31.25 26.7285 31.25 25ZM19.4238 17.8809L18.75 16.3086V18.3887C18.9551 18.1934 19.1895 18.0273 19.4238 17.8809ZM18.8477 21.0938H21.0937C22.5195 21.0938 23.7598 20.127 24.1211 18.75H21.875C20.4492 18.75 19.209 19.7168 18.8477 21.0938ZM28.9062 21.0938H31.1523C30.791 19.7168 29.5508 18.75 28.125 18.75H25.8789C26.2402 20.127 27.4805 21.0938 28.9062 21.0938ZM31.25 18.3887V16.3086L30.5762 17.8809C30.8105 18.0273 31.0449 18.1934 31.25 18.3887ZM31.25 12.3438V12.1777C30.7617 12.3926 30.2246 12.5098 29.6875 12.5H20.3125C19.7754 12.5 19.2383 12.3926 18.75 12.1777V12.3438L20.8301 17.1875H29.1699L31.25 12.3438ZM29.043 46.875C28.9551 46.6211 28.9062 46.3574 28.9062 46.0938V45.3125H18.75V46.875H29.043ZM29.043 42.1875H18.75V43.75H28.9062V42.9688C28.9062 42.7051 28.9551 42.4414 29.043 42.1875ZM38.2812 42.9688C38.2812 42.5391 37.9297 42.1875 37.5 42.1875H31.25C30.8203 42.1875 30.4687 42.5391 30.4687 42.9688V46.0938C30.4687 46.5234 30.8203 46.875 31.25 46.875H37.5C37.9297 46.875 38.2812 46.5234 38.2812 46.0938V42.9688ZM31.4551 38.6035C29.2383 38.1543 27.3437 38.2813 27.3437 38.2813V39.8438C28.8867 39.8731 30.4102 40.1367 31.8652 40.625H37.5C38.3496 40.625 39.1309 41.084 39.541 41.8164C40.2148 41.3867 40.625 40.6445 40.625 39.8438V36.7188H35.9375V39.0625C35.9375 39.4922 35.5859 39.8438 35.1562 39.8438C35.0586 39.8438 34.9609 39.8242 34.8633 39.7852C34.8633 39.7852 33.3105 39.0918 32.1484 38.7695C32.0508 38.7402 31.5918 38.6328 31.4551 38.6035ZM34.375 15.2344C34.375 14.3066 33.7207 13.5059 32.8125 13.3203V17.1484C33.7207 16.9629 34.375 16.1621 34.375 15.2344ZM4.6875 48.4375H6.25V35.1563H4.6875V48.4375ZM10.9375 48.4375H12.5V35.9375H10.9375V48.4375Z" fill="#003472"/>
</svg>
