<svg width="54" height="54" viewBox="0 0 54 54" fill="none" xmlns="http://www.w3.org/2000/svg">
<g clip-path="url(#clip0)">
<path d="M52.958 16.5706L41.5588 12.7182C41.145 12.5789 40.696 12.8004 40.5561 13.2143C40.4162 13.6282 40.6383 14.0772 41.0522 14.2171L52.3426 18.0328L47.028 20.6238C46.8074 20.475 46.5597 20.3608 46.2912 20.2906L30.3502 16.1245C29.8435 13.5177 26.6339 12.4236 24.6625 14.2788C23.9801 14.9209 23.5888 15.8264 23.5888 16.7631V16.7804C23.5944 17.8834 24.5073 18.7807 25.624 18.7807H28.3762C29.0869 18.7807 29.7977 18.4098 30.1664 17.7117L45.0323 21.5969C40.3351 23.887 29.7903 29.028 28.4462 29.6834C27.4973 30.1459 26.4401 30.1155 25.5538 29.6834L1.65731 18.0328L25.9433 9.82499C26.6246 9.59463 27.3753 9.59463 28.0565 9.82499L37.5384 13.0296C37.9524 13.1694 38.4012 12.9476 38.5412 12.5335C38.681 12.1196 38.4589 11.6706 38.045 11.5307L28.5631 8.32608C27.555 7.9855 26.4449 7.9855 25.4368 8.32608L1.04187 16.5706C-0.254211 17.009 -0.371183 18.8041 0.86066 19.4045L13.3803 25.5084C12.6916 28.7828 11.64 32.3081 10.4971 35.4371C10.0292 36.7168 10.4323 38.1403 11.4999 38.9794C15.113 41.8191 19.382 44.0128 23.7574 45.4229C25.8135 46.0854 28.1062 46.1109 30.2421 45.4229C34.6189 44.0122 38.8883 41.8176 42.4994 38.9794C43.571 38.137 43.9686 36.7129 43.5023 35.4371C42.3835 32.3775 41.3176 28.8292 40.6191 25.5087L46.5082 22.6376V34.5436C45.5017 34.6207 44.7058 35.4625 44.7058 36.4884V38.7937C44.7058 39.1362 44.8545 39.4438 45.0897 39.6581L44.7958 44.101C44.7385 44.9689 45.4286 45.7066 46.2988 45.7066H48.3C49.1698 45.7066 49.8602 44.9692 49.8028 44.101L49.5091 39.6581C49.7443 39.4438 49.893 39.1363 49.893 38.7937V36.4883C49.893 35.4624 49.097 34.6206 48.0905 34.5435V22.6204C48.0905 22.3772 48.0522 22.1417 47.9838 21.9181L53.1392 19.4046C54.3695 18.8048 54.2562 17.0096 52.958 16.5706ZM28.3762 17.1985H25.624C25.3796 17.1985 25.1721 17.0034 25.171 16.7764V16.7631C25.171 16.2535 25.3754 15.7804 25.7467 15.4309C26.886 14.3587 28.7529 15.1305 28.8268 16.6725C28.8444 17.0418 28.6067 17.1985 28.3762 17.1985ZM41.1257 33.4036C36.8517 36.7486 30.7862 39.1415 28.697 39.5398C28.2678 39.6217 27.9863 40.036 28.0681 40.465C28.15 40.8943 28.5655 41.1758 28.9934 41.0939C31.1787 40.6771 37.1662 38.3503 41.661 34.9866C41.7716 35.3018 41.8996 35.6608 42.0164 35.9802C42.2484 36.6152 42.0496 37.3204 41.5218 37.7354C37.2617 41.0835 32.7725 42.945 29.7568 43.9167C27.9555 44.4973 25.999 44.483 24.2427 43.9167C21.2269 42.9449 16.7378 41.0835 12.4777 37.7354C11.95 37.3206 11.7508 36.6155 11.9832 35.9801C11.9878 35.9675 11.9924 35.9546 11.997 35.942C12.112 35.627 12.2394 35.2695 12.3384 34.9863C16.7271 38.2696 22.6982 40.654 25.0054 41.0942C25.4351 41.1758 25.8488 40.8945 25.9307 40.4655C26.0125 40.0363 25.731 39.622 25.302 39.5401C23.3296 39.1641 17.2434 36.8218 12.8737 33.4035C13.5162 31.4388 14.2606 28.9139 14.8458 26.2229L24.8604 31.1053C26.1939 31.7554 27.754 31.7809 29.1396 31.1053L39.1536 26.2231C39.7387 28.9141 40.4832 31.4389 41.1257 33.4036ZM46.3798 44.1244L46.6549 39.9646H47.9436L48.2187 44.1244H46.3798ZM48.3108 36.4882V38.3823H46.2879V36.4882C46.2879 36.2875 46.4574 36.1179 46.6582 36.1179H47.9404C48.1411 36.118 48.3108 36.2875 48.3108 36.4882Z" fill="#002047"/>
</g>
<defs>
<clipPath id="clip0">
<rect width="54" height="54" fill="white"/>
</clipPath>
</defs>
</svg>
