<svg width="60" height="59" viewBox="0 0 60 59" fill="none" xmlns="http://www.w3.org/2000/svg">
<g clip-path="url(#clip0)">
<path d="M46.7977 34.0306C46.7977 34.0306 39.2748 29.4374 39.2653 29.4316C38.7239 29.101 37.9948 29.2753 37.6617 29.8071C37.328 30.3401 37.5051 31.0656 38.0414 31.3928C38.0414 31.3928 45.5691 35.989 45.5737 35.9918C46.1149 36.3221 46.8434 36.1522 47.1761 35.6162C47.5089 35.0801 47.3393 34.361 46.7977 34.0306Z" fill="white"/>
<path d="M34.69 26.8398C33.9463 26.8397 33.3854 27.5404 33.5554 28.2566C33.6231 28.542 33.8213 28.8011 34.0824 28.9648C34.2616 29.0771 34.4705 29.1445 34.6875 29.1445C35.095 29.1445 35.4665 28.9407 35.6796 28.5974C36.1335 27.8661 35.5629 26.84 34.69 26.8398Z" fill="white"/>
<path d="M22.6311 29.7476C22.3026 29.2299 21.5452 29.0626 21.025 29.3877C21.025 29.3877 13.5506 34.0515 13.5381 34.0593C12.9995 34.3954 12.8351 35.1153 13.1744 35.6478C13.3783 35.9681 13.7718 36.1558 14.1613 36.1666C14.3805 36.1727 14.5984 36.1228 14.7806 36.0091C14.7806 36.0091 22.2623 31.3397 22.2676 31.3364C22.806 31.0003 22.9695 30.2809 22.6311 29.7476Z" fill="white"/>
<path d="M25.5842 26.751C25.0433 26.751 24.5695 27.1271 24.4499 27.6484C24.287 28.3586 24.8551 29.0557 25.5865 29.0557C26.1263 29.0557 26.6028 28.6796 26.7219 28.1579C26.8851 27.4434 26.3221 26.751 25.5842 26.751Z" fill="white"/>
<path d="M59.3395 52.4821C58.9175 52.0018 58.1819 51.9511 57.6965 52.3687C56.4548 53.4371 55.3056 54.5447 53.6763 54.9903C51.865 55.4856 50.1437 55.0947 48.5045 54.2837L54.5694 34.0919C54.7203 33.5896 54.5095 33.0497 54.0566 32.7781L48.4454 29.4139V19.5898C48.4454 18.9535 47.9241 18.4375 47.2809 18.4375H44.9518V14.9804C44.9518 14.3441 44.4304 13.8281 43.7872 13.8281H40.1189V10.3711C40.1189 9.73475 39.5975 9.21873 38.9543 9.21873H33.3063V1.15234C33.3063 0.516019 32.7849 0 32.1417 0H27.4835C26.8403 0 26.3189 0.516019 26.3189 1.15234V9.21873H20.6709C20.0277 9.21873 19.5063 9.73475 19.5063 10.3711V13.8281H15.838C15.1948 13.8281 14.6734 14.3441 14.6734 14.9804V18.4375H12.3443C11.7011 18.4375 11.1798 18.9535 11.1798 19.5898V29.4139L5.56872 32.778C5.11571 33.0496 4.90504 33.5895 5.05597 34.0918C5.05597 34.0918 11.1059 54.2336 11.1085 54.2423C11.0052 53.8985 9.14168 53.672 8.81223 53.6299C5.4214 53.1957 2.84297 54.8765 0.400435 56.978C-0.0849509 57.3956 -0.136191 58.1233 0.285726 58.6036C0.688545 59.062 1.43817 59.139 1.92856 58.7171C4.44493 56.5525 7.28189 54.9025 10.6113 56.55C13.6233 58.0401 16.7411 58.6791 19.8783 57.0455C22.4079 55.7279 24.849 54.5902 27.6726 55.9205L30.5755 57.2883C33.059 58.4586 35.8945 58.4317 38.3546 57.2143C39.8706 56.4643 41.4114 55.4661 43.1431 55.3483C44.8406 55.233 46.4807 55.8584 47.9722 56.5969C49.9425 57.5718 52.2491 57.7665 54.3649 57.1697C56.3137 56.62 57.7321 55.3918 59.2247 54.1076C59.7102 53.6901 59.7614 52.9624 59.3395 52.4821ZM46.1163 20.7421V28.0175L33.9819 20.7421H46.1163ZM28.6481 2.30468H30.9772V9.21873H28.6481V2.30468ZM21.8354 11.5234H37.7898V13.8281H21.8354V11.5234ZM13.5089 20.7421H25.6433L13.5089 28.0175V20.7421ZM28.6481 53.8276C28.6483 53.6228 26.988 53.2451 26.7708 53.1985C24.744 52.7644 22.5682 53.0401 20.7307 53.9971C19.3975 54.6914 18.1113 55.5014 16.5865 55.6957C16.5838 55.696 16.581 55.6964 16.5782 55.6967C15.6873 55.8039 14.7754 55.739 13.9132 55.4902L7.54462 34.2882L28.6481 21.6354C28.6481 21.6354 28.6481 53.8263 28.6481 53.8276ZM17.0025 18.4375V16.1328H42.6227V18.4375H17.0025ZM46.3518 53.3602C46.3647 53.0037 43.0865 53.0069 42.8669 53.0298C40.8455 53.2414 39.0968 54.2706 37.3129 55.1531C35.2055 56.1958 33.0371 55.896 30.9772 54.925V21.6354L52.0806 34.2882L46.3518 53.3602Z" fill="white"/>
</g>
<defs>
<clipPath id="clip0">
<rect width="59.6252" height="59" fill="white"/>
</clipPath>
</defs>
</svg>
