<svg width="47" height="42" viewBox="0 0 47 42" fill="none" xmlns="http://www.w3.org/2000/svg">
<path d="M15.6973 33.7969C15.6973 35.6062 17.3445 37.0781 19.3691 37.0781C21.3938 37.0781 23.041 35.6062 23.041 33.7969C23.041 31.9876 21.3938 30.5156 19.3691 30.5156C17.3445 30.5156 15.6973 31.9876 15.6973 33.7969ZM21.2051 33.7969C21.2051 34.7015 20.3815 35.4375 19.3691 35.4375C18.3568 35.4375 17.5332 34.7015 17.5332 33.7969C17.5332 32.8922 18.3568 32.1562 19.3691 32.1562C20.3815 32.1562 21.2051 32.8922 21.2051 33.7969Z" fill="#003472"/>
<path d="M35.8926 5.41406H30.3848C29.8778 5.41406 29.4668 5.7814 29.4668 6.23438V15.2578H27.6308C27.2596 15.2578 26.9248 15.4577 26.7827 15.7642C26.6406 16.0707 26.7192 16.4236 26.9817 16.6582L32.4895 21.58C32.6688 21.7402 32.9037 21.8203 33.1386 21.8203C33.3735 21.8203 33.6085 21.7402 33.7877 21.58L39.2955 16.6582C39.558 16.4236 39.6365 16.0707 39.4944 15.7642C39.3525 15.4577 39.0177 15.2578 38.6465 15.2578H36.8105V6.23438C36.8105 5.7814 36.3996 5.41406 35.8926 5.41406ZM33.1387 19.8398L29.847 16.8984H30.3848C30.8918 16.8984 31.3027 16.5311 31.3027 16.0781V7.05469H34.9746V16.0781C34.9746 16.5311 35.3856 16.8984 35.8926 16.8984H36.4303L33.1387 19.8398Z" fill="#003472"/>
<path d="M8.35352 19.3594H11.1074C11.6144 19.3594 12.0254 18.992 12.0254 18.5391C12.0254 18.0861 11.6144 17.7188 11.1074 17.7188H8.35352C7.84652 17.7188 7.43555 18.0861 7.43555 18.5391C7.43555 18.992 7.84652 19.3594 8.35352 19.3594Z" fill="#003472"/>
<path d="M8.35352 14.4375H11.1074C11.6144 14.4375 12.0254 14.0702 12.0254 13.6172C12.0254 13.1642 11.6144 12.7969 11.1074 12.7969H8.35352C7.84652 12.7969 7.43555 13.1642 7.43555 13.6172C7.43555 14.0702 7.84652 14.4375 8.35352 14.4375Z" fill="#003472"/>
<path d="M8.35352 9.51562H11.1074C11.6144 9.51562 12.0254 9.14829 12.0254 8.69531C12.0254 8.24234 11.6144 7.875 11.1074 7.875H8.35352C7.84652 7.875 7.43555 8.24234 7.43555 8.69531C7.43555 9.14829 7.84652 9.51562 8.35352 9.51562Z" fill="#003472"/>
<path d="M11.1074 2.95312H8.35352C7.84652 2.95312 7.43555 3.32046 7.43555 3.77344C7.43555 4.22641 7.84652 4.59375 8.35352 4.59375H11.1074C11.6144 4.59375 12.0254 4.22641 12.0254 3.77344C12.0254 3.32046 11.6144 2.95312 11.1074 2.95312Z" fill="#003472"/>
<path d="M25.2441 39.8672C25.7511 39.8672 26.1621 39.4999 26.1621 39.0469C26.1621 38.5938 25.7511 38.2266 25.2441 38.2266C24.7372 38.2266 24.3262 38.5938 24.3262 39.0469C24.3262 39.4999 24.7372 39.8672 25.2441 39.8672Z" fill="#003472"/>
<path d="M23.041 3.28125C23.041 1.47197 21.3938 0 19.3691 0C17.3445 0 15.6973 1.47197 15.6973 3.28125V26.3091C12.3775 27.6079 10.1895 30.547 10.1895 33.7969C10.1895 38.3202 14.3075 42 19.3691 42C20.2365 42 21.0951 41.8919 21.9211 41.6787C22.4082 41.5529 22.689 41.0981 22.5482 40.6629C22.4075 40.2276 21.8984 39.9769 21.4115 40.1025C20.7512 40.2729 20.064 40.3594 19.3691 40.3594C15.3198 40.3594 12.0254 37.4154 12.0254 33.7969C12.0254 31.0442 13.9934 28.5695 16.9228 27.639C17.2887 27.5227 17.5332 27.2132 17.5332 26.8661V21.8203H21.2051V26.8661C21.2051 27.2131 21.4495 27.5227 21.8155 27.639C24.7448 28.5695 26.7129 31.0442 26.7129 33.7969C26.7129 34.4179 26.6161 35.032 26.4255 35.6222C26.2848 36.0574 26.5656 36.5122 27.0527 36.6379C27.5398 36.7635 28.0487 36.5128 28.1894 36.0773C28.4279 35.3392 28.5489 34.5719 28.5489 33.7969C28.5489 30.547 26.3608 27.6079 23.0411 26.3091V3.28125H23.041ZM17.5332 20.1797V3.28125C17.5332 2.37661 18.3568 1.64062 19.3691 1.64062C20.3815 1.64062 21.2051 2.37661 21.2051 3.28125V20.1797H17.5332Z" fill="#003472"/>
</svg>
