<svg width="44" height="44" viewBox="0 0 44 44" fill="none" xmlns="http://www.w3.org/2000/svg">
<path d="M21.3125 37.125V38.5H26.8125C26.9948 38.5 27.1697 38.4275 27.2986 38.2986L28.875 36.7221L30.4514 38.2986C30.5803 38.4275 30.7552 38.5 30.9375 38.5H39.1875C40.0989 38.4989 40.9726 38.1364 41.617 37.492C42.2614 36.8476 42.6239 35.9739 42.625 35.0625V24.0625C42.6239 23.1511 42.2614 22.2774 41.617 21.633C40.9726 20.9886 40.0989 20.6261 39.1875 20.625H37.8125V22H39.1875C39.7343 22.0006 40.2586 22.2181 40.6452 22.6048C41.0319 22.9914 41.2494 23.5157 41.25 24.0625V35.0625C41.2494 35.6093 41.0319 36.1336 40.6452 36.5202C40.2586 36.9069 39.7343 37.1244 39.1875 37.125H31.2221L29.3611 35.2639C29.2321 35.1351 29.0573 35.0626 28.875 35.0626C28.6927 35.0626 28.5179 35.1351 28.3889 35.2639L26.5279 37.125H21.3125Z" fill="#003472"/>
<path d="M4.8125 38.5H5.5V37.125H4.8125C4.26568 37.1244 3.74143 36.9069 3.35477 36.5202C2.96811 36.1336 2.75061 35.6093 2.75 35.0625V33.9721L10.2292 41.4514C10.9807 42.2028 11.9998 42.625 13.0625 42.625C14.1252 42.625 15.1443 42.2028 15.8958 41.4514L28.1875 29.1596V30.25H29.5625V28.1875H29.1596L32.7986 24.5485C32.9275 24.4196 33 24.2448 33 24.0625V22H35.0625C35.2448 21.9999 35.4197 21.9275 35.5486 21.7986L41.4514 15.8958C42.2029 15.1443 42.625 14.1252 42.625 13.0625C42.625 11.9998 42.2029 10.9807 41.4514 10.2292L33.7708 2.54855C33.0193 1.79714 32.0002 1.375 30.9375 1.375C29.8748 1.375 28.8557 1.79714 28.1042 2.54855L22.2014 8.45143C22.0725 8.58033 22 8.75517 22 8.93749V11H19.9375C19.7552 11 19.5803 11.0725 19.4514 11.2014L2.75 27.9029V24.0625C2.75061 23.5157 2.96811 22.9914 3.35477 22.6048C3.74143 22.2181 4.26568 22.0006 4.8125 22H7.5625V20.625H4.8125C3.90115 20.6261 3.02743 20.9886 2.383 21.633C1.73858 22.2774 1.37607 23.1511 1.375 24.0625V35.0625C1.37607 35.9738 1.73858 36.8476 2.383 37.492C3.02743 38.1364 3.90115 38.4989 4.8125 38.5ZM3.52077 29.0764L20.2221 12.375H22.6875C22.8698 12.375 23.0447 12.3026 23.1736 12.1736C23.3026 12.0447 23.375 11.8698 23.375 11.6875V9.22211L29.0764 3.52076C30.0707 2.52638 31.8043 2.52638 32.7986 3.52076L40.4792 11.2014C40.9728 11.695 41.25 12.3645 41.25 13.0625C41.25 13.7605 40.9728 14.4299 40.4792 14.9236L34.7779 20.625H32.3125C32.1302 20.625 31.9553 20.6974 31.8264 20.8264C31.6974 20.9553 31.625 21.1302 31.625 21.3125V23.7779L14.9236 40.4792C13.9293 41.4736 12.1957 41.4736 11.2014 40.4792L3.52077 32.7985C3.02725 32.3049 2.75 31.6355 2.75 30.9375C2.75 30.2395 3.02725 29.57 3.52077 29.0764Z" fill="#003472"/>
<path d="M28.1875 31.625H29.5625V33.6875H28.1875V31.625Z" fill="#003472"/>
<path d="M31.625 33H35.0625V34.375H31.625V33Z" fill="#003472"/>
<path d="M36.4375 33H39.875V34.375H36.4375V33Z" fill="#003472"/>
<path d="M31.625 30.25H39.875V31.625H31.625V30.25Z" fill="#003472"/>
<path d="M31.625 27.5H39.875V28.875H31.625V27.5Z" fill="#003472"/>
<path d="M33.6875 24.75H39.875V26.125H33.6875V24.75Z" fill="#003472"/>
<path d="M23.5723 13.5498L24.5443 12.5778L25.919 13.9526L24.947 14.9246L23.5723 13.5498Z" fill="#003472"/>
<path d="M26.322 16.2998L27.294 15.3278L28.6688 16.7026L27.6968 17.6746L26.322 16.2998Z" fill="#003472"/>
<path d="M29.0713 19.0498L30.0433 18.0778L31.4181 19.4526L30.4461 20.4246L29.0713 19.0498Z" fill="#003472"/>
<path d="M10.8294 25.416L14.5877 26.3776L13.4652 27.5H10.9999C10.8639 27.5 10.731 27.5404 10.618 27.6159C10.505 27.6914 10.4169 27.7988 10.3648 27.9244C10.3128 28.05 10.2992 28.1882 10.3257 28.3216C10.3522 28.4549 10.4177 28.5774 10.5138 28.6736L15.3263 33.4861C15.4225 33.5822 15.5449 33.6476 15.6783 33.6741C15.8116 33.7007 15.9498 33.687 16.0754 33.635C16.2011 33.583 16.3084 33.4949 16.384 33.3819C16.4595 33.2688 16.4998 33.1359 16.4999 33V30.5346L17.5348 29.4998L18.5889 33.1891C18.6219 33.3041 18.6842 33.4086 18.7699 33.4921C18.8556 33.5757 18.9616 33.6354 19.0775 33.6654C19.1934 33.6955 19.3151 33.6947 19.4305 33.6632C19.546 33.6318 19.6513 33.5708 19.7359 33.4861L21.1109 32.1111C21.1748 32.0473 21.2254 31.9715 21.26 31.8881C21.2946 31.8047 21.3124 31.7153 21.3124 31.625V25.7221L22.4027 24.6318C22.9306 24.1069 23.349 23.4824 23.6339 22.7946C23.9188 22.1069 24.0644 21.3694 24.0624 20.625C24.0624 20.4427 23.9899 20.2678 23.861 20.1389C23.7321 20.0099 23.5572 19.9375 23.3749 19.9375C22.6304 19.9355 21.893 20.0811 21.2052 20.366C20.5174 20.6508 19.893 21.0693 19.368 21.5971L18.2777 22.6875H12.3749C12.1926 22.6875 12.0177 22.76 11.8888 22.8889L10.5138 24.2639C10.428 24.3497 10.3665 24.4567 10.3354 24.574C10.3044 24.6912 10.3049 24.8146 10.3369 24.9316C10.369 25.0486 10.4314 25.1551 10.5179 25.2402C10.6044 25.3252 10.7119 25.3859 10.8294 25.416ZM19.9374 31.3404L19.5899 31.6877L18.6469 28.3877L19.9374 27.0971V31.3404ZM20.3402 22.5693C20.9598 21.9465 21.7567 21.5304 22.6219 21.378C22.4695 22.2431 22.0534 23.0401 21.4305 23.6596L15.3263 29.7639C15.1974 29.8928 15.1249 30.0677 15.1249 30.25V31.3404L12.6595 28.875H13.7499C13.9322 28.875 14.107 28.8025 14.2359 28.6736L20.3402 22.5693ZM12.6595 24.0625H16.9027L15.7178 25.2475L12.3393 24.383L12.6595 24.0625Z" fill="#003472"/>
<path d="M26.323 10.5158L31.8222 5.01662L32.7942 5.98862L27.295 11.4878L26.323 10.5158Z" fill="#003472"/>
<path d="M28.385 12.5783L33.8842 7.07912L34.8562 8.05112L29.357 13.5503L28.385 12.5783Z" fill="#003472"/>
<path d="M30.447 14.6408L35.9462 9.14165L36.9182 10.1137L31.419 15.6128L30.447 14.6408Z" fill="#003472"/>
<path d="M32.5088 16.7032L34.571 14.6411L35.543 15.6131L33.4808 17.6752L32.5088 16.7032Z" fill="#003472"/>
<path d="M35.9463 13.2665L38.0085 11.2044L38.9805 12.1764L36.9183 14.2385L35.9463 13.2665Z" fill="#003472"/>
<path d="M4.32324 30.4489L7.76025 27.0119L8.73225 27.9839L5.29524 31.4209L4.32324 30.4489Z" fill="#003472"/>
<path d="M6.38477 32.5113L8.44695 30.4491L9.41895 31.4211L7.35677 33.4833L6.38477 32.5113Z" fill="#003472"/>
<path d="M8.44702 34.5738L10.5092 32.5116L11.4812 33.4836L9.41902 35.5458L8.44702 34.5738Z" fill="#003472"/>
<path d="M10.509 36.6363L12.5712 34.5741L13.5432 35.5461L11.481 37.6083L10.509 36.6363Z" fill="#003472"/>
<path d="M12.571 38.6988L14.6332 36.6366L15.6052 37.6086L13.543 39.6708L12.571 38.6988Z" fill="#003472"/>
<path d="M27.696 23.577L29.0708 22.2023L30.0428 23.1743L28.668 24.549L27.696 23.577Z" fill="#003472"/>
<path d="M24.946 26.3264L26.3208 24.9516L27.2928 25.9236L25.918 27.2984L24.946 26.3264Z" fill="#003472"/>
<path d="M16.0107 18.7639L20.8225 13.9521L21.7945 14.9241L16.9827 19.7359L16.0107 18.7639Z" fill="#003472"/>
</svg>
