<svg width="53" height="53" viewBox="0 0 53 53" fill="none" xmlns="http://www.w3.org/2000/svg">
<path d="M38.3972 10.5639C38.3918 10.4486 38.3623 10.3358 38.3107 10.2326C38.2591 10.1295 38.1865 10.0382 38.0975 9.96472C35.3176 7.66078 31.9123 6.24066 28.3192 5.88683C27.7238 5.82762 27.1184 5.79801 26.5133 5.7975C26.5089 5.7975 26.5045 5.79688 26.5001 5.79688C26.4956 5.79688 26.4914 5.7975 26.4869 5.7975C25.8816 5.7975 25.2763 5.82762 24.6814 5.88683C21.9814 6.15181 19.3752 7.01908 17.0548 8.42476C14.7344 9.83044 12.7589 11.7387 11.2738 14.0091L11.2674 14.0183C9.13278 17.2723 8.09589 21.1241 8.30855 25.01C8.52121 28.8958 9.97227 32.6115 12.4493 35.6131C12.5227 35.7021 12.6139 35.7748 12.7171 35.8265C12.8202 35.8782 12.9331 35.9078 13.0483 35.9133C13.0615 35.9139 13.0745 35.9141 13.0877 35.9141C13.3072 35.9141 13.5178 35.8269 13.6731 35.6717L38.1559 11.1887C38.2374 11.1071 38.301 11.0094 38.3426 10.9018C38.3841 10.7942 38.4027 10.6791 38.3972 10.5639ZM23.8145 23.1875H18.7306C18.8009 21.0737 19.1461 18.978 19.7575 16.9534C21.7193 17.2078 23.6939 17.3513 25.6719 17.3832V21.33L23.8145 23.1875ZM9.96055 23.1875C10.0924 20.4478 10.9064 17.7845 12.3288 15.4393C14.2273 15.9724 16.1544 16.3977 18.1009 16.7132C17.487 18.8194 17.1419 20.9947 17.0737 23.1875H9.96055ZM25.1551 7.50809C25.3268 7.49422 25.4991 7.48211 25.6719 7.47362V15.7269C23.8768 15.6971 22.0844 15.5725 20.3024 15.3534C21.4006 12.4507 23.0482 9.78695 25.1551 7.50809ZM22.1583 24.8437L19.0374 27.9645C18.869 26.9319 18.7667 25.8895 18.7312 24.8437H22.1583ZM27.3282 17.3833C28.1218 17.3706 28.9162 17.3398 29.7112 17.2908L27.3282 19.6738V17.3833ZM31.5181 15.4839C30.1321 15.6222 28.7276 15.7037 27.3282 15.7267V7.47383C27.5013 7.48232 27.6737 7.49453 27.8458 7.5083C29.7666 9.58879 31.3079 11.9898 32.3997 14.6024L31.5181 15.4839ZM22.6389 7.90549C20.92 10.0775 19.5632 12.5129 18.6212 15.1177C16.8336 14.8377 15.0623 14.4622 13.3149 13.9929C15.6219 10.9428 18.9184 8.79057 22.6389 7.90549ZM13.1638 33.8382C11.2376 31.2187 10.1232 28.0911 9.95921 24.8437H17.0737C17.1224 26.3701 17.3046 27.8892 17.6183 29.3837L13.1638 33.8382ZM33.6594 13.3421C32.7881 11.4006 31.68 9.57428 30.3604 7.90476C32.5145 8.41845 34.5425 9.36206 36.3229 10.679L33.6594 13.3421Z" fill="#002047"/>
<path d="M41.7331 14.019C41.3684 13.4644 40.9738 12.93 40.5509 12.4184C40.4775 12.3294 40.3862 12.2568 40.2831 12.2052C40.1799 12.1535 40.0671 12.124 39.9518 12.1186C39.8366 12.1131 39.7215 12.1317 39.6139 12.1733C39.5063 12.2149 39.4086 12.2785 39.327 12.3601L14.8442 36.8426C14.7626 36.9241 14.699 37.0219 14.6574 37.1294C14.6158 37.237 14.5971 37.3522 14.6026 37.4674C14.608 37.5826 14.6375 37.6954 14.6891 37.7986C14.7407 37.9018 14.8133 37.993 14.9023 38.0665C17.6822 40.3705 21.0875 41.7906 24.6807 42.1444C25.8362 42.2583 26.9998 42.2635 28.1563 42.1598V46.375C28.1563 46.5416 28.2066 46.7043 28.3005 46.8419C28.3945 46.9795 28.5277 47.0855 28.6829 47.1462C28.838 47.2069 29.0079 47.2193 29.1702 47.1819C29.3326 47.1446 29.4799 47.0591 29.5929 46.9367L37.0198 38.8908C40.875 36.1637 43.5209 32.0465 44.4001 27.4069C45.2794 22.7672 44.3232 17.9674 41.7331 14.0189V14.019ZM35.9954 37.5865C35.947 37.6205 35.9024 37.6595 35.8623 37.703L29.8125 44.257V41.2291C29.8125 41.1105 29.7871 40.9932 29.7378 40.8853C29.6885 40.7773 29.6166 40.6812 29.527 40.6035C29.4374 40.5257 29.3321 40.4682 29.2182 40.4347C29.1044 40.4012 28.9847 40.3925 28.8672 40.4093C28.6165 40.4452 28.3836 40.4736 28.1549 40.4962C27.0542 40.605 25.9454 40.605 24.8447 40.4962C21.8882 40.2053 19.0658 39.1188 16.6773 37.3523L39.8364 14.193C40.0147 14.4346 40.1856 14.6798 40.3491 14.9288C42.7111 18.5305 43.5776 22.9104 42.7649 27.1401C41.9521 31.3699 39.5241 35.1168 35.9954 37.5865Z" fill="#002047"/>
<path d="M26.5 33.9531C27.4147 33.9531 28.1562 33.2116 28.1562 32.2969C28.1562 31.3822 27.4147 30.6406 26.5 30.6406C25.5853 30.6406 24.8438 31.3822 24.8438 32.2969C24.8438 33.2116 25.5853 33.9531 26.5 33.9531Z" fill="#002047"/>
<path d="M31.4687 33.9531C32.3835 33.9531 33.125 33.2116 33.125 32.2969C33.125 31.3822 32.3835 30.6406 31.4687 30.6406C30.554 30.6406 29.8125 31.3822 29.8125 32.2969C29.8125 33.2116 30.554 33.9531 31.4687 33.9531Z" fill="#002047"/>
<path d="M36.4375 33.9531C37.3522 33.9531 38.0938 33.2116 38.0938 32.2969C38.0938 31.3822 37.3522 30.6406 36.4375 30.6406C35.5228 30.6406 34.7812 31.3822 34.7812 32.2969C34.7812 33.2116 35.5228 33.9531 36.4375 33.9531Z" fill="#002047"/>
<path d="M8.28045 35.2018C8.06252 35.1745 7.8427 35.235 7.66935 35.3698C7.49599 35.5047 7.3833 35.7029 7.35606 35.9208L7.28608 36.4798C4.33207 32.3178 2.9524 27.2418 3.39309 22.1571C3.83377 17.0724 6.06618 12.3095 9.6922 8.71781C9.76994 8.64138 9.83183 8.55036 9.87431 8.44996C9.91679 8.34956 9.93903 8.24176 9.93975 8.13275C9.94048 8.02374 9.91967 7.91565 9.87852 7.8147C9.83738 7.71375 9.7767 7.62191 9.69998 7.54446C9.62326 7.46701 9.532 7.40547 9.43144 7.36337C9.33088 7.32127 9.223 7.29944 9.11399 7.29914C9.00497 7.29883 8.89697 7.32005 8.79617 7.36158C8.69537 7.40311 8.60377 7.46413 8.52661 7.54115C4.63054 11.4001 2.22815 16.515 1.74607 21.9775C1.26398 27.4399 2.7334 32.8965 5.89338 37.3782L5.19362 37.2747C5.08604 37.2587 4.97637 37.2641 4.87088 37.2906C4.76539 37.317 4.66614 37.364 4.57881 37.4288C4.40242 37.5597 4.28525 37.7553 4.25307 37.9726C4.2209 38.1898 4.27635 38.411 4.40723 38.5874C4.53812 38.7638 4.73371 38.8809 4.95098 38.9131L7.7459 39.3272C7.85504 39.3433 7.96631 39.3375 8.07318 39.3101C8.18005 39.2826 8.28035 39.2341 8.3682 39.1674C8.45605 39.1006 8.52968 39.017 8.58475 38.9214C8.63983 38.8258 8.67525 38.7201 8.68893 38.6106L8.99947 36.1263C9.01297 36.0183 9.00508 35.9088 8.97625 35.804C8.94741 35.6991 8.89821 35.6009 8.83144 35.5151C8.76468 35.4292 8.68165 35.3574 8.58711 35.3036C8.49257 35.2499 8.38837 35.2153 8.28045 35.2018Z" fill="#002047"/>
<path d="M47.0514 9.9375C47.271 9.9375 47.4817 9.85025 47.637 9.69495C47.7923 9.53964 47.8795 9.32901 47.8795 9.10938C47.8795 8.88974 47.7923 8.67911 47.637 8.5238C47.4817 8.3685 47.271 8.28125 47.0514 8.28125H44.567C44.3474 8.28125 44.1368 8.3685 43.9815 8.5238C43.8262 8.67911 43.7389 8.88974 43.7389 9.10938V11.5938C43.7389 11.8134 43.8262 12.024 43.9815 12.1793C44.1368 12.3346 44.3474 12.4219 44.567 12.4219C44.7867 12.4219 44.9973 12.3346 45.1526 12.1793C45.3079 12.024 45.3952 11.8134 45.3952 11.5938V11.3207C48.4123 15.4538 49.8587 20.5264 49.4752 25.6292C49.0917 30.7321 46.9033 35.5315 43.3023 39.1672C43.1477 39.3233 43.0615 39.5343 43.0625 39.754C43.0636 39.9736 43.1518 40.1838 43.3079 40.3384C43.4639 40.4929 43.675 40.5792 43.8946 40.5781C44.1142 40.5771 44.3245 40.4888 44.479 40.3328C48.4185 36.3553 50.7859 31.0869 51.1443 25.5002C51.5027 19.9135 49.8279 14.3858 46.429 9.9375H47.0514Z" fill="#002047"/>
</svg>
