<svg width="40" height="40" viewBox="0 0 40 40" fill="none" xmlns="http://www.w3.org/2000/svg">
<path d="M10.625 3.4375C10.6253 3.18894 10.7241 2.95064 10.8999 2.77488C11.0756 2.59913 11.3139 2.50027 11.5625 2.5H28.4375C28.6861 2.50027 28.9244 2.59913 29.1001 2.77488C29.2759 2.95064 29.3747 3.18894 29.375 3.4375V6.875H30.625V3.4375C30.6243 2.85754 30.3937 2.30153 29.9836 1.89143C29.5735 1.48134 29.0175 1.25066 28.4375 1.25H11.5625C10.9825 1.25066 10.4265 1.48134 10.0164 1.89143C9.60634 2.30153 9.37566 2.85754 9.375 3.4375V6.875H10.625V3.4375Z" fill="white"/>
<path d="M29.375 33.75H10.625V31.875H9.375V36.5625C9.37566 37.1425 9.60634 37.6985 10.0164 38.1086C10.4265 38.5187 10.9825 38.7493 11.5625 38.75H28.4375C29.0175 38.7493 29.5735 38.5187 29.9836 38.1086C30.3937 37.6985 30.6243 37.1425 30.625 36.5625V31.875H29.375V33.75ZM28.4375 37.5H11.5625C11.3139 37.4997 11.0756 37.4009 10.8999 37.2251C10.7241 37.0494 10.6253 36.8111 10.625 36.5625V35H29.375V36.5625C29.3747 36.8111 29.2759 37.0494 29.1001 37.2251C28.9244 37.4009 28.6861 37.4997 28.4375 37.5Z" fill="white"/>
<path d="M17.5 4.375H22.5V5.625H17.5V4.375Z" fill="white"/>
<path d="M37.5 29.2188C37.5 29.2602 37.4835 29.2999 37.4542 29.3292C37.4249 29.3585 37.3852 29.375 37.3438 29.375H2.65625C2.61481 29.375 2.57507 29.3585 2.54576 29.3292C2.51646 29.2999 2.5 29.2602 2.5 29.2188V13.125H1.25V29.2188C1.25043 29.5916 1.39873 29.949 1.66236 30.2126C1.92599 30.4763 2.28342 30.6246 2.65625 30.625H37.3438C37.7166 30.6246 38.074 30.4763 38.3376 30.2126C38.6013 29.949 38.7496 29.5916 38.75 29.2188V24.375H37.5V29.2188Z" fill="white"/>
<path d="M37.3438 8.125H2.65625C2.28342 8.12543 1.92599 8.27373 1.66236 8.53736C1.39873 8.80099 1.25043 9.15842 1.25 9.53125V11.875H2.5V9.53125C2.5 9.48981 2.51646 9.45007 2.54576 9.42076C2.57507 9.39146 2.61481 9.375 2.65625 9.375H37.3438C37.3852 9.375 37.4249 9.39146 37.4542 9.42076C37.4835 9.45007 37.5 9.48981 37.5 9.53125V23.125H38.75V9.53125C38.7496 9.15842 38.6013 8.80099 38.3376 8.53736C38.074 8.27373 37.7166 8.12543 37.3438 8.125Z" fill="white"/>
<path d="M24.375 24.375H25.625V26.875H24.375V24.375Z" fill="white"/>
<path d="M21.875 24.375H23.125V26.875H21.875V24.375Z" fill="white"/>
<path d="M26.875 24.375H29.375V26.875H26.875V24.375Z" fill="white"/>
<path d="M30.625 24.375H31.875V26.875H30.625V24.375Z" fill="white"/>
<path d="M33.125 24.375H35.625V26.875H33.125V24.375Z" fill="white"/>
<path d="M21.875 18.125H30.625V19.375H21.875V18.125Z" fill="white"/>
<path d="M31.875 18.125H35.625V19.375H31.875V18.125Z" fill="white"/>
<path d="M26.875 20.625H35.625V21.875H26.875V20.625Z" fill="white"/>
<path d="M21.875 20.625H25.625V21.875H21.875V20.625Z" fill="white"/>
<path d="M21.875 15.625H24.375V16.875H21.875V15.625Z" fill="white"/>
<path d="M25.625 15.625H30.625V16.875H25.625V15.625Z" fill="white"/>
<path d="M29.375 11.875H30.625V13.125H29.375V11.875Z" fill="white"/>
<path d="M31.875 11.875H33.125V13.125H31.875V11.875Z" fill="white"/>
<path d="M34.375 11.875H35.625V13.125H34.375V11.875Z" fill="white"/>
<path d="M21.875 13.125H27.5V14.375H21.875V13.125Z" fill="white"/>
<path d="M18.75 28.125C18.9158 28.125 19.0747 28.0592 19.1919 27.9419C19.3092 27.8247 19.375 27.6658 19.375 27.5V11.25C19.375 11.0842 19.3092 10.9253 19.1919 10.8081C19.0747 10.6908 18.9158 10.625 18.75 10.625H5C4.83424 10.625 4.67527 10.6908 4.55806 10.8081C4.44085 10.9253 4.375 11.0842 4.375 11.25V27.5C4.375 27.6658 4.44085 27.8247 4.55806 27.9419C4.67527 28.0592 4.83424 28.125 5 28.125H18.75ZM5.625 25.3742C5.62608 25.0246 5.73328 24.6835 5.93242 24.3962C6.13156 24.1088 6.41325 23.8886 6.74023 23.7648L9.78125 22.625L10.125 23.0837C10.3288 23.3554 10.593 23.5759 10.8967 23.7277C11.2005 23.8796 11.5354 23.9587 11.875 23.9587C12.2146 23.9587 12.5495 23.8796 12.8533 23.7277C13.157 23.5759 13.4212 23.3554 13.625 23.0837L13.9688 22.625L17.0095 23.7656C17.3364 23.8893 17.6181 24.1093 17.8173 24.3966C18.0164 24.6838 18.1237 25.0247 18.125 25.3742V26.875H5.625V25.3742ZM13.0535 21.762L12.625 22.3334C12.5377 22.4498 12.4244 22.5443 12.2943 22.6094C12.1641 22.6745 12.0205 22.7084 11.875 22.7084C11.7295 22.7084 11.5859 22.6745 11.4557 22.6094C11.3256 22.5443 11.2123 22.4498 11.125 22.3334L10.6965 21.762L11.0755 20.625H12.6745L13.0535 21.762ZM13.75 18.4375C13.7497 18.6861 13.6509 18.9244 13.4751 19.1001C13.2994 19.2759 13.0611 19.3747 12.8125 19.375H10.9375C10.6889 19.3747 10.4506 19.2759 10.2749 19.1001C10.0991 18.9244 10.0003 18.6861 10 18.4375V15.3125C10.0003 15.0639 10.0991 14.8256 10.2749 14.6499C10.4506 14.4741 10.6889 14.3753 10.9375 14.375H12.8125C13.0611 14.3753 13.2994 14.4741 13.4751 14.6499C13.6509 14.8256 13.7497 15.0639 13.75 15.3125V18.4375ZM18.125 11.875V22.955C17.9163 22.8058 17.6889 22.6846 17.4487 22.5945L14.2486 21.3945L13.8962 20.3372C14.2313 20.1459 14.5099 19.8695 14.7037 19.5359C14.8975 19.2023 14.9998 18.8233 15 18.4375V15.3125C14.9993 14.7325 14.7687 14.1765 14.3586 13.7664C13.9485 13.3563 13.3925 13.1257 12.8125 13.125H10.9375C10.3575 13.1257 9.80153 13.3563 9.39143 13.7664C8.98134 14.1765 8.75066 14.7325 8.75 15.3125V18.4375C8.75024 18.8233 8.85246 19.2023 9.0463 19.5359C9.24015 19.8695 9.51873 20.1459 9.85383 20.3372L9.50141 21.3945L6.30133 22.5945C6.06112 22.6846 5.83375 22.8058 5.625 22.955V11.875H18.125Z" fill="white"/>
</svg>
