<svg width="41" height="41" viewBox="0 0 41 41" fill="none" xmlns="http://www.w3.org/2000/svg">
<path d="M20.5 0C9.19633 0 0 9.19633 0 20.5C0 31.8037 9.19633 41 20.5 41C31.8037 41 41 31.8037 41 20.5C41 9.19633 31.8037 0 20.5 0ZM21.8472 38.255V35.514C21.8472 34.77 21.244 34.1668 20.5 34.1668C19.756 34.1668 19.1528 34.77 19.1528 35.514V38.255C10.4065 37.5976 3.40242 30.5935 2.745 21.8472H5.48604C6.23004 21.8472 6.83321 21.244 6.83321 20.5C6.83321 19.756 6.23004 19.1528 5.48604 19.1528H2.745C3.40242 10.4065 10.4065 3.40242 19.1528 2.745V5.48604C19.1528 6.23004 19.756 6.83321 20.5 6.83321C21.244 6.83321 21.8472 6.23004 21.8472 5.48604V2.745C30.5935 3.40242 37.5976 10.4065 38.255 19.1528H35.514C34.77 19.1528 34.1668 19.756 34.1668 20.5C34.1668 21.244 34.77 21.8472 35.514 21.8472H38.255C37.5974 30.5935 30.5935 37.5974 21.8472 38.255Z" fill="#003472"/>
<path d="M29.2036 19.1528H21.6765L15.6078 9.71253C15.2053 9.08655 14.3718 8.90567 13.746 9.30784C13.1202 9.7102 12.939 10.5436 13.3413 11.1696L19.8077 21.2285C19.8097 21.2316 19.8122 21.2341 19.8142 21.2373C19.843 21.2812 19.8738 21.3234 19.9073 21.3634C19.9157 21.3737 19.925 21.3826 19.934 21.3927C19.9592 21.4209 19.985 21.4484 20.0123 21.4744C20.0267 21.4881 20.0413 21.5012 20.056 21.5141C20.0811 21.536 20.1072 21.5569 20.1338 21.5768C20.148 21.5874 20.1616 21.5985 20.176 21.6084C20.2167 21.6366 20.2588 21.663 20.3026 21.6866C20.3084 21.6896 20.3145 21.6921 20.3204 21.6952C20.3601 21.7158 20.4007 21.7343 20.4425 21.751C20.4553 21.7561 20.4684 21.7606 20.4813 21.7652C20.5171 21.7782 20.5534 21.7897 20.5905 21.7997C20.6049 21.8035 20.6191 21.8073 20.6335 21.8107C20.6707 21.8195 20.7084 21.8261 20.7465 21.8317C20.7603 21.8337 20.7738 21.8364 20.7876 21.838C20.835 21.8434 20.883 21.8464 20.9316 21.8468C20.9352 21.8468 20.9387 21.8473 20.9421 21.8473C20.9428 21.8473 20.9437 21.8471 20.9446 21.8471H29.2035C29.9475 21.8471 30.5506 21.244 30.5506 20.5C30.5508 19.756 29.9476 19.1528 29.2036 19.1528Z" fill="#003472"/>
</svg>
