<svg width="33" height="33" viewBox="0 0 33 33" fill="none" xmlns="http://www.w3.org/2000/svg">
<path fill-rule="evenodd" clip-rule="evenodd" d="M27.4435 5.51112C24.5492 2.61337 20.6999 1.01684 16.5991 1.01514C8.14911 1.01514 1.27201 7.89205 1.26861 16.3443C1.26747 19.0463 1.97331 21.6838 3.31493 24.0087L1.14001 31.9526L9.26697 29.8208C11.5063 31.0423 14.0273 31.686 16.5929 31.6868H16.5993C25.0484 31.6868 31.9263 24.8093 31.9295 16.3566C31.9312 12.2602 30.3381 8.40868 27.4435 5.51112ZM16.5991 29.0977H16.5939C14.3075 29.0968 12.0652 28.4824 10.1086 27.3216L9.64349 27.0454L4.82083 28.3105L6.10807 23.6085L5.805 23.1265C4.52947 21.0977 3.85592 18.7528 3.85706 16.3453C3.8597 9.31996 9.57589 3.60434 16.6042 3.60434C20.0077 3.60547 23.207 4.93255 25.6126 7.34105C28.0183 9.74954 29.3424 12.9509 29.3412 16.3557C29.3382 23.3816 23.6224 29.0977 16.5991 29.0977ZM23.5884 19.5546C23.2055 19.3627 21.3221 18.4364 20.9709 18.3083C20.62 18.1805 20.3644 18.1169 20.1093 18.5002C19.8538 18.8835 19.1198 19.7464 18.8962 20.0019C18.6727 20.2576 18.4495 20.2897 18.0663 20.0979C17.6832 19.9062 16.449 19.5015 14.9858 18.1966C13.8472 17.1808 13.0785 15.9265 12.8549 15.5431C12.6317 15.1594 12.853 14.9721 13.0229 14.7614C13.4376 14.2465 13.8528 13.7066 13.9805 13.4511C14.1083 13.1955 14.0443 12.9717 13.9484 12.78C13.8528 12.5884 13.0868 10.7029 12.7676 9.93573C12.4565 9.1891 12.1409 9.28994 11.9056 9.27823C11.6825 9.26709 11.427 9.26482 11.1715 9.26482C10.9162 9.26482 10.5011 9.36056 10.1499 9.74425C9.7989 10.1278 8.80944 11.0543 8.80944 12.9398C8.80944 14.8252 10.182 16.6467 10.3735 16.9023C10.565 17.158 13.0747 21.0271 16.9171 22.6861C17.8311 23.0811 18.5445 23.3166 19.1009 23.4932C20.0186 23.7847 20.8534 23.7435 21.5136 23.645C22.2496 23.5349 23.7797 22.7182 24.0992 21.8235C24.4183 20.9287 24.4183 20.1619 24.3224 20.0019C24.2268 19.8422 23.9714 19.7464 23.5884 19.5546Z" fill="white"/>
</svg>
