<svg width="40" height="40" viewBox="0 0 40 40" fill="none" xmlns="http://www.w3.org/2000/svg">
<g clip-path="url(#clip0)">
<path d="M31.2718 18.0962C33.1391 17.5443 34.9291 16.4498 36.4482 14.9308C38.2827 13.0961 39.5007 10.8544 39.8777 8.61853C40.2669 6.30941 39.7201 4.27653 38.3378 2.89417C36.9554 1.5118 34.9223 0.965029 32.6134 1.35423C30.3775 1.73125 28.1358 2.94916 26.3011 4.78377C24.7822 6.30277 23.6876 8.09277 23.1357 9.96019C22.6371 11.6477 22.6282 13.3142 23.1032 14.704L19.8674 17.7398L17.63 15.6406C19.0023 13.5275 18.7321 10.7154 16.9133 8.89649L13.6246 5.6078C13.3957 5.37898 13.0248 5.37898 12.7959 5.6078C12.5671 5.83662 12.5671 6.20754 12.7959 6.43636L16.0846 9.72504C17.6101 11.2506 17.7442 13.6684 16.3965 15.3491C16.2051 15.5878 16.2295 15.9336 16.4527 16.143L19.0111 18.5433L17.2571 20.1888L14.9093 17.6863C14.7001 17.4633 14.3542 17.4387 14.1155 17.6301C12.4345 18.9778 10.0167 18.8436 8.49143 17.3182L1.34729 10.1741C1.23417 10.061 1.17182 9.91051 1.17182 9.75051C1.17182 9.59052 1.23417 9.44006 1.34736 9.32686C1.58079 9.09327 1.96101 9.09327 2.19452 9.32686L8.49221 15.6246C9.18742 16.3198 10.3184 16.3198 11.0136 15.6246L11.0225 15.6157C11.7176 14.9206 11.7176 13.7896 11.0225 13.0944L4.72472 6.79665C4.60785 6.67971 4.54559 6.52424 4.54949 6.35878C4.5534 6.19355 4.62324 6.0409 4.74628 5.92888C4.97885 5.71733 5.35985 5.73717 5.59562 5.9731L11.8697 12.2472C12.5649 12.9424 13.6959 12.9423 14.3911 12.2472C15.0862 11.5521 15.0862 10.421 14.3911 9.7259L8.117 3.4518C7.88099 3.21587 7.86123 2.83487 8.07278 2.60246C8.18481 2.47942 8.33745 2.4095 8.50268 2.40559C8.66807 2.40184 8.82361 2.46395 8.94048 2.5809L11.3285 4.969C11.5573 5.19774 11.9282 5.19782 12.1571 4.969C12.386 4.74018 12.386 4.36918 12.1571 4.14036L9.76911 1.75234C9.4285 1.41165 8.95462 1.22236 8.47518 1.23416C7.98653 1.24564 7.53593 1.45149 7.20618 1.81374C6.56917 2.51371 6.60534 3.59726 7.28844 4.28043L13.5625 10.5545C13.6779 10.6699 13.7415 10.8234 13.7415 10.9866C13.7415 11.1498 13.6779 11.3033 13.5626 11.4186C13.3243 11.6569 12.9366 11.6568 12.6984 11.4186L6.42426 5.14454C5.741 4.46136 4.65761 4.42519 3.95756 5.06228C3.59524 5.39195 3.38946 5.84263 3.37798 6.3312C3.36657 6.8129 3.55547 7.2846 3.89616 7.62521L10.1939 13.923C10.4321 14.1613 10.4321 14.5489 10.1939 14.7871L10.185 14.796C9.94668 15.0343 9.55904 15.0342 9.32093 14.796L3.02315 8.49822C2.33271 7.80778 1.20932 7.80778 0.518728 8.49822C0.184211 8.83282 0 9.27756 0 9.75059C0 10.2236 0.184211 10.6684 0.518728 11.0028L7.6628 18.1469C9.4817 19.9658 12.2939 20.236 14.407 18.8637L16.4025 20.9907L12.1865 24.946C11.9506 25.1674 11.9387 25.5383 12.1601 25.7742C12.3815 26.0102 12.7523 26.022 12.9883 25.8006L24.1916 15.2898C24.3708 15.1217 24.4261 14.8597 24.3301 14.6335C23.2385 12.0621 24.3897 8.35252 27.1299 5.61241C30.5124 2.2299 35.1686 1.38212 37.5092 3.7228C38.6159 4.82955 39.0467 6.49901 38.7222 8.42369C38.3853 10.4216 37.2835 12.4382 35.6195 14.1022C32.8793 16.8423 29.1698 17.9935 26.5984 16.9019C26.3722 16.8058 26.1102 16.8612 25.9422 17.0404L7.28172 36.9303C6.88775 37.3503 6.35363 37.5866 5.77788 37.5958C5.76632 37.596 5.75468 37.596 5.74311 37.596C5.18033 37.596 4.65246 37.3775 4.25349 36.9786C3.84624 36.5713 3.62703 36.0299 3.63625 35.4542C3.64547 34.8784 3.88187 34.3443 4.30185 33.9503L11.3908 27.2995C11.6268 27.0781 11.6386 26.7073 11.4172 26.4714C11.1957 26.2353 10.825 26.2236 10.5889 26.4449L3.50001 33.0957C2.8466 33.7087 2.47888 34.5397 2.46458 35.4355C2.45029 36.3313 2.79136 37.1736 3.42493 37.8072C4.04569 38.428 4.8669 38.7679 5.74257 38.7679C5.76053 38.7679 5.77866 38.7678 5.79663 38.7675C6.69245 38.7532 7.52335 38.3855 8.13637 37.732L20.1227 24.9559L32.1602 37.7865C32.741 38.4055 33.5283 38.754 34.377 38.7675C34.3942 38.7677 34.4112 38.7679 34.4282 38.7679C35.2578 38.7679 36.0359 38.4458 36.624 37.8577C37.2243 37.2574 37.5473 36.4594 37.5339 35.6106C37.5203 34.7619 37.1718 33.9746 36.5528 33.3938L23.604 21.2453L26.528 18.1287C27.9179 18.6038 29.5844 18.5949 31.2718 18.0962ZM35.751 34.2484C36.1367 34.6102 36.3538 35.1007 36.3621 35.6293C36.3706 36.158 36.1693 36.6551 35.7953 37.029C35.4215 37.4029 34.9225 37.6045 34.3957 37.5958C33.867 37.5874 33.3765 37.3703 33.0148 36.9847L20.9261 24.0996L22.8022 22.0999L35.751 34.2484Z" fill="#003472"/>
<path d="M28.994 15.7809C29.4 15.7809 29.8285 15.7303 30.2741 15.6277C31.7683 15.2839 33.2985 14.3872 34.5829 13.1027C35.8673 11.8183 36.7641 10.288 37.1078 8.79377C37.4742 7.20134 37.1781 5.82663 36.2744 4.92269C35.3705 4.01882 33.9957 3.72281 32.4033 4.08921C30.909 4.43302 29.3788 5.3297 28.0943 6.6141C26.8099 7.89849 25.9132 9.42874 25.5695 10.923C25.2031 12.5153 25.4991 13.8901 26.4029 14.794C27.0539 15.4452 27.9492 15.7809 28.994 15.7809ZM28.9229 7.44289C30.054 6.31192 31.3832 5.52649 32.666 5.23134C33.0231 5.14916 33.3621 5.10861 33.6784 5.10861C34.4112 5.10861 35.021 5.32681 35.4456 5.75148C36.0536 6.35942 36.2383 7.34664 35.9658 8.5312C35.6707 9.81396 34.8852 11.1433 33.7541 12.2742C32.6232 13.4052 31.2939 14.1906 30.0111 14.4858C28.8267 14.7583 27.8393 14.5736 27.2315 13.9657C25.9221 12.6562 26.6967 9.66912 28.9229 7.44289Z" fill="#003472"/>
</g>
<defs>
<clipPath id="clip0">
<rect width="40" height="40" fill="white"/>
</clipPath>
</defs>
</svg>
