<svg width="40" height="40" viewBox="0 0 40 40" fill="none" xmlns="http://www.w3.org/2000/svg">
<g clip-path="url(#clip0)">
<path d="M38.6667 9.03656L38.5199 9.03625L37.9999 11.1185V25.2457C37.9974 25.7962 37.6596 26.2891 37.1472 26.4899L36.243 26.8387L36.041 29.7943C35.9909 30.4929 35.4111 31.0342 34.711 31.0364H34.6667V33.0365C34.6658 33.7726 34.0695 34.3689 33.3334 34.3698H12.0001C11.9992 35.1059 11.4026 35.7022 10.6668 35.7031H3.99994C3.26386 35.7022 2.66755 35.1059 2.66663 34.3698V33.0365H2.27601C1.92261 33.0356 1.58387 32.8952 1.33332 32.6459L0.390629 31.7032C0.139775 31.4536 -0.000911091 31.1142 4.44062e-06 30.7605V25.9793C-0.000911091 25.6253 0.139775 25.2859 0.390629 25.0363L1.33332 24.0936C1.58387 23.8443 1.92261 23.7042 2.27601 23.703H2.66663V16.3699C2.66999 16.3458 2.67487 16.3217 2.68128 16.2982C2.68311 16.2784 2.67579 16.2588 2.67975 16.239L3.19245 13.6746C2.88849 13.6127 2.66938 13.3466 2.66663 13.0365V11.1182L2.146 9.03656H2.00013C1.26404 9.03564 0.667424 8.43902 0.666813 7.70325V5.70312C0.667424 4.96704 1.26404 4.37072 2.00013 4.36981H38.6667C39.4028 4.37072 39.9991 4.96704 40 5.70312V7.70325C39.9991 8.43902 39.4028 9.03564 38.6667 9.03656ZM28.2892 10.3699H12.4515L11.6516 12.3697H29.4891L28.2892 10.3699ZM10.6668 13.703H4.54621L4.14612 15.7031H36.6666V13.703H10.6668ZM15.3333 27.3126L14.3906 26.3699H12.0001V30.3699H14.3906L15.3333 29.4272V27.3126ZM20 21.0364V19.7031H14.6668C14.2984 19.7031 13.9999 19.4046 13.9999 19.0366C13.9999 18.6682 14.2984 18.3697 14.6668 18.3697H20V17.0364H3.99994V21.0364H20ZM32.6666 21.0364H36.6666V17.0364H27.9999V18.3697H32.6666C33.035 18.3697 33.3334 18.6682 33.3334 19.0366C33.3334 19.4046 33.035 19.7031 32.6666 19.7031H27.9999V21.0364H32.6666ZM25.3333 25.0363H22.677L22.7032 26.7053L23.9999 27.7011L25.3333 26.6797V25.0363ZM22.0001 23.703H26.6666V17.0364H21.3333V23.703H22.0001ZM34.9121 26.748C34.9487 26.2317 35.2798 25.7825 35.7623 25.5948L36.6666 25.2457V22.3697H33.3334V29.7031H34.7104L34.9121 26.748ZM33.3334 33.0365V31.0364C32.5974 31.0355 32.0007 30.4391 32.0001 29.7031V22.3697H27.9999V23.703H28.6667C29.0347 23.703 29.3332 24.0015 29.3332 24.3698C29.3332 24.7379 29.0347 25.0363 28.6667 25.0363H26.6666V26.6797C26.6708 27.1109 26.4621 27.5162 26.1087 27.7634L24.7397 28.8126C24.2773 29.1168 23.6761 29.1064 23.2245 28.7869L21.9272 27.789C21.5558 27.5421 21.3327 27.1255 21.3333 26.6797V25.0363H19.3332C18.9652 25.0363 18.6667 24.7379 18.6667 24.3698C18.6667 24.0015 18.9652 23.703 19.3332 23.703H20V22.3697H12.0001V25.0363H14.3906C14.744 25.0375 15.0827 25.1779 15.3333 25.4269L16.2759 26.3699H17.3334C17.7014 26.3699 17.9999 26.6684 17.9999 27.0364C17.9999 27.4048 17.7014 27.7032 17.3334 27.7032H16.6666V29.0366H17.3334C17.7014 29.0366 17.9999 29.335 17.9999 29.7031C17.9999 30.0714 17.7014 30.3699 17.3334 30.3699H16.2759L15.3333 31.3126C15.0827 31.5619 14.744 31.7023 14.3906 31.7032H12.0001V33.0365H33.3334ZM3.99994 34.3698H10.6668V22.3697H3.99994V34.3698ZM2.27601 25.0363L1.33332 25.9793V30.7605L2.27601 31.7032H2.66663V25.0363H2.27601ZM38.6667 5.70312H2.00013V7.70325H2.146C2.75788 7.70233 3.29163 8.1192 3.43934 8.71307L3.95874 10.7904C3.98621 10.8975 3.99994 11.0077 3.99994 11.1185V12.3697H10.2155L11.3809 9.45526L11.3846 9.45007C11.4136 9.38446 11.4533 9.32403 11.5018 9.27124C11.5118 9.25964 11.5167 9.24377 11.5274 9.2334C11.6608 9.12506 11.8225 9.057 11.9934 9.03778L12.0001 9.03656H28.6667C28.6926 9.03992 28.718 9.0451 28.7433 9.05182C28.7885 9.05609 28.8333 9.06494 28.8766 9.07867C28.9163 9.09241 28.9545 9.11041 28.9908 9.13177C29.0686 9.17236 29.1357 9.23096 29.1864 9.30267C29.205 9.32068 29.2224 9.3396 29.2386 9.35974L31.0443 12.3697H36.6666V11.1185C36.6663 11.0095 36.6797 10.9009 36.7065 10.7953L37.2266 8.71277C37.3743 8.11859 37.9086 7.70202 38.5208 7.70325H38.6667V5.70312Z" fill="#003472"/>
<path d="M23.9999 18.3697C25.1047 18.3697 26.0001 19.2651 26.0001 20.3698C26.0001 21.4742 25.1047 22.3696 23.9999 22.3696C22.8955 22.3696 22.0001 21.4742 22.0001 20.3698C22.0013 19.2657 22.8958 18.3709 23.9999 18.3697ZM23.9999 21.0363C24.3683 21.0363 24.6667 20.7379 24.6667 20.3698C24.6667 20.0015 24.3683 19.703 23.9999 19.703C23.6319 19.703 23.3334 20.0015 23.3334 20.3698C23.3337 20.7379 23.6319 21.036 23.9999 21.0363Z" fill="#003472"/>
<path d="M7.33337 24.3697C8.43781 24.3697 9.33319 25.2651 9.33319 26.3698C9.33319 27.4742 8.43781 28.3696 7.33337 28.3696C6.22864 28.3696 5.33325 27.4742 5.33325 26.3698C5.33447 25.2657 6.22925 24.3709 7.33337 24.3697ZM7.33337 27.0363C7.70142 27.0363 7.99988 26.7379 7.99988 26.3698C7.99988 26.0015 7.70142 25.703 7.33337 25.703C6.96503 25.703 6.66656 26.0015 6.66656 26.3698C6.66687 26.7379 6.96533 27.036 7.33337 27.0363Z" fill="#003472"/>
<path d="M6.66657 31.7033H7.99988C8.36823 31.7033 8.66669 32.0018 8.66669 32.3698C8.66669 32.7382 8.36823 33.0366 7.99988 33.0366H6.66657C6.29852 33.0366 6.00006 32.7382 6.00006 32.3698C6.00006 32.0018 6.29852 31.7033 6.66657 31.7033Z" fill="#003472"/>
<path d="M6.66657 29.7028H7.99988C8.36823 29.7028 8.66669 30.0013 8.66669 30.3696C8.66669 30.7377 8.36823 31.0361 7.99988 31.0361H6.66657C6.29852 31.0361 6.00006 30.7377 6.00006 30.3696C6.00006 30.0013 6.29852 29.7028 6.66657 29.7028Z" fill="#003472"/>
</g>
<defs>
<clipPath id="clip0">
<rect width="40" height="40" fill="white" transform="matrix(1 0 0 -1 0 40)"/>
</clipPath>
</defs>
</svg>
